<?xml version="1.0" standalone="no"?>
<!DOCTYPE svg PUBLIC "-//W3C//DTD SVG 20010904//EN"
 "http://www.w3.org/TR/2001/REC-SVG-20010904/DTD/svg10.dtd">
<svg version="1.0" xmlns="http://www.w3.org/2000/svg"
 width="1060.000000pt" height="706.000000pt" viewBox="0 0 1060.000000 706.000000"
 preserveAspectRatio="xMidYMid meet">

<g transform="translate(0.000000,706.000000) scale(0.100000,-0.100000)"
fill="#000000" stroke="none">
<path d="M9 6523 c-1 -296 -1 -551 -1 -568 0 -16 1 -67 1 -112 l1 -83 164 0
165 0 -2 650 -1 650 -163 0 -163 0 -1 -537z m142 400 c13 -16 12 -17 -3 -4
-10 7 -18 15 -18 17 0 8 8 3 21 -13z m76 -260 c-3 -10 -5 -2 -5 17 0 19 2 27
5 18 2 -10 2 -26 0 -35z m30 -85 c-2 -18 -4 -6 -4 27 0 33 2 48 4 33 2 -15 2
-42 0 -60z m-140 -110 c-3 -7 -5 -2 -5 12 0 14 2 19 5 13 2 -7 2 -19 0 -25z
m0 -270 c-2 -29 -3 -8 -3 47 0 55 1 79 3 53 2 -26 2 -71 0 -100z m-50 -204
c-3 -3 -12 -4 -19 -1 -8 3 -5 6 6 6 11 1 17 -2 13 -5z m86 -41 c-7 -2 -19 -2
-25 0 -7 3 -2 5 12 5 14 0 19 -2 13 -5z"/>
<path d="M466 7051 c-4 -5 -24 -9 -46 -7 -27 2 -40 -1 -40 -9 0 -7 -7 -15 -15
-19 -17 -6 -10 -33 9 -33 7 0 11 8 9 17 -2 9 3 23 13 31 15 13 16 12 9 -10
-12 -38 -22 -131 -14 -131 3 0 6 -200 5 -445 -1 -439 -1 -445 20 -465 19 -19
23 -20 36 -7 12 12 16 63 21 258 10 351 8 754 -2 783 -7 17 -7 26 2 29 7 2 9
7 6 11 -4 4 -10 3 -13 -3z m-16 -40 c0 -6 -4 -13 -10 -16 -5 -3 -10 -12 -10
-18 0 -8 3 -8 9 2 6 9 10 5 12 -15 8 -57 -3 -954 -11 -949 -4 3 -6 -5 -2 -17
3 -14 2 -19 -6 -14 -15 9 -16 116 -2 116 6 0 9 30 8 73 l-2 72 -3 -67 c-2 -38
-8 -68 -13 -68 -12 0 -2 784 10 788 6 2 10 18 9 35 -1 31 -1 31 -9 7 -6 -20
-8 -14 -9 28 -1 40 2 52 14 52 8 0 15 -4 15 -9z"/>
<path d="M433 6695 c0 -27 2 -38 4 -22 2 15 2 37 0 50 -2 12 -4 0 -4 -28z"/>
<path d="M431 6514 c0 -11 3 -14 6 -6 3 7 2 16 -1 19 -3 4 -6 -2 -5 -13z"/>
<path d="M432 6055 c0 -16 2 -22 5 -12 2 9 2 23 0 30 -3 6 -5 -1 -5 -18z"/>
<path d="M513 6980 c0 -47 2 -66 4 -42 2 23 2 61 0 85 -2 23 -4 4 -4 -43z"/>
<path d="M1026 6878 c-25 -101 -89 -352 -142 -558 -52 -206 -102 -400 -109
-430 -23 -87 -25 -84 78 -108 50 -12 95 -22 98 -22 4 0 9 12 11 28 7 39 287
1142 298 1172 5 14 12 42 16 63 l6 37 -105 0 -105 0 -46 -182z"/>
<path d="M1769 7028 c-1 -18 -1 -46 -1 -63 0 -16 1 -263 1 -547 l1 -517 83 -4
82 -3 -87 -2 c-51 -1 -88 -6 -88 -12 0 -10 40 -14 114 -10 26 1 36 -2 31 -10
-4 -7 -30 -9 -71 -7 -35 2 -64 2 -65 -2 0 -3 -1 -25 -2 -49 l-2 -42 205 0
c204 0 206 0 207 22 3 32 20 38 110 38 45 0 85 5 88 10 4 6 -22 10 -69 10 -47
0 -76 4 -76 11 0 5 5 7 12 3 7 -4 8 -3 4 4 -11 18 -23 14 -29 -8 -3 -11 -13
-20 -22 -20 -9 0 -14 4 -10 9 3 5 -2 17 -11 25 -14 14 -14 16 0 16 15 0 15 29
1 76 -3 11 79 24 156 24 21 0 41 5 45 12 5 8 -19 9 -94 4 l-102 -7 0 84 c0 51
-5 88 -12 95 -9 9 -9 12 0 12 15 0 16 46 2 55 -8 5 -8 11 -1 19 8 10 15 487
11 774 l0 32 -205 0 -205 0 -1 -32z m398 -44 c-3 -3 -12 -4 -19 -1 -8 3 -5 6
6 6 11 1 17 -2 13 -5z m-140 -500 c-3 -3 -12 -4 -19 -1 -8 3 -5 6 6 6 11 1 17
-2 13 -5z m-94 -661 c-7 -2 -21 -2 -30 0 -10 3 -4 5 12 5 17 0 24 -2 18 -5z"/>
<path d="M2333 7047 c4 -10 7 -25 7 -33 0 -8 7 -14 15 -14 21 0 19 13 -7 41
-16 18 -19 19 -15 6z"/>
<path d="M3750 6410 l0 -650 205 0 205 0 0 120 c0 66 0 318 0 560 0 242 0 481
0 530 l0 90 -205 0 -205 0 0 -650z m83 -427 c-7 -2 -21 -2 -30 0 -10 3 -4 5
12 5 17 0 24 -2 18 -5z"/>
<path d="M5630 6531 c0 -414 3 -531 13 -535 6 -3 3 -4 -8 -2 -11 3 -92 1 -180
-3 l-160 -8 165 -1 c143 0 165 -2 168 -16 3 -14 -12 -16 -115 -17 -65 0 -140
-4 -168 -9 -35 -6 -1 -8 115 -7 l165 2 3 -87 3 -88 319 0 320 0 1 88 c0 48 1
101 1 117 0 17 0 270 -1 563 l-1 532 -320 0 -320 0 0 -529z m171 396 c-10 -9
-11 -8 -5 6 3 10 9 15 12 12 3 -3 0 -11 -7 -18z m-37 -3 c3 -8 2 -12 -4 -9 -6
3 -10 10 -10 16 0 14 7 11 14 -7z m-47 -166 c-3 -8 -6 -5 -6 6 -1 11 2 17 5
13 3 -3 4 -12 1 -19z m160 -405 c-2 -16 -4 -5 -4 22 0 28 2 40 4 28 2 -13 2
-35 0 -50z m-30 5 c-3 -7 -5 -2 -5 12 0 14 2 19 5 13 2 -7 2 -19 0 -25z m70
-354 c-3 -3 -12 -4 -19 -1 -8 3 -5 6 6 6 11 1 17 -2 13 -5z m-129 -51 c-10 -2
-26 -2 -35 0 -10 3 -2 5 17 5 19 0 27 -2 18 -5z"/>
<path d="M6862 7040 c0 -14 2 -19 5 -12 2 6 2 18 0 25 -3 6 -5 1 -5 -13z"/>
<path d="M6968 7048 c7 -7 12 -29 12 -50 0 -21 5 -38 10 -38 6 0 10 6 9 13 -5
43 2 67 21 67 11 0 20 5 20 10 0 14 -37 12 -44 -2 -5 -10 -7 -10 -12 0 -3 6
-11 12 -17 12 -8 0 -7 -4 1 -12z"/>
<path d="M8308 6537 c-2 -288 -2 -531 0 -540 2 -10 16 -17 40 -20 36 -4 36 -4
-7 -5 -35 -2 -42 -5 -37 -18 3 -9 6 -56 6 -105 l0 -89 160 0 160 0 0 650 0
650 -160 0 -160 0 -2 -523z m59 346 c-3 -10 -5 -4 -5 12 0 17 2 24 5 18 2 -7
2 -21 0 -30z m30 -25 c-2 -13 -4 -5 -4 17 -1 22 1 32 4 23 2 -10 2 -28 0 -40z
m130 -435 c-3 -10 -5 -4 -5 12 0 17 2 24 5 18 2 -7 2 -21 0 -30z m0 -100 c-2
-16 -4 -5 -4 22 0 28 2 40 4 28 2 -13 2 -35 0 -50z m0 -185 c-3 -8 -6 -5 -6 6
-1 11 2 17 5 13 3 -3 4 -12 1 -19z m80 -104 c-3 -3 -12 -4 -19 -1 -8 3 -5 6 6
6 11 1 17 -2 13 -5z"/>
<path d="M9391 7028 c0 -18 3 -27 6 -19 5 11 7 11 14 0 6 -10 9 -4 9 19 0 22
-5 32 -15 32 -10 0 -15 -10 -14 -32z"/>
<path d="M9440 7050 c0 -5 5 -10 11 -10 5 0 7 5 4 10 -3 6 -8 10 -11 10 -2 0
-4 -4 -4 -10z"/>
<path d="M9502 7051 c-11 -7 -11 -9 0 -13 17 -6 38 1 38 13 0 11 -21 11 -38 0z"/>
<path d="M9845 7050 c-3 -5 1 -10 10 -10 9 0 13 5 10 10 -3 6 -8 10 -10 10 -2
0 -7 -4 -10 -10z"/>
<path d="M9965 7049 c-4 -6 -5 -12 -2 -15 2 -3 7 2 10 11 7 17 1 20 -8 4z"/>
<path d="M10432 6983 c-12 -43 -73 -283 -136 -533 -63 -250 -126 -496 -140
-547 l-24 -92 31 -10 c79 -25 160 -42 167 -34 4 4 65 235 136 513 l129 505 3
138 3 137 -74 0 -75 0 -20 -77z"/>
<path d="M2250 7040 c8 -5 20 -10 25 -10 6 0 3 5 -5 10 -8 5 -19 10 -25 10 -5
0 -3 -5 5 -10z"/>
<path d="M2300 7043 c16 -8 12 -23 -7 -24 -16 0 -15 -2 2 -10 16 -7 12 -8 -17
-6 -20 2 -34 -1 -32 -5 3 -4 1 -8 -4 -8 -19 0 -32 -48 -21 -80 6 -16 15 -30
19 -30 5 0 15 -2 23 -6 8 -3 28 6 44 20 17 14 34 22 38 18 5 -4 5 1 1 12 -3
10 -1 26 6 34 11 13 10 15 -4 10 -18 -7 -31 12 -32 51 -1 13 -7 25 -14 27 -7
1 -8 0 -2 -3z m10 -83 c15 -28 -3 -57 -34 -57 -37 0 -52 21 -38 52 14 31 56
34 72 5z"/>
<path d="M2240 6935 c0 -16 16 -20 24 -6 3 5 -1 11 -9 15 -9 3 -15 0 -15 -9z"/>
<path d="M612 7008 c-11 -41 -10 -996 2 -1021 12 -26 49 -18 57 13 4 14 7 248
8 521 1 373 -2 498 -11 507 -22 22 -46 13 -56 -20z m49 -498 c-1 -276 -5 -508
-8 -516 -8 -21 -20 -17 -27 9 -11 42 -7 987 5 1009 29 54 32 -3 30 -502z"/>
<path d="M2209 7038 c-7 -15 -6 -58 2 -58 5 0 9 14 9 30 0 25 -6 39 -11 28z"/>
<path d="M4231 7018 c-11 -30 -14 -973 -3 -1013 10 -35 45 -46 58 -18 13 28
17 1008 4 1033 -14 27 -48 26 -59 -2z m47 -516 c-2 -280 -7 -514 -11 -518 -23
-23 -27 54 -27 522 0 376 3 503 12 512 7 7 16 8 20 4 5 -5 7 -239 6 -520z"/>
<path d="M6904 7026 c-3 -9 -9 -14 -13 -12 -3 2 -4 -228 -1 -511 5 -496 6
-515 25 -529 17 -12 21 -12 35 1 13 14 15 80 15 538 l0 522 -28 3 c-17 2 -29
-2 -33 -12z m45 -503 c-1 -274 -4 -509 -8 -523 l-7 -25 -12 22 c-9 16 -12 151
-12 507 0 266 3 491 6 500 3 9 12 16 20 16 12 0 14 -78 13 -497z"/>
<path d="M6920 6990 c0 -5 5 -10 10 -10 6 0 10 5 10 10 0 6 -4 10 -10 10 -5 0
-10 -4 -10 -10z"/>
<path d="M6920 6921 c0 -11 5 -23 10 -26 6 -4 10 5 10 19 0 14 -4 26 -10 26
-5 0 -10 -9 -10 -19z"/>
<path d="M6932 6820 c0 -19 2 -27 5 -17 2 9 2 25 0 35 -3 9 -5 1 -5 -18z"/>
<path d="M6933 6665 c0 -38 2 -53 4 -32 2 20 2 52 0 70 -2 17 -4 1 -4 -38z"/>
<path d="M6921 6574 c0 -11 3 -14 6 -6 3 7 2 16 -1 19 -3 4 -6 -2 -5 -13z"/>
<path d="M6927 6526 c-4 -10 -5 -21 -2 -24 9 -9 17 6 13 25 -3 17 -4 17 -11
-1z"/>
<path d="M6920 6458 c0 -19 2 -20 10 -8 13 19 13 30 0 30 -5 0 -10 -10 -10
-22z"/>
<path d="M6921 6354 c0 -11 3 -14 6 -6 3 7 2 16 -1 19 -3 4 -6 -2 -5 -13z"/>
<path d="M6929 6128 c4 -28 6 -29 9 -9 2 13 0 27 -5 32 -6 6 -7 -3 -4 -23z"/>
<path d="M6923 6040 c1 -11 5 -20 9 -20 4 0 8 9 8 20 0 11 -4 20 -9 20 -6 0
-9 -9 -8 -20z"/>
<path d="M9651 7026 c-17 -20 -18 -1004 -2 -1035 14 -26 37 -27 50 -3 12 23
24 961 13 1012 -9 39 -39 52 -61 26z m46 -526 c-4 -301 -11 -508 -17 -514 -25
-25 -29 56 -26 531 2 270 7 497 11 503 5 8 11 7 22 -2 15 -12 15 -66 10 -518z"/>
<path d="M9490 7017 c14 -8 27 -12 30 -10 7 6 -23 23 -40 23 -8 0 -4 -6 10
-13z"/>
<path d="M5420 7000 c-11 -11 -20 -31 -20 -45 0 -24 31 -65 49 -65 22 0 54 38
54 65 0 18 -9 36 -23 47 -28 23 -35 23 -60 -2z m62 -26 c14 -31 1 -57 -31 -62
-15 -3 -24 4 -31 23 -21 55 38 93 62 39z"/>
<path d="M9449 7015 c-1 -3 -2 -9 -3 -13 0 -5 -9 -16 -18 -26 -25 -24 -22 -53
7 -81 31 -32 40 -31 76 5 23 23 29 35 24 52 -9 30 -33 48 -63 48 -13 0 -20 4
-17 10 3 6 4 10 1 10 -3 0 -7 -2 -7 -5z m55 -51 c15 -14 15 -17 -2 -32 -10 -9
-12 -13 -5 -8 8 5 13 4 13 -3 0 -6 -10 -16 -22 -20 -17 -7 -28 -4 -42 10 -17
15 -18 22 -8 44 13 29 43 33 66 9z"/>
<path d="M9470 6966 c0 -2 7 -7 16 -10 8 -3 12 -2 9 4 -6 10 -25 14 -25 6z"/>
<path d="M9440 6930 c0 -5 6 -10 14 -10 8 0 18 5 21 10 3 6 -3 10 -14 10 -12
0 -21 -4 -21 -10z"/>
<path d="M9860 7002 c-93 -4 -97 -20 -6 -24 42 -2 76 0 76 5 0 4 11 7 25 7 19
0 23 -4 19 -17 -4 -11 -3 -14 3 -7 4 6 42 15 83 21 l75 10 -75 3 c-41 2 -88 3
-105 4 -16 1 -59 0 -95 -2z"/>
<path d="M1364 6989 c-5 -8 -14 -34 -21 -59 -7 -25 -21 -79 -32 -120 -28 -104
-27 -128 6 -141 14 -5 32 -8 39 -5 22 9 104 300 88 316 -17 17 -71 23 -80 9z
m62 -22 c4 -12 -9 -68 -58 -249 -8 -30 -15 -38 -34 -38 -12 0 -26 5 -29 10 -7
12 7 83 35 175 10 33 21 72 24 88 5 21 12 27 32 27 13 0 27 -6 30 -13z"/>
<path d="M7020 6990 c0 -12 66 -12 130 -1 39 8 34 9 -42 10 -53 0 -88 -3 -88
-9z"/>
<path d="M8730 6987 l-25 -13 4 -559 c2 -437 6 -563 16 -574 9 -9 26 -11 62
-6 65 8 74 15 82 61 4 22 3 269 -2 549 l-9 510 -24 23 c-28 25 -66 28 -104 9z
m99 -21 c18 -21 20 -62 26 -581 5 -400 4 -493 -7 -508 -16 -22 -97 -42 -111
-28 -6 6 -12 185 -15 448 -8 700 -9 663 8 673 22 14 86 12 99 -4z"/>
<path d="M6873 6940 c0 -25 2 -35 4 -22 2 12 2 32 0 45 -2 12 -4 2 -4 -23z"/>
<path d="M2393 6963 c15 -2 37 -2 50 0 12 2 0 4 -28 4 -27 0 -38 -2 -22 -4z"/>
<path d="M360 6950 c0 -5 5 -10 10 -10 6 0 10 5 10 10 0 6 -4 10 -10 10 -5 0
-10 -4 -10 -10z"/>
<path d="M7070 6950 c-33 -7 -32 -7 15 -8 28 0 64 4 80 8 27 7 25 8 -15 8 -25
-1 -61 -4 -80 -8z"/>
<path d="M9381 6955 c1 -19 18 -51 18 -35 0 8 -4 22 -9 30 -5 8 -9 11 -9 5z"/>
<path d="M9840 6951 c0 -5 21 -6 46 -3 34 3 45 2 40 -6 -5 -8 -1 -10 9 -5 13
5 14 7 3 14 -17 11 -98 11 -98 0z"/>
<path d="M10010 6950 l-45 -7 55 0 c30 0 69 3 85 7 28 7 28 8 -10 7 -22 0 -60
-3 -85 -7z"/>
<path d="M2366 6932 c-2 -4 12 -6 32 -4 62 6 69 10 20 11 -26 0 -49 -3 -52 -7z"/>
<path d="M6992 6920 c0 -14 2 -19 5 -12 2 6 2 18 0 25 -3 6 -5 1 -5 -13z"/>
<path d="M3390 6912 c0 -5 24 -12 53 -15 28 -3 68 -8 87 -11 35 -6 35 -6 -5 8
-56 18 -135 29 -135 18z"/>
<path d="M9840 6910 c0 -5 7 -10 15 -10 8 0 15 5 15 10 0 6 -7 10 -15 10 -8 0
-15 -4 -15 -10z"/>
<path d="M9880 6899 c0 -11 4 -18 10 -14 5 3 7 12 3 20 -7 21 -13 19 -13 -6z"/>
<path d="M494 6780 c0 -69 1 -97 3 -62 2 34 2 90 0 125 -2 34 -3 6 -3 -63z"/>
<path d="M6845 6510 c0 -217 1 -306 2 -197 2 108 2 286 0 395 -1 108 -2 19 -2
-198z"/>
<path d="M2205 6880 c3 -5 8 -10 11 -10 2 0 4 5 4 10 0 6 -5 10 -11 10 -5 0
-7 -4 -4 -10z"/>
<path d="M3387 6874 c34 -14 163 -40 163 -33 0 5 -10 11 -22 14 -84 19 -115
24 -133 24 -11 0 -15 -3 -8 -5z"/>
<path d="M9383 6815 c3 -36 8 -69 12 -73 4 -4 5 12 2 36 -3 23 -1 42 4 42 4 0
5 8 2 18 -6 15 -5 15 10 3 9 -7 17 -10 17 -5 0 5 -12 17 -26 27 l-25 18 4 -66z"/>
<path d="M2236 6856 c3 -9 -3 -17 -16 -21 -12 -4 -19 -9 -17 -12 3 -2 19 3 36
11 21 11 37 13 53 7 20 -7 24 -6 25 11 1 14 -2 17 -10 10 -13 -11 -46 -10 -65
1 -8 6 -10 3 -6 -7z"/>
<path d="M3220 6866 c0 -2 -58 -232 -130 -511 -71 -279 -131 -519 -132 -533
-3 -24 2 -27 67 -43 97 -25 96 -26 90 19 -9 62 0 66 95 47 45 -9 84 -14 87
-12 2 3 -31 13 -74 22 -106 22 -109 23 -95 37 7 7 32 6 86 -7 42 -9 82 -15 89
-12 6 2 -24 12 -68 21 -101 22 -107 24 -102 34 3 4 56 205 117 447 61 242 115
444 120 448 6 7 100 -10 158 -28 6 -3 12 -1 12 4 0 9 -158 47 -166 39 -3 -3
-37 3 -77 13 -82 21 -77 20 -77 15z"/>
<path d="M9436 6856 c3 -9 13 -16 22 -16 8 0 13 1 11 3 -2 1 -12 9 -22 16 -15
12 -17 12 -11 -3z"/>
<path d="M9483 6854 c0 -16 13 -19 21 -5 3 5 0 11 -7 14 -8 3 -14 -1 -14 -9z"/>
<path d="M9830 6861 c-36 -4 -50 -9 -42 -15 17 -10 192 3 192 15 0 10 -60 9
-150 0z"/>
<path d="M2342 6840 c0 -14 2 -19 5 -12 2 6 2 18 0 25 -3 6 -5 1 -5 -13z"/>
<path d="M9520 6850 c0 -5 7 -10 15 -10 8 0 15 5 15 10 0 6 -7 10 -15 10 -8 0
-15 -4 -15 -10z"/>
<path d="M5386 6835 c-14 -14 -15 -61 -9 -393 4 -287 9 -380 18 -391 10 -10
26 -12 71 -5 93 14 89 -17 69 514 -3 63 -5 147 -5 187 0 52 -4 76 -16 87 -21
21 -107 21 -128 1z m124 -16 c4 -6 11 -173 15 -372 7 -341 6 -361 -11 -374
-23 -17 -111 -17 -117 0 -2 6 -2 77 1 157 2 80 -1 236 -7 347 -6 111 -9 213
-5 227 3 14 15 27 27 29 33 7 89 -1 97 -14z"/>
<path d="M7090 6830 c-20 -12 -28 -303 -10 -326 17 -19 54 -18 71 3 21 25 20
310 -1 323 -19 12 -41 12 -60 0z m60 -164 c0 -142 -1 -154 -19 -159 -45 -11
-47 -2 -42 241 l1 72 30 0 30 0 0 -154z"/>
<path d="M10030 6830 c-12 -7 -16 -39 -18 -154 -4 -155 3 -186 41 -186 49 0
52 10 56 170 3 160 -1 180 -43 180 -11 0 -28 -5 -36 -10z m60 -164 c0 -138 -2
-154 -17 -158 -41 -11 -43 -2 -43 158 l0 154 30 0 30 0 0 -154z"/>
<path d="M2530 6815 c0 -11 -11 -15 -39 -15 -59 0 -62 -20 -4 -22 l48 -1 -50
-7 -50 -7 48 -1 47 -2 0 -205 0 -205 -47 -2 -48 -1 50 -7 50 -6 -50 -5 -50 -5
48 -2 47 -2 0 -226 0 -227 -67 6 c-38 4 -74 3 -82 -2 -9 -6 17 -12 70 -17 83
-8 84 -8 34 -15 l-50 -6 48 -1 c47 -2 47 -2 47 -37 l0 -35 81 0 81 0 -4 35 -4
35 93 0 c86 0 93 1 93 20 0 19 -7 20 -92 20 l-93 0 5 222 5 223 80 1 c114 0
116 7 5 14 l-95 6 93 2 c56 1 92 6 92 12 0 7 -32 10 -87 8 l-88 -3 -3 203 -2
202 90 0 c85 0 90 1 90 21 0 20 -5 21 -82 19 -106 -3 -108 -3 -102 15 5 13 -7
15 -75 15 -65 0 -81 -3 -81 -15z m243 -42 c-13 -2 -35 -2 -50 0 -16 2 -5 4 22
4 28 0 40 -2 28 -4z m0 -930 c-13 -2 -35 -2 -50 0 -16 2 -5 4 22 4 28 0 40 -2
28 -4z"/>
<path d="M2790 6822 c0 -5 7 -9 15 -9 8 0 12 4 9 9 -3 4 -9 8 -15 8 -5 0 -9
-4 -9 -8z"/>
<path d="M9880 6785 c0 -25 5 -45 10 -45 6 0 10 20 10 45 0 25 -4 45 -10 45
-5 0 -10 -20 -10 -45z"/>
<path d="M9927 6806 c-4 -10 -5 -21 -2 -24 9 -9 17 6 13 25 -3 17 -4 17 -11
-1z"/>
<path d="M2240 6780 c0 -16 7 -20 30 -20 17 0 30 5 30 10 0 6 -9 10 -20 10
-11 0 -20 5 -20 10 0 6 -4 10 -10 10 -5 0 -10 -9 -10 -20z"/>
<path d="M9440 6780 c0 -11 5 -20 10 -20 6 0 10 9 10 20 0 11 -4 20 -10 20 -5
0 -10 -9 -10 -20z"/>
<path d="M9480 6780 c0 -11 5 -20 10 -20 6 0 10 9 10 20 0 11 -4 20 -10 20 -5
0 -10 -9 -10 -20z"/>
<path d="M4550 6766 c-17 -22 -6 -56 36 -111 19 -26 74 -108 121 -183 147
-236 317 -484 340 -499 42 -27 55 4 27 60 -59 116 -474 741 -495 745 -9 2 -22
-4 -29 -12z m135 -152 c49 -78 154 -240 231 -360 156 -242 168 -263 159 -272
-14 -15 -47 26 -170 212 -343 520 -374 573 -329 564 11 -2 55 -61 109 -144z"/>
<path d="M2808 6638 c4 -205 8 -225 10 -55 1 92 -1 167 -5 167 -5 0 -7 -51 -5
-112z"/>
<path d="M6412 6738 c-24 -24 -18 -46 145 -543 79 -241 87 -257 116 -253 13 2
23 11 25 23 5 35 -221 747 -245 771 -18 17 -25 18 -41 2z m43 -40 c12 -29 128
-392 201 -630 24 -82 27 -127 5 -114 -9 6 -60 159 -201 593 -29 89 -49 166
-45 172 11 19 25 12 40 -21z"/>
<path d="M534 6420 c0 -179 2 -252 3 -162 2 89 2 235 0 325 -1 89 -3 16 -3
-163z"/>
<path d="M6980 6714 c0 -14 4 -23 10 -19 6 3 10 15 10 26 0 10 -4 19 -10 19
-5 0 -10 -12 -10 -26z"/>
<path d="M8090 6718 c-12 -13 -38 -54 -57 -93 -20 -38 -75 -135 -123 -215
-154 -257 -262 -458 -258 -482 6 -41 39 -28 79 32 43 63 192 318 334 569 78
137 96 177 88 190 -16 25 -39 25 -63 -1z m50 -15 c0 -9 -31 -68 -69 -132 -37
-64 -128 -219 -201 -346 -171 -297 -168 -291 -185 -305 -64 -53 38 154 245
495 36 61 86 146 110 190 23 44 52 90 63 102 21 24 37 22 37 -4z"/>
<path d="M9973 6660 c0 -47 2 -66 4 -42 2 23 2 61 0 85 -2 23 -4 4 -4 -43z"/>
<path d="M9382 6700 c0 -14 2 -19 5 -12 2 6 2 18 0 25 -3 6 -5 1 -5 -13z"/>
<path d="M9420 6698 c0 -19 2 -20 10 -8 13 19 13 30 0 30 -5 0 -10 -10 -10
-22z"/>
<path d="M6980 6673 c0 -4 5 -15 10 -23 8 -13 10 -13 10 2 0 9 -4 20 -10 23
-5 3 -10 3 -10 -2z"/>
<path d="M367 6649 c4 -13 8 -18 11 -10 2 7 -1 18 -6 23 -8 8 -9 4 -5 -13z"/>
<path d="M2834 6540 c0 -69 1 -97 3 -62 2 34 2 90 0 125 -2 34 -3 6 -3 -63z"/>
<path d="M2854 6540 c0 -69 1 -97 3 -62 2 34 2 90 0 125 -2 34 -3 6 -3 -63z"/>
<path d="M8950 6640 c0 -6 76 -10 209 -10 129 0 212 4 216 10 4 7 -68 10 -209
10 -137 0 -216 -4 -216 -10z"/>
<path d="M9414 6630 c2 -16 20 -14 24 2 3 10 2 10 -6 -1 -7 -9 -11 -10 -15 -2
-4 7 -5 8 -3 1z"/>
<path d="M2341 6614 c0 -11 3 -14 6 -6 3 7 2 16 -1 19 -3 4 -6 -2 -5 -13z"/>
<path d="M9380 6621 c0 -5 7 -12 16 -15 14 -5 15 -4 4 9 -14 17 -20 19 -20 6z"/>
<path d="M8955 6580 c4 -6 87 -10 216 -10 133 0 209 4 209 10 0 6 -79 10 -216
10 -141 0 -213 -3 -209 -10z"/>
<path d="M9397 6579 c7 -7 15 -10 18 -7 3 3 -2 9 -12 12 -14 6 -15 5 -6 -5z"/>
<path d="M2240 6529 c0 -11 5 -17 10 -14 6 3 10 13 10 21 0 8 -4 14 -10 14 -5
0 -10 -9 -10 -21z"/>
<path d="M361 6514 c0 -11 3 -14 6 -6 3 7 2 16 -1 19 -3 4 -6 -2 -5 -13z"/>
<path d="M9383 6465 c0 -27 2 -38 4 -22 2 15 2 37 0 50 -2 12 -4 0 -4 -28z"/>
<path d="M372 6440 c0 -14 2 -19 5 -12 2 6 2 18 0 25 -3 6 -5 1 -5 -13z"/>
<path d="M2375 6450 c3 -5 19 -10 36 -10 16 0 29 5 29 10 0 6 -16 10 -36 10
-21 0 -33 -4 -29 -10z"/>
<path d="M2251 6434 c0 -11 3 -14 6 -6 3 7 2 16 -1 19 -3 4 -6 -2 -5 -13z"/>
<path d="M2380 6420 c0 -5 14 -10 30 -10 17 0 30 5 30 10 0 6 -13 10 -30 10
-16 0 -30 -4 -30 -10z"/>
<path d="M494 6180 c0 -135 2 -190 3 -122 2 67 2 177 0 245 -1 67 -3 12 -3
-123z"/>
<path d="M9402 6253 c-1 -95 1 -173 6 -173 4 0 6 60 4 132 -4 211 -8 227 -10
41z"/>
<path d="M9881 6388 c0 -18 4 -51 8 -73 8 -36 9 -33 10 33 1 42 -3 72 -9 72
-5 0 -10 -15 -9 -32z"/>
<path d="M2810 6389 c0 -5 5 -7 10 -4 6 3 10 8 10 11 0 2 -4 4 -10 4 -5 0 -10
-5 -10 -11z"/>
<path d="M2847 6393 c-4 -3 -7 -11 -7 -17 0 -6 5 -5 12 2 6 6 9 14 7 17 -3 3
-9 2 -12 -2z"/>
<path d="M9822 6380 c0 -14 2 -19 5 -12 2 6 2 18 0 25 -3 6 -5 1 -5 -13z"/>
<path d="M9933 6300 c0 -25 2 -35 4 -22 2 12 2 32 0 45 -2 12 -4 2 -4 -23z"/>
<path d="M6982 6285 c0 -16 2 -22 5 -12 2 9 2 23 0 30 -3 6 -5 -1 -5 -18z"/>
<path d="M2841 6293 c4 -22 -3 -32 -16 -27 -12 5 -15 -21 -17 -165 -2 -94 0
-171 5 -171 4 0 8 75 9 168 l2 167 6 -165 6 -165 4 165 4 165 6 -165 6 -165 1
183 c1 105 -2 182 -8 182 -5 0 -8 -3 -8 -7z"/>
<path d="M7002 6183 c-1 -48 -6 -83 -12 -83 -5 0 -10 -18 -10 -40 0 -22 4 -40
9 -40 11 0 24 149 19 205 -3 22 -5 3 -6 -42z"/>
<path d="M6869 6145 c-4 -44 -5 -82 -3 -84 11 -12 15 14 12 85 l-3 79 -6 -80z"/>
<path d="M9934 6133 c1 -24 -1 -44 -4 -46 -3 -2 0 -3 6 -1 6 1 12 -8 13 -22 3
-47 4 -54 13 -54 4 0 8 -5 8 -11 0 -5 -4 -7 -10 -4 -5 3 -10 1 -10 -5 0 -24
25 -2 25 23 1 14 -3 23 -7 21 -4 -3 -9 3 -9 13 -2 25 -4 36 -12 53 -3 8 -8 29
-10 45 -3 17 -4 12 -3 -12z"/>
<path d="M9884 6151 c4 -5 2 -21 -3 -35 -8 -20 -7 -24 4 -19 17 6 21 63 4 63
-5 0 -8 -4 -5 -9z"/>
<path d="M513 6020 c0 -47 2 -66 4 -42 2 23 2 61 0 85 -2 23 -4 4 -4 -43z"/>
<path d="M9480 6070 c0 -16 5 -30 10 -30 6 0 10 14 10 30 0 17 -4 30 -10 30
-5 0 -10 -13 -10 -30z"/>
<path d="M9846 6091 c-4 -6 -2 -11 4 -11 6 0 3 -11 -8 -25 -19 -24 -20 -59 -1
-71 5 -3 9 -11 9 -17 -1 -7 -10 -1 -21 12 -11 13 -22 21 -25 18 -8 -7 14 -30
42 -45 14 -7 25 -7 35 0 11 8 11 9 -3 4 -10 -3 -18 -1 -18 4 0 9 24 13 65 13
11 0 17 41 10 74 -5 20 -39 40 -59 34 -5 -1 -12 3 -16 10 -6 8 -9 8 -14 0z
m69 -66 c0 -27 -3 -30 -30 -30 -24 0 -31 5 -33 24 -4 27 13 42 43 39 15 -2 20
-11 20 -33z"/>
<path d="M9873 6043 c-7 -3 -13 -9 -13 -15 0 -6 7 -8 15 -4 8 3 15 0 15 -7 0
-12 20 11 20 24 0 7 -20 7 -37 2z"/>
<path d="M9807 6063 c-4 -3 -7 -11 -7 -17 0 -6 5 -5 12 2 6 6 9 14 7 17 -3 3
-9 2 -12 -2z"/>
<path d="M6843 6020 c0 -25 2 -35 4 -22 2 12 2 32 0 45 -2 12 -4 2 -4 -23z"/>
<path d="M2220 6030 c0 -5 5 -10 10 -10 6 0 10 5 10 10 0 6 -4 10 -10 10 -5 0
-10 -4 -10 -10z"/>
<path d="M9380 6030 c0 -5 4 -10 9 -10 5 0 16 -3 25 -6 11 -4 16 -1 16 10 0
10 -9 16 -25 16 -14 0 -25 -4 -25 -10z"/>
<path d="M9388 6003 c7 -3 16 -2 19 1 4 3 -2 6 -13 5 -11 0 -14 -3 -6 -6z"/>
<path d="M366 5984 c-11 -8 -16 -14 -10 -14 13 0 39 18 34 24 -3 2 -14 -2 -24
-10z"/>
<path d="M9418 5993 c-27 -2 -48 -9 -48 -15 0 -7 20 -9 61 -4 34 3 82 6 105 6
24 0 44 5 44 10 0 10 -61 11 -162 3z"/>
<path d="M6860 5960 c0 -22 15 -27 23 -7 4 10 6 10 6 0 1 -7 6 -13 13 -13 6 0
3 9 -7 20 -10 11 -22 20 -27 20 -4 0 -8 -9 -8 -20z"/>
<path d="M397 5959 c7 -7 15 -10 18 -7 3 3 -2 9 -12 12 -14 6 -15 5 -6 -5z"/>
<path d="M9937 5956 c-17 -13 -16 -14 6 -12 15 0 23 6 20 14 -6 14 -4 15 -26
-2z"/>
<path d="M350 5950 c0 -5 7 -7 15 -4 8 4 15 8 15 10 0 2 -7 4 -15 4 -8 0 -15
-4 -15 -10z"/>
<path d="M450 5950 c-12 -7 -10 -9 8 -7 12 0 22 5 22 9 0 11 -12 10 -30 -2z"/>
<path d="M9380 5951 c0 -6 5 -12 10 -12 20 -3 25 -4 37 -12 9 -6 11 -3 7 7 -3
9 -10 16 -14 16 -5 0 -15 3 -24 6 -9 3 -16 1 -16 -5z"/>
<path d="M2350 5940 c-9 -6 -10 -10 -3 -10 6 0 15 5 18 10 8 12 4 12 -15 0z"/>
<path d="M6840 5930 c0 -5 5 -10 10 -10 6 0 10 5 10 10 0 6 -4 10 -10 10 -5 0
-10 -4 -10 -10z"/>
<path d="M9920 5921 c0 -5 5 -13 10 -16 6 -3 10 -2 10 4 0 5 -4 13 -10 16 -5
3 -10 2 -10 -4z"/>
<path d="M2345 5910 c-3 -6 1 -7 9 -4 18 7 21 14 7 14 -6 0 -13 -4 -16 -10z"/>
<path d="M9956 5912 c-3 -5 1 -9 9 -9 8 0 15 4 15 9 0 4 -4 8 -9 8 -6 0 -12
-4 -15 -8z"/>
<path d="M2290 5889 c0 -6 9 -9 20 -6 13 3 21 -1 25 -14 4 -11 11 -16 17 -13
6 4 5 10 -3 15 -12 7 -11 9 1 10 10 0 8 3 -5 9 -29 12 -55 12 -55 -1z"/>
<path d="M2388 5893 c12 -2 30 -2 40 0 9 3 -1 5 -23 4 -22 0 -30 -2 -17 -4z"/>
<path d="M7105 5890 l-70 -6 78 -2 c46 -1 77 2 77 8 0 6 -3 9 -7 8 -5 -1 -39
-4 -78 -8z"/>
<path d="M9052 5893 c59 -2 158 -2 220 0 62 1 14 3 -107 3 -121 0 -172 -2
-113 -3z"/>
<path d="M10043 5893 c-40 -2 -73 -8 -73 -13 0 -6 -9 -6 -23 -1 -20 8 -23 6
-23 -14 0 -13 4 -21 8 -19 5 3 6 10 3 15 -4 5 1 9 10 9 9 0 14 -4 11 -8 -3 -5
1 -9 9 -9 8 0 13 5 12 11 -2 12 4 13 88 15 36 0 65 5 65 11 0 6 -3 9 -7 8 -5
-1 -41 -4 -80 -5z"/>
<path d="M6841 5872 c-1 -12 6 -25 14 -29 22 -8 29 2 15 24 -10 16 -11 16 -6
1 8 -26 -3 -22 -14 5 l-9 22 0 -23z"/>
<path d="M9380 5868 c0 -11 22 -10 39 1 10 7 7 9 -12 8 -15 -1 -27 -5 -27 -9z"/>
<path d="M7065 5840 c-29 -7 -28 -8 10 -8 22 -1 58 3 80 7 l40 9 -50 0 c-27 0
-63 -4 -80 -8z"/>
<path d="M9052 5843 c59 -2 158 -2 220 0 62 1 14 3 -107 3 -121 0 -172 -2
-113 -3z"/>
<path d="M10000 5840 c-35 -7 -35 -7 10 -8 25 -1 63 3 85 7 l40 9 -50 0 c-27
-1 -66 -4 -85 -8z"/>
<path d="M9398 5833 c-16 -2 -28 -7 -28 -11 0 -10 193 -2 205 9 9 9 -121 10
-177 2z"/>
<path d="M9923 5815 c0 -8 4 -15 9 -15 4 0 8 4 8 9 0 6 -4 12 -8 15 -5 3 -9
-1 -9 -9z"/>
<path d="M2845 5810 c3 -5 8 -10 11 -10 2 0 4 5 4 10 0 6 -5 10 -11 10 -5 0
-7 -4 -4 -10z"/>
<path d="M2334 5800 c-5 -4 -18 -10 -29 -13 -17 -4 -16 -5 5 -7 15 -2 4 -6
-25 -10 l-50 -7 54 -1 c45 -2 52 0 47 14 -5 13 -2 15 14 11 11 -3 20 -2 20 3
0 12 -26 20 -36 10z"/>
<path d="M2212 5779 c-14 -22 -7 -25 14 -5 8 8 11 17 6 20 -4 2 -13 -4 -20
-15z"/>
<path d="M6840 5790 c0 -5 7 -10 15 -10 8 0 15 5 15 10 0 6 -7 10 -15 10 -8 0
-15 -4 -15 -10z"/>
<path d="M9480 5790 c0 -5 5 -10 11 -10 5 0 7 5 4 10 -3 6 -8 10 -11 10 -2 0
-4 -4 -4 -10z"/>
<path d="M360 5770 c0 -5 5 -10 10 -10 6 0 10 5 10 10 0 6 -4 10 -10 10 -5 0
-10 -4 -10 -10z"/>
<path d="M407 5768 c-7 -4 17 -8 52 -8 35 0 61 3 58 7 -10 9 -96 10 -110 1z"/>
<path d="M9808 5768 c-8 -4 4 -8 30 -8 23 0 42 2 42 4 0 8 -60 12 -72 4z"/>
<path d="M6903 5763 c26 -2 68 -2 95 0 26 2 4 3 -48 3 -52 0 -74 -1 -47 -3z"/>
<path d="M9468 5763 c6 -2 18 -2 25 0 6 3 1 5 -13 5 -14 0 -19 -2 -12 -5z"/>
<path d="M420 4460 c-20 -20 -21 -26 -14 -893 4 -574 9 -876 16 -884 23 -29
117 -2 139 39 14 24 14 303 0 1259 -6 430 -7 458 -25 478 -26 28 -88 29 -116
1z m99 -9 c17 -17 19 -41 25 -212 13 -426 18 -1454 7 -1495 -9 -35 -15 -41
-56 -53 -36 -10 -49 -11 -58 -2 -9 9 -14 228 -19 854 -3 463 -4 857 -1 875 8
50 66 69 102 33z"/>
<path d="M10 4413 c0 -807 0 -1656 0 -1715 l0 -78 154 0 154 0 4 68 c2 53 2
1259 -1 1564 -1 61 -3 67 -23 71 -19 4 -18 5 6 6 24 1 27 4 22 24 -3 12 -6 43
-6 70 l0 47 -155 0 -155 0 0 -57z m193 -90 c-7 -2 -21 -2 -30 0 -10 3 -4 5 12
5 17 0 24 -2 18 -5z m-101 -163 c-2 -16 -8 -27 -13 -24 -5 3 -8 8 -6 12 2 4 7
15 10 25 10 26 14 20 9 -13z m37 -32 c1 -5 -3 -8 -9 -8 -5 0 -10 12 -9 28 0
24 1 25 9 7 5 -11 9 -23 9 -27z m-29 -28 c9 -16 8 -18 -5 -14 -8 4 -15 12 -15
20 0 20 7 17 20 -6z m-43 -337 c-3 -10 -5 -4 -5 12 0 17 2 24 5 18 2 -7 2 -21
0 -30z m30 -20 c-3 -10 -5 -4 -5 12 0 17 2 24 5 18 2 -7 2 -21 0 -30z m160
-585 c-2 -13 -4 -3 -4 22 0 25 2 35 4 23 2 -13 2 -33 0 -45z"/>
<path d="M8060 4391 c0 -5 6 -12 13 -14 10 -4 10 -6 0 -6 -10 -1 -13 -183 -13
-876 l0 -875 278 2 c152 1 244 4 204 5 l-73 4 2 122 c1 67 1 465 0 885 l-1
762 -205 0 c-118 0 -205 -4 -205 -9z m307 -1073 c-2 -13 -4 -5 -4 17 -1 22 1
32 4 23 2 -10 2 -28 0 -40z"/>
<path d="M9904 4387 c-2 -7 -3 -406 -2 -887 l3 -875 206 -3 206 -2 -5 25 c-4
24 -2 25 44 27 27 0 54 2 59 3 6 2 29 3 53 4 23 0 42 6 42 11 0 7 -33 8 -95 4
-54 -4 -95 -3 -96 2 -7 84 -8 123 -1 128 4 2 44 6 89 7 44 2 89 6 99 9 35 13
-3 17 -95 11 -100 -7 -117 1 -93 40 9 13 12 131 12 412 0 217 3 396 6 399 3 3
14 4 25 1 18 -5 19 -16 21 -167 l2 -161 4 150 c3 174 0 196 -28 192 -11 -2
-25 -8 -30 -13 -6 -6 -11 -165 -13 -404 -1 -234 -3 -110 -4 305 -2 385 -3 721
-3 748 l0 47 -200 0 c-153 0 -202 -3 -206 -13z m209 -74 c-7 -2 -19 -2 -25 0
-7 3 -2 5 12 5 14 0 19 -2 13 -5z m124 1 c-3 -3 -12 -4 -19 -1 -8 3 -5 6 6 6
11 1 17 -2 13 -5z m-12 -244 c3 -6 -1 -7 -9 -4 -18 7 -21 14 -7 14 6 0 13 -4
16 -10z m-208 -282 c-2 -18 -4 -6 -4 27 0 33 2 48 4 33 2 -15 2 -42 0 -60z
m-30 -50 c-2 -24 -4 -7 -4 37 0 44 2 63 4 43 2 -21 2 -57 0 -80z m246 -1055
c-7 -2 -19 -2 -25 0 -7 3 -2 5 12 5 14 0 19 -2 13 -5z"/>
<path d="M1735 4280 l-60 -7 65 -1 c36 -1 72 3 80 8 17 11 15 11 -85 0z"/>
<path d="M1738 4223 c-32 -2 -58 -8 -58 -13 0 -11 117 -2 140 11 12 7 11 8 -5
7 -11 -1 -46 -3 -77 -5z"/>
<path d="M8583 4093 c15 -2 37 -2 50 0 12 2 0 4 -28 4 -27 0 -38 -2 -22 -4z"/>
<path d="M10408 4093 c12 -2 30 -2 40 0 9 3 -1 5 -23 4 -22 0 -30 -2 -17 -4z"/>
<path d="M1170 4073 c30 -3 57 -9 61 -14 4 -7 9 -4 12 5 6 14 -3 16 -61 14
-67 -2 -67 -2 -12 -5z"/>
<path d="M1729 4063 c-11 -13 -15 -118 -17 -568 -3 -542 -2 -552 18 -576 l20
-24 25 28 25 28 0 553 c0 416 -3 555 -12 564 -17 17 -43 15 -59 -5z m49 -5
c16 -16 17 -1044 1 -1100 -12 -45 -35 -50 -50 -10 -12 32 -8 1077 5 1105 9 20
27 22 44 5z"/>
<path d="M7717 3577 c-70 -276 -150 -593 -179 -704 -28 -112 -50 -205 -47
-207 7 -7 157 -46 177 -46 16 0 25 23 55 148 20 81 82 325 137 542 174 681
182 712 173 720 -7 6 -170 51 -183 50 -3 0 -62 -226 -133 -503z"/>
<path d="M9241 4043 c-5 -21 -64 -254 -131 -518 -114 -452 -205 -810 -216
-846 -4 -13 12 -21 80 -38 47 -11 92 -21 100 -21 9 0 19 16 26 43 6 23 16 56
21 72 5 17 27 102 48 190 37 152 157 624 241 950 22 82 36 153 32 156 -6 5
-172 49 -186 49 -3 0 -10 -17 -15 -37z"/>
<path d="M10331 4058 c0 -13 -2 -43 -4 -68 -2 -25 -2 -28 0 -7 3 24 9 37 19
37 9 0 14 11 14 30 0 35 -27 42 -29 8z"/>
<path d="M10380 4070 c0 -5 5 -10 10 -10 6 0 10 5 10 10 0 6 -4 10 -10 10 -5
0 -10 -4 -10 -10z"/>
<path d="M1100 4040 c0 -13 7 -20 20 -20 24 0 25 6 6 26 -20 19 -26 18 -26 -6z"/>
<path d="M1200 4030 c0 -5 5 -10 10 -10 6 0 10 5 10 10 0 6 -4 10 -10 10 -5 0
-10 -4 -10 -10z"/>
<path d="M1234 3950 c0 -52 1 -74 3 -47 2 26 2 68 0 95 -2 26 -3 4 -3 -48z"/>
<path d="M10460 4030 c0 -5 5 -10 10 -10 6 0 10 5 10 10 0 6 -4 10 -10 10 -5
0 -10 -4 -10 -10z"/>
<path d="M8578 4023 c12 -2 32 -2 45 0 12 2 2 4 -23 4 -25 0 -35 -2 -22 -4z"/>
<path d="M10382 3943 c-2 -84 4 -98 25 -64 10 15 10 21 0 25 -9 5 -9 7 1 12
17 8 15 24 -2 24 -10 0 -16 14 -19 43 -2 23 -4 5 -5 -40z"/>
<path d="M1920 3914 c-41 -24 -76 -49 -78 -54 -2 -6 5 -25 16 -42 11 -18 31
-53 44 -78 14 -25 36 -64 49 -86 13 -23 152 -265 308 -538 275 -480 286 -496
314 -496 30 0 157 64 157 79 0 11 -24 55 -204 367 -82 142 -203 354 -269 469
-66 116 -132 230 -146 255 -14 25 -42 73 -61 108 -19 34 -39 62 -45 61 -5 0
-44 -20 -85 -45z"/>
<path d="M8517 3922 c3 -7 0 -12 -7 -10 -7 2 -14 -3 -15 -10 -2 -7 -1 -8 2 -2
2 5 8 8 13 5 4 -2 15 3 23 13 15 16 15 18 -2 18 -11 0 -17 -5 -14 -14z"/>
<path d="M8559 3923 c-13 -16 -12 -17 4 -4 9 7 17 15 17 17 0 8 -8 3 -21 -13z"/>
<path d="M8616 3931 c-4 -5 -2 -12 3 -15 5 -4 12 -2 15 3 4 5 2 12 -3 15 -5 4
-12 2 -15 -3z"/>
<path d="M2202 3900 c-32 -20 -41 -43 -21 -56 6 -3 23 -32 38 -63 14 -31 43
-84 64 -118 42 -69 69 -80 101 -44 17 19 16 25 -50 151 -38 73 -76 136 -85
140 -10 6 -26 2 -47 -10z m71 -53 c15 -28 47 -87 70 -130 40 -76 41 -79 22
-93 -10 -8 -22 -14 -26 -14 -9 0 -58 81 -115 188 -38 72 -38 74 -20 88 31 22
39 17 69 -39z"/>
<path d="M8546 3878 c-14 -20 -16 -86 -16 -518 0 -432 2 -498 16 -518 18 -26
33 -28 60 -6 10 8 15 13 9 11 -7 -3 -9 169 -7 510 2 379 0 519 -9 529 -17 20
-36 17 -53 -8z m39 -516 c0 -280 -3 -514 -7 -518 -5 -4 -11 -4 -15 0 -9 9 -16
955 -8 1004 4 20 11 32 18 29 9 -3 12 -128 12 -515z"/>
<path d="M8572 3840 c0 -14 2 -19 5 -12 2 6 2 18 0 25 -3 6 -5 1 -5 -13z"/>
<path d="M8570 3458 c-3 -48 -1 -83 3 -79 4 4 7 43 5 87 l-3 79 -5 -87z"/>
<path d="M8572 3330 c0 -19 2 -27 5 -17 2 9 2 25 0 35 -3 9 -5 1 -5 -18z"/>
<path d="M8566 3198 c-8 -30 -6 -125 4 -163 5 -19 7 9 8 78 0 59 -1 107 -3
107 -1 0 -5 -10 -9 -22z"/>
<path d="M8565 2901 c-3 -5 -2 -12 3 -15 5 -3 9 1 9 9 0 17 -3 19 -12 6z"/>
<path d="M8756 3878 c-14 -20 -16 -86 -16 -519 0 -476 1 -498 19 -520 19 -23
21 -23 37 -7 16 16 18 56 18 533 1 448 -1 517 -14 525 -22 14 -27 12 -44 -12z
m39 -516 c0 -280 -3 -514 -8 -518 -25 -25 -28 33 -28 515 0 276 3 506 6 512 4
5 12 8 18 6 9 -3 12 -136 12 -515z"/>
<path d="M1351 3867 c-11 -14 -17 -395 -13 -839 2 -161 5 -199 17 -212 21 -21
42 -10 50 25 4 16 7 249 7 519 0 501 -1 520 -37 520 -7 0 -18 -6 -24 -13z m43
-24 c10 -26 -4 -1007 -14 -1017 -6 -5 -13 -6 -17 -2 -8 8 -14 961 -6 1009 5
30 27 36 37 10z"/>
<path d="M1576 3861 c-3 -5 6 -8 20 -8 19 0 22 2 13 8 -18 11 -26 11 -33 0z"/>
<path d="M1125 3850 c-3 -5 1 -10 9 -10 9 0 16 5 16 10 0 6 -4 10 -9 10 -6 0
-13 -4 -16 -10z"/>
<path d="M1205 3850 c-4 -6 -3 -10 2 -9 21 4 34 -2 27 -13 -5 -7 -3 -8 6 -3
10 6 12 4 7 -8 -9 -24 0 -21 13 3 6 11 7 19 3 18 -4 -1 -18 3 -30 10 -15 8
-24 9 -28 2z"/>
<path d="M10336 3852 c-3 -5 1 -9 9 -9 8 0 15 4 15 9 0 4 -4 8 -9 8 -6 0 -12
-4 -15 -8z"/>
<path d="M10378 3840 c-14 -10 -28 -17 -31 -14 -3 3 -1 -12 3 -32 13 -55 52
-79 90 -55 8 6 18 7 23 4 5 -3 3 -9 -4 -14 -11 -7 -11 -9 2 -9 11 0 16 -12 18
-47 1 -26 5 -50 8 -53 3 -3 4 16 2 43 -3 27 0 47 6 47 5 0 3 5 -5 10 -10 7
-11 13 -5 18 12 8 13 27 3 38 -5 4 -8 -3 -8 -16 0 -17 -3 -21 -11 -13 -7 7 -8
17 -1 29 12 24 -1 59 -27 73 -27 15 -35 14 -63 -9z m67 -44 c0 -52 -63 -62
-73 -12 -7 31 6 44 40 43 29 -2 33 -5 33 -31z"/>
<path d="M10385 3803 c-9 -24 3 -29 19 -8 13 18 14 18 24 -1 6 -10 12 -14 12
-7 0 26 -46 39 -55 16z"/>
<path d="M10474 3848 c-5 -7 -3 -8 6 -3 10 6 12 4 7 -9 -4 -10 -3 -15 3 -11
13 8 13 35 1 35 -6 0 -13 -5 -17 -12z"/>
<path d="M9495 3840 c-4 -6 -8 -23 -11 -38 -2 -15 -11 -45 -19 -67 -8 -22 -22
-74 -30 -115 -15 -70 -15 -75 2 -88 10 -7 29 -12 43 -10 28 3 32 13 81 193 28
103 29 110 13 122 -21 15 -70 17 -79 3z m64 -9 c12 -8 8 -31 -24 -144 -21 -75
-41 -141 -45 -147 -4 -7 -16 -9 -29 -5 -31 10 -29 25 28 230 11 39 20 71 20
73 2 6 37 1 50 -7z"/>
<path d="M1131 3814 c-30 -25 -30 -27 -17 -59 13 -30 13 -34 -2 -37 -13 -3
-12 -5 6 -10 12 -3 20 -2 16 3 -6 11 -6 11 34 0 18 -6 30 -6 27 -1 -3 4 1 10
9 13 8 3 21 19 29 36 9 17 11 29 6 26 -5 -4 -9 1 -9 9 0 16 -37 46 -56 46 -7
0 -26 -12 -43 -26z m69 -9 c6 -8 10 -20 7 -27 -3 -8 -6 -6 -6 5 -1 10 -5 16
-10 12 -17 -10 -9 -43 9 -37 13 5 13 4 1 -12 -21 -25 -54 -16 -66 17 -8 24 -6
31 10 43 24 18 39 18 55 -1z"/>
<path d="M1140 3766 c0 -2 7 -9 15 -16 9 -7 15 -8 15 -2 0 5 -7 12 -15 16 -8
3 -15 4 -15 2z"/>
<path d="M1495 3830 c-27 -12 -15 -13 85 -10 47 1 89 6 95 11 12 12 -153 11
-180 -1z"/>
<path d="M10515 3820 c-4 -6 12 -10 39 -10 25 0 46 5 46 10 0 6 -18 10 -39 10
-22 0 -43 -4 -46 -10z"/>
<path d="M1565 3795 l-40 -13 41 -1 c29 -1 44 4 48 14 6 18 4 18 -49 0z"/>
<path d="M10515 3790 c-4 -6 12 -10 39 -10 25 0 46 5 46 10 0 6 -18 10 -39 10
-22 0 -43 -4 -46 -10z"/>
<path d="M8511 3764 c0 -11 3 -14 6 -6 3 7 2 16 -1 19 -3 4 -6 -2 -5 -13z"/>
<path d="M10323 3760 c1 -12 9 -26 19 -31 23 -13 23 -3 -1 28 -19 23 -20 23
-18 3z"/>
<path d="M1237 3750 c-6 -24 10 -37 26 -21 9 9 7 10 -8 5 -17 -7 -18 -6 -7 8
8 9 9 19 4 22 -6 3 -12 -3 -15 -14z"/>
<path d="M1593 3753 c-15 -5 -18 -33 -4 -33 6 0 13 5 16 10 3 6 17 10 30 10
13 0 27 4 30 10 6 9 -47 11 -72 3z"/>
<path d="M1528 3743 c6 -2 18 -2 25 0 6 3 1 5 -13 5 -14 0 -19 -2 -12 -5z"/>
<path d="M10406 3708 c3 -4 11 -5 19 -1 21 7 19 12 -4 10 -11 0 -18 -5 -15 -9z"/>
<path d="M1235 3697 c-3 -6 -4 -163 -3 -347 l3 -335 5 348 c3 191 4 347 2 347
-1 0 -5 -6 -7 -13z"/>
<path d="M1570 3703 c-99 -5 -118 -23 -23 -23 80 0 133 8 133 21 0 5 -8 8 -17
7 -10 -1 -52 -4 -93 -5z"/>
<path d="M8491 3684 c0 -11 3 -14 6 -6 3 7 2 16 -1 19 -3 4 -6 -2 -5 -13z"/>
<path d="M1555 3656 l-50 -11 75 -1 c41 0 62 2 46 4 -22 3 -26 6 -15 13 18 11
7 10 -56 -5z"/>
<path d="M8512 3610 c0 -14 2 -19 5 -12 2 6 2 18 0 25 -3 6 -5 1 -5 -13z"/>
<path d="M1081 3604 c0 -11 3 -14 6 -6 3 7 2 16 -1 19 -3 4 -6 -2 -5 -13z"/>
<path d="M1510 3600 c0 -11 7 -20 15 -20 8 0 15 9 15 20 0 11 -7 20 -15 20 -8
0 -15 -9 -15 -20z"/>
<path d="M1600 3581 c0 -11 -6 -21 -12 -24 -8 -2 -9 -8 -4 -13 5 -5 11 -4 13
4 3 6 13 12 24 12 23 0 24 6 5 26 -20 19 -26 18 -26 -5z"/>
<path d="M8493 3510 c0 -25 2 -35 4 -22 2 12 2 32 0 45 -2 12 -4 2 -4 -23z"/>
<path d="M1095 3529 c-4 -6 -4 -13 -1 -16 3 -4 6 -1 6 6 0 7 5 9 12 5 7 -4 8
-3 4 4 -9 15 -13 15 -21 1z"/>
<path d="M10400 3460 c0 -47 4 -80 10 -80 6 0 10 33 10 80 0 47 -4 80 -10 80
-6 0 -10 -33 -10 -80z"/>
<path d="M700 3480 c-33 -4 28 -7 157 -8 116 -1 220 -5 230 -8 16 -6 16 -5 -2
9 -17 14 -46 16 -175 15 -85 -1 -180 -4 -210 -8z"/>
<path d="M1104 3429 c-3 -6 -2 -15 3 -20 5 -5 9 -1 9 11 0 23 -2 24 -12 9z"/>
<path d="M685 3420 c-23 -4 55 -8 178 -9 143 -1 216 2 212 9 -7 11 -326 11
-390 0z"/>
<path d="M10382 3340 c0 -14 2 -19 5 -12 2 6 2 18 0 25 -3 6 -5 1 -5 -13z"/>
<path d="M10483 3325 c0 -14 3 -28 7 -30 5 -3 7 6 5 20 -3 35 -12 42 -12 10z"/>
<path d="M8512 3320 c0 -14 2 -19 5 -12 2 6 2 18 0 25 -3 6 -5 1 -5 -13z"/>
<path d="M10400 3310 c0 -16 5 -30 10 -30 6 0 10 14 10 30 0 17 -4 30 -10 30
-5 0 -10 -13 -10 -30z"/>
<path d="M10533 3303 c15 -2 37 -2 50 0 12 2 0 4 -28 4 -27 0 -38 -2 -22 -4z"/>
<path d="M1084 3090 c0 -118 2 -167 3 -107 2 59 2 155 0 215 -1 59 -3 10 -3
-108z"/>
<path d="M10484 3239 c0 -21 1 -37 4 -34 8 8 12 64 4 69 -4 2 -7 -13 -8 -35z"/>
<path d="M10533 3273 c15 -2 37 -2 50 0 12 2 0 4 -28 4 -27 0 -38 -2 -22 -4z"/>
<path d="M10384 3080 c0 -102 2 -143 3 -92 2 50 2 134 0 185 -1 50 -3 9 -3
-93z"/>
<path d="M8513 3140 c0 -47 2 -66 4 -42 2 23 2 61 0 85 -2 23 -4 4 -4 -43z"/>
<path d="M1531 3194 c0 -11 3 -14 6 -6 3 7 2 16 -1 19 -3 4 -6 -2 -5 -13z"/>
<path d="M8622 3160 c0 -14 2 -19 5 -12 2 6 2 18 0 25 -3 6 -5 1 -5 -13z"/>
<path d="M8623 3095 c0 -22 2 -30 4 -17 2 12 2 30 0 40 -3 9 -5 -1 -4 -23z"/>
<path d="M10400 2980 c0 -47 4 -80 10 -80 6 0 10 33 10 80 0 47 -4 80 -10 80
-6 0 -10 -33 -10 -80z"/>
<path d="M1622 2990 c0 -14 2 -19 5 -12 2 6 2 18 0 25 -3 6 -5 1 -5 -13z"/>
<path d="M1577 2959 c4 -15 8 -17 14 -8 8 14 3 29 -11 29 -4 0 -6 -9 -3 -21z"/>
<path d="M8512 2938 c-1 -26 -7 -49 -14 -51 -10 -4 -10 -6 0 -6 18 -1 24 20
19 65 -4 38 -4 37 -5 -8z"/>
<path d="M1540 2949 c0 -5 5 -7 10 -4 6 3 10 8 10 11 0 2 -4 4 -10 4 -5 0 -10
-5 -10 -11z"/>
<path d="M1544 2895 c-15 -15 -23 -32 -20 -41 3 -9 6 -19 6 -23 0 -18 50 -31
77 -19 16 6 33 12 38 12 6 1 11 17 12 36 l1 35 -8 -35 -7 -35 -2 32 c-1 21 -9
37 -23 47 -31 22 -45 20 -74 -9z m64 -7 c19 -19 14 -46 -9 -59 -18 -9 -25 -7
-43 11 l-21 21 24 20 c27 22 33 23 49 7z"/>
<path d="M1571 2863 c12 -15 12 -16 -4 -10 -10 4 -16 3 -12 -2 3 -6 14 -9 24
-8 26 2 23 37 -2 37 -17 0 -18 -2 -6 -17z"/>
<path d="M10435 2890 c-11 -5 -17 -9 -13 -9 3 -1 13 -3 21 -6 8 -4 14 0 14 10
0 8 -1 15 -1 14 -1 0 -10 -4 -21 -9z"/>
<path d="M1158 2883 c7 -3 16 -2 19 1 4 3 -2 6 -13 5 -11 0 -14 -3 -6 -6z"/>
<path d="M1124 2867 c20 -10 25 -16 15 -20 -9 -3 -6 -6 7 -6 12 -1 24 6 28 14
4 11 -1 15 -18 15 -14 0 -33 2 -43 5 -10 3 -5 -1 11 -8z"/>
<path d="M8486 2838 c5 -42 13 -48 12 -9 -1 18 -4 34 -8 36 -4 3 -6 -10 -4
-27z"/>
<path d="M10368 2863 c12 -2 32 -2 45 0 12 2 2 4 -23 4 -25 0 -35 -2 -22 -4z"/>
<path d="M1155 2833 c-80 -5 -115 -23 -43 -23 75 0 168 12 162 21 -3 5 -15 8
-27 7 -12 -1 -53 -4 -92 -5z"/>
<path d="M1506 2804 c-9 -24 0 -29 18 -11 8 8 12 17 9 21 -11 10 -21 7 -27
-10z"/>
<path d="M8600 2786 c0 -27 -15 -35 -23 -13 -2 6 -8 9 -12 5 -4 -4 0 -14 9
-23 14 -15 18 -15 31 -1 17 17 20 42 5 51 -6 4 -10 -5 -10 -19z"/>
<path d="M1140 2790 c0 -5 4 -10 9 -10 6 0 13 5 16 10 3 6 -1 10 -9 10 -9 0
-16 -4 -16 -10z"/>
<path d="M1543 2777 c-10 -21 -9 -22 23 -19 19 2 31 8 28 13 -3 6 -15 7 -27 4
-16 -5 -18 -4 -8 3 7 6 9 12 4 15 -6 4 -15 -4 -20 -16z"/>
<path d="M8520 2790 c0 -5 5 -10 10 -10 6 0 10 5 10 10 0 6 -4 10 -10 10 -5 0
-10 -4 -10 -10z"/>
<path d="M10410 2794 c0 -10 28 -34 39 -34 6 0 11 9 11 20 0 15 -7 20 -25 20
-14 0 -25 -3 -25 -6z"/>
<path d="M1635 2780 c-3 -5 -2 -10 4 -10 5 0 13 5 16 10 3 6 2 10 -4 10 -5 0
-13 -4 -16 -10z"/>
<path d="M1091 2743 c7 -10 14 -19 15 -21 1 -1 4 6 7 18 4 15 0 20 -15 20 -18
0 -19 -2 -7 -17z"/>
<path d="M1140 2750 c0 -5 6 -10 14 -10 8 0 18 5 21 10 3 6 -3 10 -14 10 -12
0 -21 -4 -21 -10z"/>
<path d="M1635 2750 c-3 -6 1 -7 9 -4 18 7 21 14 7 14 -6 0 -13 -4 -16 -10z"/>
<path d="M10533 2753 c15 -2 37 -2 50 0 12 2 0 4 -28 4 -27 0 -38 -2 -22 -4z"/>
<path d="M1560 2736 c0 -9 5 -16 10 -16 6 0 10 4 10 9 0 6 -4 13 -10 16 -5 3
-10 -1 -10 -9z"/>
<path d="M650 2730 c0 -6 77 -10 210 -10 133 0 210 4 210 10 0 6 -77 10 -210
10 -133 0 -210 -4 -210 -10z"/>
<path d="M1510 2730 c0 -5 7 -10 15 -10 8 0 15 5 15 10 0 6 -7 10 -15 10 -8 0
-15 -4 -15 -10z"/>
<path d="M8660 2730 c0 -5 5 -10 10 -10 6 0 10 5 10 10 0 6 -4 10 -10 10 -5 0
-10 -4 -10 -10z"/>
<path d="M10335 2730 c-3 -5 1 -10 9 -10 9 0 16 5 16 10 0 6 -4 10 -9 10 -6 0
-13 -4 -16 -10z"/>
<path d="M1700 2720 c-34 -11 63 -11 105 0 25 6 20 8 -25 8 -30 0 -66 -4 -80
-8z"/>
<path d="M10477 2719 c7 -7 15 -10 18 -7 3 3 -2 9 -12 12 -14 6 -15 5 -6 -5z"/>
<path d="M10533 2723 c15 -2 37 -2 50 0 12 2 0 4 -28 4 -27 0 -38 -2 -22 -4z"/>
<path d="M1180 2710 c-15 -5 -18 -8 -8 -9 9 -1 25 -4 35 -7 13 -4 15 -3 4 4
-11 8 -11 10 0 15 21 8 -3 6 -31 -3z"/>
<path d="M10380 2710 c0 -5 5 -10 10 -10 6 0 10 5 10 10 0 6 -4 10 -10 10 -5
0 -10 -4 -10 -10z"/>
<path d="M10338 2703 c7 -3 16 -2 19 1 4 3 -2 6 -13 5 -11 0 -14 -3 -6 -6z"/>
<path d="M1100 2690 c-9 -6 -10 -10 -3 -10 6 0 15 5 18 10 8 12 4 12 -15 0z"/>
<path d="M1560 2690 c0 -5 9 -10 20 -10 11 0 20 5 20 10 0 6 -9 10 -20 10 -11
0 -20 -4 -20 -10z"/>
<path d="M655 2680 c4 -6 85 -10 210 -10 125 0 206 4 210 10 4 7 -68 10 -210
10 -142 0 -214 -3 -210 -10z"/>
<path d="M1728 2683 c-27 -2 -48 -7 -48 -11 0 -9 137 2 147 12 6 6 -8 6 -99
-1z"/>
<path d="M1128 2673 c-33 -2 -58 -9 -58 -15 0 -8 24 -9 77 -4 42 3 89 6 105 6
15 0 28 5 28 10 0 10 -31 10 -152 3z"/>
<path d="M1520 2650 c0 -19 5 -30 14 -30 12 0 14 15 7 53 0 4 -5 7 -11 7 -5 0
-10 -13 -10 -30z"/>
<path d="M10335 2650 c3 -5 10 -10 16 -10 5 0 9 5 9 10 0 6 -7 10 -16 10 -8 0
-12 -4 -9 -10z"/>
<path d="M10420 2650 c0 -5 5 -10 10 -10 6 0 10 5 10 10 0 6 -4 10 -10 10 -5
0 -10 -4 -10 -10z"/>
<path d="M10450 2630 l-35 -7 43 -2 c23 0 42 4 42 9 0 6 -3 9 -7 9 -5 -1 -24
-5 -43 -9z"/>
<path d="M1603 2623 c9 -2 23 -2 30 0 6 3 -1 5 -18 5 -16 0 -22 -2 -12 -5z"/>
<path d="M10353 2623 c9 -2 25 -2 35 0 9 3 1 5 -18 5 -19 0 -27 -2 -17 -5z"/>
<path d="M2280 1708 c0 -270 0 -1674 0 -1691 0 -16 12 -18 155 -16 100 0 157
5 162 12 3 6 1 13 -5 15 -7 2 -10 7 -7 12 5 7 7 579 6 1212 -1 242 -3 277 -16
272 -8 -4 -15 -1 -15 5 0 6 8 11 18 11 15 0 17 13 15 147 l-1 148 -156 3 -156
3 0 -133z m158 -135 c-16 -2 -40 -2 -55 0 -16 2 -3 4 27 4 30 0 43 -2 28 -4z
m105 0 c-13 -2 -33 -2 -45 0 -13 2 -3 4 22 4 25 0 35 -2 23 -4z m-6 -730 c-3
-10 -5 -4 -5 12 0 17 2 24 5 18 2 -7 2 -21 0 -30z m-30 -75 c-3 -7 -5 -2 -5
12 0 14 2 19 5 13 2 -7 2 -19 0 -25z m-150 -130 c-3 -8 -6 -5 -6 6 -1 11 2 17
5 13 3 -3 4 -12 1 -19z m20 -255 c-3 -10 -5 -4 -5 12 0 17 2 24 5 18 2 -7 2
-21 0 -30z m-30 -105 c-2 -13 -4 -3 -4 22 0 25 2 35 4 23 2 -13 2 -33 0 -45z
m30 0 c-2 -13 -4 -3 -4 22 0 25 2 35 4 23 2 -13 2 -33 0 -45z m-30 -60 c-3 -7
-5 -2 -5 12 0 14 2 19 5 13 2 -7 2 -19 0 -25z m30 0 c-3 -7 -5 -2 -5 12 0 14
2 19 5 13 2 -7 2 -19 0 -25z m-34 -125 c-7 -2 -19 -2 -25 0 -7 3 -2 5 12 5 14
0 19 -2 13 -5z m214 -59 c-3 -3 -12 -4 -19 -1 -8 3 -5 6 6 6 11 1 17 -2 13 -5z"/>
<path d="M4630 800 l0 -800 423 2 c232 1 378 4 324 7 -158 9 -117 26 63 26 88
0 160 3 160 8 0 4 -51 7 -112 7 -62 0 -137 3 -166 6 l-52 7 2 641 3 641 163
-4 c116 -3 162 0 162 8 0 8 -49 11 -166 11 l-165 0 1 103 c1 56 1 110 1 120
-1 16 -23 17 -321 17 l-320 0 0 -800z m427 -452 c-3 -8 -6 -5 -6 6 -1 11 2 17
5 13 3 -3 4 -12 1 -19z m-30 -90 c-2 -18 -4 -6 -4 27 0 33 2 48 4 33 2 -15 2
-42 0 -60z m30 50 c-3 -8 -6 -5 -6 6 -1 11 2 17 5 13 3 -3 4 -12 1 -19z"/>
<path d="M6740 800 l0 -800 205 0 c196 0 205 1 205 19 0 11 -8 22 -17 24 -14
4 -12 5 5 6 37 2 25 21 -15 23 -37 1 -37 1 -5 5 l32 4 1 372 c2 423 1 449 -15
459 -7 5 -6 8 4 8 15 0 15 10 10 653 l0 27 -205 0 -204 0 -1 -800z m208 43
c-10 -2 -26 -2 -35 0 -10 3 -2 5 17 5 19 0 27 -2 18 -5z m-25 -800 c-7 -2 -21
-2 -30 0 -10 3 -4 5 12 5 17 0 24 -2 18 -5z m64 1 c-3 -3 -12 -4 -19 -1 -8 3
-5 6 6 6 11 1 17 -2 13 -5z"/>
<path d="M8729 1333 c-2 -704 1 -1193 8 -1209 4 -10 2 -19 -5 -22 -7 -2 -12
-15 -12 -28 0 -20 -5 -24 -29 -24 -40 0 -84 18 -76 30 3 5 1 10 -5 10 -7 0
-10 -7 -6 -15 4 -12 -3 -15 -34 -15 -22 0 -40 -4 -40 -10 0 -9 24 -11 160 -16
36 -1 44 -4 42 -18 -3 -14 17 -16 203 -16 l205 0 0 800 0 800 -205 0 -205 0
-1 -267z m328 -685 c-3 -7 -5 -2 -5 12 0 14 2 19 5 13 2 -7 2 -19 0 -25z
m-243 -74 c3 -8 2 -12 -4 -9 -6 3 -10 10 -10 16 0 14 7 11 14 -7z m83 -30 c-3
-3 -12 -4 -19 -1 -8 3 -5 6 6 6 11 1 17 -2 13 -5z"/>
<path d="M10570 1478 c0 -68 -1 -428 -2 -801 -3 -637 -2 -677 14 -677 17 0 18
47 17 800 0 693 -2 800 -14 800 -12 0 -15 -22 -15 -122z"/>
<path d="M3894 1297 c-3 -8 -4 -47 -2 -88 l3 -74 5 88 c5 87 4 99 -6 74z"/>
<path d="M4054 1225 c0 -49 1 -71 3 -48 2 23 2 64 0 90 -2 26 -3 8 -3 -42z"/>
<path d="M1353 1220 c0 -47 2 -66 4 -42 2 23 2 61 0 85 -2 23 -4 4 -4 -43z"/>
<path d="M1460 1220 c0 -47 4 -80 10 -80 6 0 10 33 10 80 0 47 -4 80 -10 80
-6 0 -10 -33 -10 -80z"/>
<path d="M8641 1223 c-1 -55 -5 -83 -13 -85 -9 -3 -8 -9 4 -21 18 -18 78 -23
78 -7 0 6 -15 10 -33 10 l-33 0 4 68 c2 37 2 79 -1 92 -2 14 -5 -12 -6 -57z"/>
<path d="M320 1264 c-47 -13 -90 -26 -96 -28 -8 -3 20 -131 87 -393 55 -213
125 -490 156 -615 l58 -228 102 0 c72 0 103 4 103 12 0 6 -57 235 -126 507
-69 273 -127 503 -129 511 -5 25 -67 255 -68 256 -1 1 -40 -9 -87 -22z"/>
<path d="M9690 1262 c-52 -13 -96 -25 -97 -26 -1 -1 61 -249 137 -551 77 -303
147 -580 157 -618 l16 -67 104 0 c71 0 103 4 103 11 0 7 -24 107 -54 223 -30
116 -103 400 -161 631 -59 231 -108 421 -108 421 -1 1 -45 -10 -97 -24z"/>
<path d="M1400 1131 c0 -6 5 -13 10 -16 6 -3 10 1 10 9 0 9 -4 16 -10 16 -5 0
-10 -4 -10 -9z"/>
<path d="M3923 1125 c-3 -9 -3 -18 -1 -21 3 -3 8 4 11 16 6 23 -1 27 -10 5z"/>
<path d="M3966 1131 c9 -10 44 -11 44 -1 0 5 -11 9 -25 8 -13 -1 -22 -4 -19
-7z"/>
<path d="M4026 1125 c4 -8 10 -15 15 -15 4 0 6 7 3 15 -4 8 -10 15 -15 15 -4
0 -6 -7 -3 -15z"/>
<path d="M10440 1129 c0 -5 9 -9 20 -9 11 0 20 4 20 8 0 4 -9 8 -20 9 -11 1
-20 -2 -20 -8z"/>
<path d="M10510 1134 c0 -3 7 -12 15 -20 13 -14 15 -13 15 5 0 12 -6 21 -15
21 -8 0 -15 -3 -15 -6z"/>
<path d="M1350 1100 c0 -11 7 -20 15 -20 8 0 15 9 15 20 0 11 -7 20 -15 20 -8
0 -15 -9 -15 -20z"/>
<path d="M8550 1099 c0 -18 2 -19 15 -5 8 8 15 17 15 20 0 3 -7 6 -15 6 -9 0
-15 -9 -15 -21z"/>
<path d="M10409 1118 c-5 -13 -4 -58 2 -58 6 0 10 9 18 45 2 9 -17 21 -20 13z
m21 -12 c0 -3 -4 -8 -10 -11 -5 -3 -10 -1 -10 4 0 6 5 11 10 11 6 0 10 -2 10
-4z"/>
<path d="M1057 1090 c3 -11 7 -20 9 -20 2 0 4 9 4 20 0 11 -4 20 -9 20 -5 0
-7 -9 -4 -20z"/>
<path d="M3948 1093 c-10 -13 -14 -122 -18 -510 -3 -271 -2 -493 3 -493 4 0 7
-11 7 -24 0 -13 7 -29 16 -36 12 -11 18 -10 35 6 19 19 19 36 19 528 0 328 -3
513 -10 521 -5 6 -8 14 -5 16 2 3 -4 5 -15 6 -10 1 -25 -5 -32 -14z m40 -524
c1 -277 0 -510 -3 -518 -4 -11 -8 -12 -17 -3 -13 13 -26 959 -14 1007 4 15 12
25 19 22 9 -3 13 -123 15 -508z"/>
<path d="M3960 1010 c0 -5 5 -10 10 -10 6 0 10 5 10 10 0 6 -4 10 -10 10 -5 0
-10 -4 -10 -10z"/>
<path d="M3968 953 c5 -59 10 -63 11 -10 1 26 -3 47 -7 47 -4 0 -6 -17 -4 -37z"/>
<path d="M3961 874 c0 -11 3 -14 6 -6 3 7 2 16 -1 19 -3 4 -6 -2 -5 -13z"/>
<path d="M3971 834 c0 -11 3 -14 6 -6 3 7 2 16 -1 19 -3 4 -6 -2 -5 -13z"/>
<path d="M3961 644 c0 -11 3 -14 6 -6 3 7 2 16 -1 19 -3 4 -6 -2 -5 -13z"/>
<path d="M3967 591 c-2 -10 -1 -25 4 -32 6 -10 9 -4 9 19 0 36 -5 42 -13 13z"/>
<path d="M3961 514 c0 -11 3 -14 6 -6 3 7 2 16 -1 19 -3 4 -6 -2 -5 -13z"/>
<path d="M3972 115 c0 -16 2 -22 5 -12 2 9 2 23 0 30 -3 6 -5 -1 -5 -18z"/>
<path d="M10446 1091 c-14 -16 -16 -75 -16 -526 0 -451 2 -510 16 -526 13 -14
21 -16 39 -7 15 7 21 16 18 26 -4 9 -2 13 4 9 5 -4 15 5 22 19 16 35 13 44 -4
14 -13 -22 -14 35 -15 462 0 272 -4 497 -9 511 -12 32 -35 40 -55 18z m34 -23
c0 -4 -4 -8 -10 -8 -5 0 -10 -9 -10 -20 0 -25 17 -26 23 -2 3 9 5 -200 6 -465
1 -317 -2 -484 -9 -488 -6 -4 -8 -11 -5 -16 4 -5 3 -15 -2 -21 -17 -28 -21 64
-22 538 -1 430 1 491 14 491 8 0 15 -4 15 -9z"/>
<path d="M10462 875 c0 -16 2 -22 5 -12 2 9 2 23 0 30 -3 6 -5 -1 -5 -18z"/>
<path d="M10460 426 c0 -41 4 -77 9 -80 5 -3 8 30 7 74 0 44 -4 80 -8 80 -5 0
-8 -33 -8 -74z"/>
<path d="M10460 131 c0 -42 14 -46 17 -5 2 19 -2 34 -7 34 -6 0 -10 -13 -10
-29z"/>
<path d="M1202 1088 c-9 -9 -12 -127 -11 -502 1 -270 4 -504 8 -521 7 -35 43
-47 57 -18 13 26 11 1002 -1 1027 -13 25 -36 31 -53 14z m48 -527 c0 -482 -4
-550 -30 -511 -11 17 -14 1023 -3 1034 4 4 13 -1 20 -10 10 -14 13 -127 13
-513z"/>
<path d="M1495 1058 c4 -24 7 -49 8 -55 1 -32 11 2 14 47 2 40 -1 50 -14 50
-13 0 -14 -7 -8 -42z"/>
<path d="M3871 1084 c0 -11 3 -14 6 -6 3 7 2 16 -1 19 -3 4 -6 -2 -5 -13z"/>
<path d="M3894 1058 l2 -48 -95 4 c-57 2 -84 1 -66 -4 17 -4 54 -8 83 -9 28 0
52 -5 52 -9 0 -4 8 -8 19 -9 15 -1 17 4 14 34 -3 26 -1 33 9 27 10 -6 10 -5 2
7 -7 8 -14 23 -17 34 -3 11 -4 -1 -3 -27z"/>
<path d="M6612 1083 c-8 -21 -5 -996 3 -1030 7 -29 40 -30 55 -4 14 27 14
1005 0 1032 -13 24 -48 25 -58 2z m51 -516 c2 -367 -1 -509 -9 -517 -9 -9 -14
-9 -19 0 -4 6 -9 235 -12 510 -5 403 -3 502 7 515 8 10 17 12 22 7 6 -6 10
-220 11 -515z"/>
<path d="M10230 1079 c-14 -24 -9 -1003 4 -1031 12 -27 45 -22 56 8 14 36 13
999 0 1025 -14 25 -46 24 -60 -2z m50 -269 c6 -306 -2 -755 -12 -766 -5 -4
-11 -4 -15 0 -5 4 -9 239 -11 523 -3 491 -2 515 15 511 17 -3 18 -23 23 -268z"/>
<path d="M938 1083 c7 -3 16 -2 19 1 4 3 -2 6 -13 5 -11 0 -14 -3 -6 -6z"/>
<path d="M1408 1073 c6 -2 18 -2 25 0 6 3 1 5 -13 5 -14 0 -19 -2 -12 -5z"/>
<path d="M4026 1063 c-6 -14 -5 -15 5 -6 7 7 10 15 7 18 -3 3 -9 -2 -12 -12z"/>
<path d="M5419 1059 c-29 -29 -23 -79 13 -98 24 -14 28 -14 47 3 26 24 28 77
3 99 -24 22 -38 21 -63 -4z m64 -21 c15 -23 -6 -68 -32 -68 -32 0 -46 36 -26
66 18 28 42 28 58 2z"/>
<path d="M8618 1073 c7 -3 16 -2 19 1 4 3 -2 6 -13 5 -11 0 -14 -3 -6 -6z"/>
<path d="M8670 1073 c0 -5 11 -13 24 -19 23 -11 24 -10 13 7 -12 19 -37 26
-37 12z"/>
<path d="M845 1061 l-80 -6 65 -6 c114 -12 290 -11 290 0 0 7 -29 11 -77 11
-43 0 -87 2 -98 3 -11 2 -56 1 -100 -2z"/>
<path d="M90 1040 c-15 -15 -17 -25 -10 -47 5 -15 21 -73 36 -128 39 -145 56
-166 105 -127 l22 19 -21 84 c-12 46 -27 104 -33 129 -20 79 -27 90 -54 90
-14 0 -34 -9 -45 -20z m83 -68 c55 -212 57 -236 15 -230 -13 2 -24 13 -29 28
-76 268 -76 270 -24 270 16 0 23 -13 38 -68z"/>
<path d="M1340 1050 c0 -5 4 -10 9 -10 6 0 13 5 16 10 3 6 -1 10 -9 10 -9 0
-16 -4 -16 -10z"/>
<path d="M1387 1042 c-10 -10 -17 -30 -17 -45 0 -33 45 -70 77 -62 24 6 44
-19 36 -42 -3 -8 4 -13 17 -13 16 0 20 5 17 25 -1 13 -7 28 -12 32 -4 4 -5 2
-1 -4 4 -7 3 -13 -2 -13 -17 0 -22 13 -9 28 8 11 9 14 0 9 -9 -5 -10 2 -6 27
10 61 -61 102 -100 58z m71 -14 c16 -16 15 -40 -2 -63 -12 -17 -18 -18 -40 -7
-41 19 -31 82 14 82 9 0 21 -5 28 -12z"/>
<path d="M1403 995 c0 -8 4 -12 9 -9 5 3 6 10 3 15 -9 13 -12 11 -12 -6z"/>
<path d="M1436 1002 c-3 -6 -1 -14 5 -17 15 -10 25 3 12 16 -7 7 -13 7 -17 1z"/>
<path d="M2082 1050 c-12 -5 -26 -20 -31 -32 -5 -13 -11 -248 -14 -523 -3
-275 -1 -444 3 -375 4 69 11 300 15 513 7 358 9 389 26 397 23 13 65 13 90 0
19 -11 19 -22 13 -520 -5 -306 -4 -510 2 -510 5 0 9 109 9 257 0 142 2 371 5
510 4 220 3 254 -11 268 -19 20 -77 28 -107 15z"/>
<path d="M3720 1054 c8 -2 47 -7 87 -12 59 -7 70 -6 61 5 -7 9 -35 13 -87 12
-42 -1 -69 -3 -61 -5z"/>
<path d="M8545 994 c2 -36 6 -68 9 -71 3 -4 1 -12 -5 -19 -7 -9 -7 -18 0 -31
9 -16 10 -14 11 10 0 20 4 26 13 21 9 -6 9 -4 1 7 -11 13 -15 44 -16 117 0 17
-4 32 -8 32 -4 0 -7 -30 -5 -66z"/>
<path d="M8587 1042 c-24 -27 -21 -67 6 -89 28 -22 33 -33 17 -43 -7 -4 -1 -7
14 -7 24 0 25 1 9 13 -15 11 -16 13 -2 14 24 0 59 38 59 65 0 54 -69 85 -103
47z m71 -14 c34 -34 -6 -90 -48 -68 -35 19 -20 80 20 80 9 0 21 -5 28 -12z"/>
<path d="M8609 1017 c0 -1 -2 -10 -4 -20 -3 -18 -2 -18 15 -2 14 12 20 13 26
4 5 -8 3 -10 -6 -4 -9 5 -11 4 -6 -3 11 -18 25 -14 23 6 0 11 -10 19 -24 20
-13 1 -23 1 -24 -1z"/>
<path d="M9472 1043 l-22 -18 25 -95 c57 -212 72 -235 124 -192 l22 17 -20 80
c-53 209 -57 220 -83 223 -14 2 -34 -5 -46 -15z m68 -27 c0 -13 7 -43 15 -67
25 -69 47 -178 41 -195 -3 -9 -15 -14 -28 -12 -24 3 -28 12 -73 186 -14 52
-22 98 -19 103 3 5 18 9 35 9 24 0 29 -4 29 -24z"/>
<path d="M930 1030 c0 -5 5 -10 11 -10 5 0 7 -6 3 -12 -4 -7 -3 -9 1 -5 15 13
14 37 -1 37 -8 0 -14 -4 -14 -10z"/>
<path d="M4042 1015 c0 -16 3 -39 8 -50 8 -18 9 -18 8 5 0 14 -4 36 -8 50 -8
24 -8 24 -8 -5z"/>
<path d="M10552 1020 c0 -14 2 -19 5 -12 2 6 2 18 0 25 -3 6 -5 1 -5 -13z"/>
<path d="M1023 1023 c46 -4 47 -5 47 -38 0 -18 -6 -36 -12 -38 -8 -3 -6 -6 5
-6 14 -1 17 8 17 44 l0 45 -52 -2 -53 -2 48 -3z"/>
<path d="M8463 1023 c15 -2 37 -2 50 0 12 2 0 4 -28 4 -27 0 -38 -2 -22 -4z"/>
<path d="M8700 1021 c0 -6 4 -13 10 -16 6 -3 7 1 4 9 -7 18 -14 21 -14 7z"/>
<path d="M790 1010 c14 -4 50 -8 80 -8 l55 1 -50 7 c-27 5 -63 8 -80 8 -29 0
-29 0 -5 -8z"/>
<path d="M8463 993 c15 -2 37 -2 50 0 12 2 0 4 -28 4 -27 0 -38 -2 -22 -4z"/>
<path d="M10400 990 c0 -5 5 -10 10 -10 6 0 10 5 10 10 0 6 -4 10 -10 10 -5 0
-10 -4 -10 -10z"/>
<path d="M10520 990 c0 -5 5 -10 10 -10 6 0 10 5 10 10 0 6 -4 10 -10 10 -5 0
-10 -4 -10 -10z"/>
<path d="M7465 975 c-5 -2 -36 -9 -68 -15 -32 -7 -56 -14 -54 -16 7 -8 167 20
167 28 0 8 -26 10 -45 3z"/>
<path d="M985 959 c17 -8 16 -9 -7 -6 -15 2 -33 0 -40 -4 -8 -6 -1 -9 22 -9
43 0 70 14 45 24 -26 9 -43 6 -20 -5z"/>
<path d="M7413 923 c-35 -8 -63 -19 -63 -25 0 -6 8 -7 18 -3 9 3 45 12 80 20
35 7 66 16 69 19 10 10 -38 5 -104 -11z"/>
<path d="M8705 933 c3 -3 0 -11 -5 -18 -7 -8 -5 -12 4 -12 14 0 16 22 3 32 -4
3 -5 2 -2 -2z"/>
<path d="M920 922 c0 -11 187 -28 197 -18 11 11 -1 14 -99 21 -64 4 -98 3 -98
-3z"/>
<path d="M1401 921 c-10 -6 -9 -10 3 -14 8 -3 18 -2 21 3 8 13 -9 20 -24 11z"/>
<path d="M7606 911 c-33 -10 -61 -22 -63 -27 -1 -5 20 -97 47 -204 28 -107 78
-304 111 -437 l61 -243 80 0 c78 0 79 0 72 23 -4 12 -57 220 -119 461 -61 242
-116 441 -121 442 -5 1 -36 -6 -68 -15z"/>
<path d="M5392 893 c-20 -17 -21 -32 -28 -389 -8 -423 -15 -387 82 -399 36 -5
53 -3 61 6 7 9 13 149 17 396 7 374 7 382 -13 392 -31 17 -96 13 -119 -6z
m120 -9 c11 -7 -3 -747 -15 -761 -6 -9 -23 -11 -51 -7 -84 13 -79 -11 -72 312
9 408 13 451 39 462 20 9 82 4 99 -6z"/>
<path d="M812 892 c-9 -7 -12 -47 -10 -167 3 -173 8 -185 61 -171 l27 6 0 154
c0 127 -3 157 -16 170 -17 17 -42 20 -62 8z m63 -44 c3 -18 5 -89 3 -158 -3
-111 -5 -125 -21 -128 -41 -8 -47 13 -47 169 l0 149 30 0 c25 0 30 -5 35 -32z"/>
<path d="M3753 893 c-10 -3 -13 -46 -13 -163 0 -172 4 -184 57 -178 l28 3 3
157 c2 132 0 159 -13 172 -16 16 -38 19 -62 9z m61 -29 c3 -9 6 -78 6 -154 0
-116 -2 -139 -16 -144 -8 -3 -24 -1 -35 4 -17 10 -19 23 -19 154 0 78 3 146 7
149 12 13 51 7 57 -9z"/>
<path d="M4023 850 c0 -30 2 -43 4 -27 2 15 2 39 0 55 -2 15 -4 2 -4 -28z"/>
<path d="M7428 883 c-38 -9 -68 -20 -68 -25 0 -5 8 -7 18 -4 9 3 46 12 82 21
111 28 85 34 -32 8z"/>
<path d="M8289 892 c-68 -2 -78 -5 -82 -23 -5 -20 -10 -21 -85 -14 -75 6 -79
6 -85 -14 -5 -20 -2 -21 84 -21 l89 0 0 -206 0 -206 -84 7 c-56 4 -86 3 -91
-4 -3 -6 2 -11 12 -12 16 0 16 -1 -1 -8 -38 -15 4 -22 84 -15 l80 7 0 -192 0
-191 80 0 80 0 1 175 c1 96 2 181 3 188 0 6 21 15 46 18 l45 6 -50 3 -50 3 50
7 50 6 -45 5 -45 4 -3 203 -2 202 47 2 48 1 -50 7 -50 7 50 2 c40 1 46 4 32
12 -10 6 -30 9 -45 7 -21 -2 -26 1 -24 14 3 22 -1 23 -89 20z m-116 -59 c-24
-2 -62 -2 -85 0 -24 2 -5 4 42 4 47 0 66 -2 43 -4z m5 -440 c-21 -2 -55 -2
-75 0 -21 2 -4 4 37 4 41 0 58 -2 38 -4z"/>
<path d="M8055 880 c-13 -5 -14 -9 -5 -9 8 0 24 4 35 9 13 5 14 9 5 9 -8 0
-24 -4 -35 -9z"/>
<path d="M1360 860 c0 -16 7 -20 35 -20 37 0 41 5 25 30 -9 13 -11 13 -21 0
-8 -11 -12 -12 -16 -2 -8 19 -23 14 -23 -8z"/>
<path d="M3872 850 c0 -19 2 -27 5 -17 2 9 2 25 0 35 -3 9 -5 1 -5 -18z"/>
<path d="M8640 870 c0 -5 -9 -10 -20 -10 -11 0 -20 -4 -20 -10 0 -5 11 -10 25
-10 18 0 25 5 25 20 0 11 -2 20 -5 20 -3 0 -5 -4 -5 -10z"/>
<path d="M1064 862 c-9 -5 -8 -11 2 -20 12 -11 14 -9 14 8 0 22 0 23 -16 12z"/>
<path d="M975 850 c-3 -5 1 -10 9 -10 9 0 16 5 16 10 0 6 -4 10 -9 10 -6 0
-13 -4 -16 -10z"/>
<path d="M3911 834 c0 -11 3 -14 6 -6 3 7 2 16 -1 19 -3 4 -6 -2 -5 -13z"/>
<path d="M935 830 c-3 -5 -2 -10 4 -10 5 0 13 5 16 10 3 6 2 10 -4 10 -5 0
-13 -4 -16 -10z"/>
<path d="M1480 830 c0 -5 5 -10 10 -10 6 0 10 5 10 10 0 6 -4 10 -10 10 -5 0
-10 -4 -10 -10z"/>
<path d="M6308 828 c-17 -14 -159 -228 -365 -553 -81 -127 -133 -217 -131
-230 4 -28 32 -30 58 -3 24 26 232 338 329 493 34 55 84 132 111 170 50 71 60
101 38 123 -15 15 -20 15 -40 0z m39 -24 c6 -19 -483 -764 -503 -764 -33 0
-23 19 167 311 84 129 179 277 212 329 33 52 67 105 76 117 16 23 41 27 48 7z"/>
<path d="M1074 500 c0 -179 2 -252 3 -162 2 89 2 235 0 325 -1 89 -3 16 -3
-163z"/>
<path d="M1344 660 c0 -91 2 -128 3 -82 2 45 2 119 0 165 -1 45 -3 8 -3 -83z"/>
<path d="M8543 780 c0 -25 2 -35 4 -22 2 12 2 32 0 45 -2 12 -4 2 -4 -23z"/>
<path d="M8644 500 c0 -321 0 -322 6 -90 3 129 2 276 -1 325 -3 50 -5 -56 -5
-235z"/>
<path d="M4446 788 c-18 -28 -216 -639 -239 -736 -12 -52 30 -73 56 -29 17 26
119 329 172 507 21 69 43 136 50 150 24 47 28 95 10 113 -22 23 -32 21 -49 -5z
m41 -13 c3 -9 -18 -89 -47 -178 -156 -483 -184 -563 -196 -576 -33 -36 -21 28
47 245 40 126 91 291 115 366 23 75 45 142 49 148 9 15 25 12 32 -5z"/>
<path d="M2753 784 c-3 -8 -2 -27 3 -43 17 -51 415 -733 433 -739 6 -2 -51
101 -125 230 -343 589 -324 552 -284 546 18 -2 38 -31 91 -126 38 -68 95 -167
127 -220 58 -95 193 -335 227 -400 9 -19 19 -32 21 -29 10 9 -94 199 -271 497
-51 85 -104 179 -119 208 -42 82 -87 116 -103 76z"/>
<path d="M8063 740 c0 -25 2 -35 4 -22 2 12 2 32 0 45 -2 12 -4 2 -4 -23z"/>
<path d="M1530 700 c0 -6 77 -10 210 -10 133 0 210 4 210 10 0 6 -77 10 -210
10 -133 0 -210 -4 -210 -10z"/>
<path d="M8064 590 c0 -52 1 -74 3 -47 2 26 2 68 0 95 -2 26 -3 4 -3 -48z"/>
<path d="M931 644 c0 -11 3 -14 6 -6 3 7 2 16 -1 19 -3 4 -6 -2 -5 -13z"/>
<path d="M4022 640 c0 -14 2 -19 5 -12 2 6 2 18 0 25 -3 6 -5 1 -5 -13z"/>
<path d="M10522 640 c0 -14 2 -19 5 -12 2 6 2 18 0 25 -3 6 -5 1 -5 -13z"/>
<path d="M1530 640 c0 -6 77 -10 210 -10 133 0 210 4 210 10 0 6 -77 10 -210
10 -133 0 -210 -4 -210 -10z"/>
<path d="M8548 599 c-2 -14 -2 -34 2 -44 11 -30 20 7 11 42 l-8 28 -5 -26z"/>
<path d="M1480 510 c0 -5 5 -10 10 -10 6 0 10 5 10 10 0 6 -4 10 -10 10 -5 0
-10 -4 -10 -10z"/>
<path d="M8460 510 c0 -5 16 -10 36 -10 21 0 33 4 29 10 -3 6 -19 10 -36 10
-16 0 -29 -4 -29 -10z"/>
<path d="M3912 480 c0 -14 2 -19 5 -12 2 6 2 18 0 25 -3 6 -5 1 -5 -13z"/>
<path d="M8041 484 c0 -11 3 -14 6 -6 3 7 2 16 -1 19 -3 4 -6 -2 -5 -13z"/>
<path d="M8580 480 c0 -11 5 -20 10 -20 6 0 10 9 10 20 0 11 -4 20 -10 20 -5
0 -10 -9 -10 -20z"/>
<path d="M8460 480 c0 -5 18 -10 41 -10 24 0 38 4 34 10 -3 6 -22 10 -41 10
-19 0 -34 -4 -34 -10z"/>
<path d="M8060 450 c0 -5 11 -10 25 -10 14 0 25 5 25 10 0 6 -11 10 -25 10
-14 0 -25 -4 -25 -10z"/>
<path d="M8542 440 c0 -14 2 -19 5 -12 2 6 2 18 0 25 -3 6 -5 1 -5 -13z"/>
<path d="M10523 340 c0 -47 2 -66 4 -42 2 23 2 61 0 85 -2 23 -4 4 -4 -43z"/>
<path d="M10413 375 c0 -22 2 -30 4 -17 2 12 2 30 0 40 -3 9 -5 -1 -4 -23z"/>
<path d="M8063 260 c0 -47 2 -66 4 -42 2 23 2 61 0 85 -2 23 -4 4 -4 -43z"/>
<path d="M10411 314 c0 -11 3 -14 6 -6 3 7 2 16 -1 19 -3 4 -6 -2 -5 -13z"/>
<path d="M1400 230 c0 -5 5 -10 10 -10 6 0 10 5 10 10 0 6 -4 10 -10 10 -5 0
-10 -4 -10 -10z"/>
<path d="M3885 157 c-3 -18 -8 -50 -9 -72 l-3 -40 4 40 c3 28 7 35 14 25 6
-11 9 -6 9 18 0 17 5 32 10 32 15 0 12 17 -4 23 -9 4 -16 -5 -21 -26z"/>
<path d="M989 159 c-27 -27 -35 -86 -15 -108 9 -10 14 -20 11 -23 -3 -2 10 -2
28 0 37 5 67 28 67 52 0 28 -46 63 -75 58 -25 -5 -25 -5 -9 13 12 13 21 16 29
9 8 -7 12 -6 12 3 0 19 -27 17 -48 -4z m61 -54 c6 -8 10 -22 8 -32 -5 -26 -71
-26 -76 0 -8 39 42 63 68 32z"/>
<path d="M1025 93 c3 -3 0 -11 -5 -18 -7 -8 -5 -12 4 -12 14 0 16 22 3 32 -4
3 -5 2 -2 -2z"/>
<path d="M1080 160 c-6 -11 -15 -18 -20 -15 -6 3 -7 -1 -4 -9 3 -8 14 -14 24
-13 14 1 16 5 9 13 -7 8 -6 15 2 20 8 4 9 3 5 -4 -4 -7 -3 -12 3 -12 5 0 9 9
8 20 -2 26 -13 26 -27 0z"/>
<path d="M4027 173 c-10 -9 -9 -83 1 -83 4 0 7 20 7 45 0 25 0 45 -1 45 0 0
-4 -3 -7 -7z"/>
<path d="M1400 150 c0 -5 9 -10 20 -10 13 0 20 -7 20 -20 0 -11 5 -20 10 -20
15 0 12 29 -4 46 -17 16 -46 19 -46 4z"/>
<path d="M8600 140 c0 -11 5 -20 10 -20 6 0 10 9 10 20 0 11 -4 20 -10 20 -5
0 -10 -9 -10 -20z"/>
<path d="M8640 130 c0 -16 5 -30 10 -30 6 0 10 14 10 30 0 17 -4 30 -10 30 -5
0 -10 -13 -10 -30z"/>
<path d="M1400 100 c0 -15 6 -20 28 -19 16 1 20 3 10 6 -10 2 -18 11 -18 19 0
8 -4 14 -10 14 -5 0 -10 -9 -10 -20z"/>
<path d="M8551 104 c0 -11 3 -14 6 -6 3 7 2 16 -1 19 -3 4 -6 -2 -5 -13z"/>
<path d="M10405 111 c-3 -5 -1 -12 5 -16 5 -3 10 1 10 9 0 18 -6 21 -15 7z"/>
<path d="M8638 83 c7 -3 16 -2 19 1 4 3 -2 6 -13 5 -11 0 -14 -3 -6 -6z"/>
<path d="M3921 64 c0 -11 3 -14 6 -6 3 7 2 16 -1 19 -3 4 -6 -2 -5 -13z"/>
<path d="M1326 51 c13 -13 204 -25 204 -13 0 5 -30 12 -67 15 -97 10 -149 9
-137 -2z"/>
<path d="M3892 20 c0 -14 2 -19 5 -12 2 6 2 18 0 25 -3 6 -5 1 -5 -13z"/>
<path d="M1400 10 c0 -5 5 -10 10 -10 6 0 10 5 10 10 0 6 -4 10 -10 10 -5 0
-10 -4 -10 -10z"/>
</g>
</svg>
