<svg width="167" height="303" viewBox="0 0 167 303" fill="none" xmlns="http://www.w3.org/2000/svg">
<path d="M40.75 27.27C40.75 13.3248 29.4451 2.02002 15.5 2.02002C1.55496 2.02002 -9.74997 13.3248 -9.74997 27.27V54.9505L-23.4264 30.8844C-30.3156 18.7602 -45.7299 14.5169 -57.8541 21.4067C-69.9784 28.2965 -74.2217 43.7105 -67.3319 55.8348L-51.7694 83.2206L-79.1551 67.6581C-91.2794 60.7682 -106.693 65.0115 -113.583 77.1358C-120.473 89.2601 -116.23 104.674 -104.106 111.564L-80.0394 125.24H-107.72C-121.665 125.24 -132.97 136.545 -132.97 150.49C-132.97 164.435 -121.665 175.74 -107.72 175.74H-80.0395L-104.106 189.416C-116.23 196.306 -120.473 211.72 -113.583 223.844C-106.693 235.968 -91.2794 240.211 -79.1551 233.322L-51.7694 217.759L-67.3319 245.145C-74.2218 257.269 -69.9784 272.684 -57.8541 279.573C-45.7299 286.463 -30.3156 282.22 -23.4264 270.095L-9.74997 246.03V273.71C-9.74997 287.655 1.55496 298.96 15.5 298.96C29.4451 298.96 40.75 287.655 40.75 273.71V246.03L54.4264 270.095C61.3156 282.22 76.7303 286.463 88.8543 279.573C100.978 272.684 105.221 257.269 98.3321 245.145L82.7691 217.759L110.155 233.322C122.279 240.211 137.694 235.968 144.583 223.844C151.473 211.72 147.23 196.306 135.105 189.416L111.04 175.74H138.72C152.665 175.74 163.97 164.435 163.97 150.49C163.97 136.545 152.665 125.24 138.72 125.24H111.04L135.105 111.564C147.23 104.674 151.473 89.2601 144.583 77.1358C137.694 65.0115 122.279 60.7682 110.155 67.6581L82.7691 83.2206L98.3321 55.8348C105.221 43.7105 100.978 28.2965 88.8543 21.4067C76.7303 14.5169 61.3156 18.7602 54.4264 30.8844L40.75 54.9505V27.27Z" fill="#FDCC0D"/>
</svg>
