<svg width="251" height="244" viewBox="0 0 251 244" fill="none" xmlns="http://www.w3.org/2000/svg">
<path fill-rule="evenodd" clip-rule="evenodd" d="M142.666 38.5136C158.106 -5.88238 220.893 -5.88251 236.334 38.5135L240.302 49.9224L250.674 43.7333C291.04 19.6493 339.138 60.0073 322.429 103.942L318.135 115.232L330.06 117.159C376.462 124.656 387.366 186.488 346.325 209.404L335.779 215.293L343.675 224.434C374.403 260.004 343.009 314.378 296.84 305.552L284.976 303.285L285.15 315.362C285.824 362.362 226.825 383.836 197.131 347.399L189.5 338.035L181.869 347.399C152.175 383.836 93.1753 362.362 93.8499 315.362L94.0232 303.285L82.1589 305.552C35.9905 314.378 4.59717 260.004 35.3248 224.434L43.2212 215.293L32.6747 209.404C-8.36547 186.488 2.5371 124.656 48.94 117.159L60.8645 115.232L56.5707 103.942C39.862 60.0076 87.959 19.6491 128.324 43.7333L138.698 49.9224L142.666 38.5136ZM189.5 94.0463C177.616 115.747 151.196 125.363 128.144 116.378C132.989 140.64 118.931 164.99 95.4964 172.925C114.804 188.396 119.686 216.085 106.835 237.226C131.57 236.668 153.108 254.741 156.853 279.197C175.442 262.869 203.558 262.869 222.147 279.197C225.892 254.741 247.43 236.668 272.165 237.226C259.313 216.085 264.196 188.396 283.503 172.925C260.069 164.99 246.01 140.64 250.856 116.378C227.804 125.363 201.383 115.747 189.5 94.0463Z" fill="#B7D6E9"/>
</svg>
