<svg width="1920" height="600" viewBox="0 0 1920 600" fill="none" xmlns="http://www.w3.org/2000/svg">
<rect width="1920" height="600" fill="#FCF6F1"/>
<rect width="840" height="600" transform="translate(960)" fill="#FCF6F1"/>
<path d="M1125 162.225C1125 145.656 1138.43 132 1155 132H1604C1620.57 132 1634 145.431 1634 162V252C1634 268.569 1620.63 282 1604.07 282C1444.77 282 1232.55 282 1155 282C1138.43 282 1125 303.923 1125 287.355C1125 270.767 1125 234.544 1125 162.225Z" fill="#FFD5CD"/>
<path d="M1590 374C1614.02 374 1633.5 349.823 1633.5 320C1633.5 349.823 1652.98 374 1677 374C1652.98 374 1633.5 398.177 1633.5 428C1633.5 398.177 1614.02 374 1590 374Z" fill="#FEA87A"/>
<path d="M1567 435C1579.43 435 1589.5 422.464 1589.5 407C1589.5 422.464 1599.57 435 1612 435C1599.57 435 1589.5 447.536 1589.5 463C1589.5 447.536 1579.43 435 1567 435Z" fill="#FEA87A"/>
<path d="M1644 448.5C1653.11 448.5 1660.5 439.322 1660.5 428C1660.5 439.322 1667.89 448.5 1677 448.5C1667.89 448.5 1660.5 457.678 1660.5 469C1660.5 457.678 1653.11 448.5 1644 448.5Z" fill="#FEA87A"/>
<path d="M1165.36 166.12C1164.31 166.12 1163.33 165.947 1162.44 165.6C1161.55 165.24 1160.77 164.74 1160.12 164.1C1159.47 163.46 1158.95 162.707 1158.58 161.84C1158.22 160.973 1158.04 160.027 1158.04 159C1158.04 157.973 1158.22 157.027 1158.58 156.16C1158.95 155.293 1159.47 154.54 1160.12 153.9C1160.79 153.26 1161.57 152.767 1162.46 152.42C1163.35 152.06 1164.33 151.88 1165.38 151.88C1166.39 151.88 1167.35 152.053 1168.24 152.4C1169.13 152.733 1169.89 153.24 1170.5 153.92L1169.56 154.86C1168.99 154.273 1168.35 153.853 1167.66 153.6C1166.97 153.333 1166.22 153.2 1165.42 153.2C1164.58 153.2 1163.8 153.347 1163.08 153.64C1162.36 153.92 1161.73 154.327 1161.2 154.86C1160.67 155.38 1160.25 155.993 1159.94 156.7C1159.65 157.393 1159.5 158.16 1159.5 159C1159.5 159.84 1159.65 160.613 1159.94 161.32C1160.25 162.013 1160.67 162.627 1161.2 163.16C1161.73 163.68 1162.36 164.087 1163.08 164.38C1163.8 164.66 1164.58 164.8 1165.42 164.8C1166.22 164.8 1166.97 164.667 1167.66 164.4C1168.35 164.133 1168.99 163.707 1169.56 163.12L1170.5 164.06C1169.89 164.74 1169.13 165.253 1168.24 165.6C1167.35 165.947 1166.39 166.12 1165.36 166.12ZM1181.78 166V163.68L1181.72 163.3V159.42C1181.72 158.527 1181.47 157.84 1180.96 157.36C1180.47 156.88 1179.73 156.64 1178.74 156.64C1178.06 156.64 1177.41 156.753 1176.8 156.98C1176.19 157.207 1175.67 157.507 1175.24 157.88L1174.6 156.82C1175.13 156.367 1175.77 156.02 1176.52 155.78C1177.27 155.527 1178.05 155.4 1178.88 155.4C1180.24 155.4 1181.29 155.74 1182.02 156.42C1182.77 157.087 1183.14 158.107 1183.14 159.48V166H1181.78ZM1178.16 166.1C1177.37 166.1 1176.69 165.973 1176.1 165.72C1175.53 165.453 1175.09 165.093 1174.78 164.64C1174.47 164.173 1174.32 163.64 1174.32 163.04C1174.32 162.493 1174.45 162 1174.7 161.56C1174.97 161.107 1175.39 160.747 1175.98 160.48C1176.58 160.2 1177.38 160.06 1178.38 160.06H1182V161.12H1178.42C1177.41 161.12 1176.7 161.3 1176.3 161.66C1175.91 162.02 1175.72 162.467 1175.72 163C1175.72 163.6 1175.95 164.08 1176.42 164.44C1176.89 164.8 1177.54 164.98 1178.38 164.98C1179.18 164.98 1179.87 164.8 1180.44 164.44C1181.03 164.067 1181.45 163.533 1181.72 162.84L1182.04 163.82C1181.77 164.513 1181.31 165.067 1180.64 165.48C1179.99 165.893 1179.16 166.1 1178.16 166.1ZM1192.32 166.1C1191.33 166.1 1190.57 165.833 1190.04 165.3C1189.5 164.767 1189.24 164.013 1189.24 163.04V153.18H1190.66V162.96C1190.66 163.573 1190.81 164.047 1191.12 164.38C1191.44 164.713 1191.89 164.88 1192.48 164.88C1193.1 164.88 1193.62 164.7 1194.04 164.34L1194.54 165.36C1194.26 165.613 1193.92 165.8 1193.52 165.92C1193.13 166.04 1192.73 166.1 1192.32 166.1ZM1187.36 156.68V155.5H1193.86V156.68H1187.36ZM1206.36 166V155.5H1207.78V166H1206.36ZM1207.08 153.18C1206.78 153.18 1206.54 153.08 1206.34 152.88C1206.14 152.68 1206.04 152.44 1206.04 152.16C1206.04 151.88 1206.14 151.647 1206.34 151.46C1206.54 151.26 1206.78 151.16 1207.08 151.16C1207.37 151.16 1207.62 151.253 1207.82 151.44C1208.02 151.627 1208.12 151.86 1208.12 152.14C1208.12 152.433 1208.02 152.68 1207.82 152.88C1207.63 153.08 1207.38 153.18 1207.08 153.18ZM1219.15 166.1C1218.24 166.1 1217.42 165.893 1216.69 165.48C1215.95 165.053 1215.37 164.447 1214.93 163.66C1214.5 162.86 1214.29 161.887 1214.29 160.74C1214.29 159.593 1214.5 158.627 1214.93 157.84C1215.35 157.04 1215.93 156.433 1216.67 156.02C1217.4 155.607 1218.23 155.4 1219.15 155.4C1220.15 155.4 1221.04 155.627 1221.83 156.08C1222.63 156.52 1223.25 157.147 1223.71 157.96C1224.16 158.76 1224.39 159.687 1224.39 160.74C1224.39 161.807 1224.16 162.74 1223.71 163.54C1223.25 164.34 1222.63 164.967 1221.83 165.42C1221.04 165.873 1220.15 166.1 1219.15 166.1ZM1213.73 169.88V155.5H1215.09V158.66L1214.95 160.76L1215.15 162.88V169.88H1213.73ZM1219.05 164.84C1219.79 164.84 1220.46 164.673 1221.05 164.34C1221.63 163.993 1222.1 163.513 1222.45 162.9C1222.79 162.273 1222.97 161.553 1222.97 160.74C1222.97 159.927 1222.79 159.213 1222.45 158.6C1222.1 157.987 1221.63 157.507 1221.05 157.16C1220.46 156.813 1219.79 156.64 1219.05 156.64C1218.3 156.64 1217.63 156.813 1217.03 157.16C1216.44 157.507 1215.97 157.987 1215.63 158.6C1215.29 159.213 1215.13 159.927 1215.13 160.74C1215.13 161.553 1215.29 162.273 1215.63 162.9C1215.97 163.513 1216.44 163.993 1217.03 164.34C1217.63 164.673 1218.3 164.84 1219.05 164.84ZM1232.1 166.1C1231.23 166.1 1230.41 165.98 1229.64 165.74C1228.87 165.487 1228.26 165.173 1227.82 164.8L1228.46 163.68C1228.89 164 1229.43 164.28 1230.1 164.52C1230.77 164.747 1231.47 164.86 1232.2 164.86C1233.2 164.86 1233.92 164.707 1234.36 164.4C1234.8 164.08 1235.02 163.66 1235.02 163.14C1235.02 162.753 1234.89 162.453 1234.64 162.24C1234.4 162.013 1234.08 161.847 1233.68 161.74C1233.28 161.62 1232.83 161.52 1232.34 161.44C1231.85 161.36 1231.35 161.267 1230.86 161.16C1230.38 161.053 1229.94 160.9 1229.54 160.7C1229.14 160.487 1228.81 160.2 1228.56 159.84C1228.32 159.48 1228.2 159 1228.2 158.4C1228.2 157.827 1228.36 157.313 1228.68 156.86C1229 156.407 1229.47 156.053 1230.08 155.8C1230.71 155.533 1231.47 155.4 1232.36 155.4C1233.04 155.4 1233.72 155.493 1234.4 155.68C1235.08 155.853 1235.64 156.087 1236.08 156.38L1235.46 157.52C1234.99 157.2 1234.49 156.973 1233.96 156.84C1233.43 156.693 1232.89 156.62 1232.36 156.62C1231.41 156.62 1230.71 156.787 1230.26 157.12C1229.82 157.44 1229.6 157.853 1229.6 158.36C1229.6 158.76 1229.72 159.073 1229.96 159.3C1230.21 159.527 1230.54 159.707 1230.94 159.84C1231.35 159.96 1231.8 160.06 1232.28 160.14C1232.77 160.22 1233.26 160.32 1233.74 160.44C1234.23 160.547 1234.68 160.7 1235.08 160.9C1235.49 161.087 1235.82 161.36 1236.06 161.72C1236.31 162.067 1236.44 162.527 1236.44 163.1C1236.44 163.713 1236.27 164.247 1235.92 164.7C1235.59 165.14 1235.09 165.487 1234.44 165.74C1233.8 165.98 1233.02 166.1 1232.1 166.1ZM1245.39 166.1C1244.49 166.1 1243.71 165.933 1243.05 165.6C1242.38 165.267 1241.86 164.767 1241.49 164.1C1241.13 163.433 1240.95 162.6 1240.95 161.6V155.5H1242.37V161.44C1242.37 162.56 1242.64 163.407 1243.19 163.98C1243.75 164.54 1244.53 164.82 1245.53 164.82C1246.26 164.82 1246.89 164.673 1247.43 164.38C1247.97 164.073 1248.39 163.633 1248.67 163.06C1248.96 162.487 1249.11 161.8 1249.11 161V155.5H1250.53V166H1249.17V163.12L1249.39 163.64C1249.05 164.413 1248.53 165.02 1247.83 165.46C1247.13 165.887 1246.32 166.1 1245.39 166.1ZM1269.6 155.4C1270.46 155.4 1271.2 155.567 1271.82 155.9C1272.46 156.22 1272.96 156.713 1273.3 157.38C1273.66 158.047 1273.84 158.887 1273.84 159.9V166H1272.42V160.04C1272.42 158.933 1272.16 158.1 1271.62 157.54C1271.1 156.967 1270.36 156.68 1269.4 156.68C1268.68 156.68 1268.06 156.833 1267.52 157.14C1267 157.433 1266.6 157.867 1266.3 158.44C1266.02 159 1265.88 159.68 1265.88 160.48V166H1264.46V160.04C1264.46 158.933 1264.2 158.1 1263.66 157.54C1263.13 156.967 1262.38 156.68 1261.42 156.68C1260.72 156.68 1260.1 156.833 1259.56 157.14C1259.03 157.433 1258.62 157.867 1258.32 158.44C1258.04 159 1257.9 159.68 1257.9 160.48V166H1256.48V155.5H1257.84V158.34L1257.62 157.84C1257.94 157.08 1258.46 156.487 1259.16 156.06C1259.88 155.62 1260.73 155.4 1261.7 155.4C1262.73 155.4 1263.6 155.66 1264.32 156.18C1265.04 156.687 1265.51 157.453 1265.72 158.48L1265.16 158.26C1265.47 157.407 1266.01 156.72 1266.78 156.2C1267.57 155.667 1268.51 155.4 1269.6 155.4ZM1291.11 166.1C1290.11 166.1 1289.21 165.873 1288.41 165.42C1287.62 164.967 1287 164.34 1286.55 163.54C1286.1 162.727 1285.87 161.793 1285.87 160.74C1285.87 159.673 1286.1 158.74 1286.55 157.94C1287 157.14 1287.62 156.52 1288.41 156.08C1289.21 155.627 1290.11 155.4 1291.11 155.4C1292.03 155.4 1292.85 155.607 1293.57 156.02C1294.3 156.433 1294.88 157.04 1295.31 157.84C1295.75 158.627 1295.97 159.593 1295.97 160.74C1295.97 161.873 1295.76 162.84 1295.33 163.64C1294.9 164.44 1294.32 165.053 1293.59 165.48C1292.87 165.893 1292.04 166.1 1291.11 166.1ZM1291.21 164.84C1291.96 164.84 1292.62 164.673 1293.21 164.34C1293.81 163.993 1294.28 163.513 1294.61 162.9C1294.96 162.273 1295.13 161.553 1295.13 160.74C1295.13 159.913 1294.96 159.193 1294.61 158.58C1294.28 157.967 1293.81 157.493 1293.21 157.16C1292.62 156.813 1291.96 156.64 1291.21 156.64C1290.48 156.64 1289.82 156.813 1289.23 157.16C1288.64 157.493 1288.18 157.967 1287.83 158.58C1287.48 159.193 1287.31 159.913 1287.31 160.74C1287.31 161.553 1287.48 162.273 1287.83 162.9C1288.18 163.513 1288.64 163.993 1289.23 164.34C1289.82 164.673 1290.48 164.84 1291.21 164.84ZM1295.17 166V162.84L1295.31 160.72L1295.11 158.6V151.16H1296.53V166H1295.17ZM1306.76 166.1C1305.75 166.1 1304.84 165.873 1304.02 165.42C1303.22 164.953 1302.59 164.32 1302.12 163.52C1301.66 162.707 1301.42 161.78 1301.42 160.74C1301.42 159.687 1301.66 158.76 1302.12 157.96C1302.59 157.16 1303.22 156.533 1304.02 156.08C1304.82 155.627 1305.74 155.4 1306.76 155.4C1307.8 155.4 1308.72 155.627 1309.52 156.08C1310.34 156.533 1310.97 157.16 1311.42 157.96C1311.89 158.76 1312.12 159.687 1312.12 160.74C1312.12 161.78 1311.89 162.707 1311.42 163.52C1310.97 164.32 1310.34 164.953 1309.52 165.42C1308.71 165.873 1307.79 166.1 1306.76 166.1ZM1306.76 164.84C1307.52 164.84 1308.2 164.673 1308.78 164.34C1309.37 163.993 1309.83 163.513 1310.16 162.9C1310.51 162.273 1310.68 161.553 1310.68 160.74C1310.68 159.913 1310.51 159.193 1310.16 158.58C1309.83 157.967 1309.37 157.493 1308.78 157.16C1308.2 156.813 1307.53 156.64 1306.78 156.64C1306.04 156.64 1305.37 156.813 1304.78 157.16C1304.2 157.493 1303.73 157.967 1303.38 158.58C1303.04 159.193 1302.86 159.913 1302.86 160.74C1302.86 161.553 1303.04 162.273 1303.38 162.9C1303.73 163.513 1304.2 163.993 1304.78 164.34C1305.37 164.673 1306.03 164.84 1306.76 164.84ZM1317.02 166V151.16H1318.44V166H1317.02ZM1328.67 166.1C1327.66 166.1 1326.75 165.873 1325.93 165.42C1325.13 164.953 1324.5 164.32 1324.03 163.52C1323.57 162.707 1323.33 161.78 1323.33 160.74C1323.33 159.687 1323.57 158.76 1324.03 157.96C1324.5 157.16 1325.13 156.533 1325.93 156.08C1326.73 155.627 1327.65 155.4 1328.67 155.4C1329.71 155.4 1330.63 155.627 1331.43 156.08C1332.25 156.533 1332.88 157.16 1333.33 157.96C1333.8 158.76 1334.03 159.687 1334.03 160.74C1334.03 161.78 1333.8 162.707 1333.33 163.52C1332.88 164.32 1332.25 164.953 1331.43 165.42C1330.62 165.873 1329.7 166.1 1328.67 166.1ZM1328.67 164.84C1329.43 164.84 1330.11 164.673 1330.69 164.34C1331.28 163.993 1331.74 163.513 1332.07 162.9C1332.42 162.273 1332.59 161.553 1332.59 160.74C1332.59 159.913 1332.42 159.193 1332.07 158.58C1331.74 157.967 1331.28 157.493 1330.69 157.16C1330.11 156.813 1329.44 156.64 1328.69 156.64C1327.95 156.64 1327.28 156.813 1326.69 157.16C1326.11 157.493 1325.64 157.967 1325.29 158.58C1324.95 159.193 1324.77 159.913 1324.77 160.74C1324.77 161.553 1324.95 162.273 1325.29 162.9C1325.64 163.513 1326.11 163.993 1326.69 164.34C1327.28 164.673 1327.94 164.84 1328.67 164.84ZM1338.93 166V155.5H1340.29V158.36L1340.15 157.86C1340.45 157.06 1340.94 156.453 1341.63 156.04C1342.33 155.613 1343.19 155.4 1344.21 155.4V156.78C1344.16 156.78 1344.11 156.78 1344.05 156.78C1344 156.767 1343.95 156.76 1343.89 156.76C1342.79 156.76 1341.92 157.1 1341.29 157.78C1340.67 158.447 1340.35 159.4 1340.35 160.64V166H1338.93ZM1359.01 166.1C1358.15 166.1 1357.33 165.98 1356.55 165.74C1355.78 165.487 1355.17 165.173 1354.73 164.8L1355.37 163.68C1355.8 164 1356.35 164.28 1357.01 164.52C1357.68 164.747 1358.38 164.86 1359.11 164.86C1360.11 164.86 1360.83 164.707 1361.27 164.4C1361.71 164.08 1361.93 163.66 1361.93 163.14C1361.93 162.753 1361.81 162.453 1361.55 162.24C1361.31 162.013 1360.99 161.847 1360.59 161.74C1360.19 161.62 1359.75 161.52 1359.25 161.44C1358.76 161.36 1358.27 161.267 1357.77 161.16C1357.29 161.053 1356.85 160.9 1356.45 160.7C1356.05 160.487 1355.73 160.2 1355.47 159.84C1355.23 159.48 1355.11 159 1355.11 158.4C1355.11 157.827 1355.27 157.313 1355.59 156.86C1355.91 156.407 1356.38 156.053 1356.99 155.8C1357.62 155.533 1358.38 155.4 1359.27 155.4C1359.95 155.4 1360.63 155.493 1361.31 155.68C1361.99 155.853 1362.55 156.087 1362.99 156.38L1362.37 157.52C1361.91 157.2 1361.41 156.973 1360.87 156.84C1360.34 156.693 1359.81 156.62 1359.27 156.62C1358.33 156.62 1357.63 156.787 1357.17 157.12C1356.73 157.44 1356.51 157.853 1356.51 158.36C1356.51 158.76 1356.63 159.073 1356.87 159.3C1357.13 159.527 1357.45 159.707 1357.85 159.84C1358.27 159.96 1358.71 160.06 1359.19 160.14C1359.69 160.22 1360.17 160.32 1360.65 160.44C1361.15 160.547 1361.59 160.7 1361.99 160.9C1362.41 161.087 1362.73 161.36 1362.97 161.72C1363.23 162.067 1363.35 162.527 1363.35 163.1C1363.35 163.713 1363.18 164.247 1362.83 164.7C1362.5 165.14 1362.01 165.487 1361.35 165.74C1360.71 165.98 1359.93 166.1 1359.01 166.1ZM1367.96 166V155.5H1369.38V166H1367.96ZM1368.68 153.18C1368.39 153.18 1368.14 153.08 1367.94 152.88C1367.74 152.68 1367.64 152.44 1367.64 152.16C1367.64 151.88 1367.74 151.647 1367.94 151.46C1368.14 151.26 1368.39 151.16 1368.68 151.16C1368.97 151.16 1369.22 151.253 1369.42 151.44C1369.62 151.627 1369.72 151.86 1369.72 152.14C1369.72 152.433 1369.62 152.68 1369.42 152.88C1369.23 153.08 1368.99 153.18 1368.68 153.18ZM1378.65 166.1C1377.66 166.1 1376.9 165.833 1376.37 165.3C1375.84 164.767 1375.57 164.013 1375.57 163.04V153.18H1376.99V162.96C1376.99 163.573 1377.14 164.047 1377.45 164.38C1377.77 164.713 1378.22 164.88 1378.81 164.88C1379.44 164.88 1379.96 164.7 1380.37 164.34L1380.87 165.36C1380.59 165.613 1380.25 165.8 1379.85 165.92C1379.46 166.04 1379.06 166.1 1378.65 166.1ZM1373.69 156.68V155.5H1380.19V156.68H1373.69ZM1399.27 166V163.68L1399.21 163.3V159.42C1399.21 158.527 1398.96 157.84 1398.45 157.36C1397.96 156.88 1397.22 156.64 1396.23 156.64C1395.55 156.64 1394.9 156.753 1394.29 156.98C1393.68 157.207 1393.16 157.507 1392.73 157.88L1392.09 156.82C1392.62 156.367 1393.26 156.02 1394.01 155.78C1394.76 155.527 1395.54 155.4 1396.37 155.4C1397.73 155.4 1398.78 155.74 1399.51 156.42C1400.26 157.087 1400.63 158.107 1400.63 159.48V166H1399.27ZM1395.65 166.1C1394.86 166.1 1394.18 165.973 1393.59 165.72C1393.02 165.453 1392.58 165.093 1392.27 164.64C1391.96 164.173 1391.81 163.64 1391.81 163.04C1391.81 162.493 1391.94 162 1392.19 161.56C1392.46 161.107 1392.88 160.747 1393.47 160.48C1394.07 160.2 1394.87 160.06 1395.87 160.06H1399.49V161.12H1395.91C1394.9 161.12 1394.19 161.3 1393.79 161.66C1393.4 162.02 1393.21 162.467 1393.21 163C1393.21 163.6 1393.44 164.08 1393.91 164.44C1394.38 164.8 1395.03 164.98 1395.87 164.98C1396.67 164.98 1397.36 164.8 1397.93 164.44C1398.52 164.067 1398.94 163.533 1399.21 162.84L1399.53 163.82C1399.26 164.513 1398.8 165.067 1398.13 165.48C1397.48 165.893 1396.65 166.1 1395.65 166.1ZM1419.61 155.4C1420.46 155.4 1421.2 155.567 1421.83 155.9C1422.47 156.22 1422.96 156.713 1423.31 157.38C1423.67 158.047 1423.85 158.887 1423.85 159.9V166H1422.43V160.04C1422.43 158.933 1422.16 158.1 1421.63 157.54C1421.11 156.967 1420.37 156.68 1419.41 156.68C1418.69 156.68 1418.06 156.833 1417.53 157.14C1417.01 157.433 1416.6 157.867 1416.31 158.44C1416.03 159 1415.89 159.68 1415.89 160.48V166H1414.47V160.04C1414.47 158.933 1414.2 158.1 1413.67 157.54C1413.13 156.967 1412.39 156.68 1411.43 156.68C1410.72 156.68 1410.1 156.833 1409.57 157.14C1409.03 157.433 1408.62 157.867 1408.33 158.44C1408.05 159 1407.91 159.68 1407.91 160.48V166H1406.49V155.5H1407.85V158.34L1407.63 157.84C1407.95 157.08 1408.46 156.487 1409.17 156.06C1409.89 155.62 1410.73 155.4 1411.71 155.4C1412.73 155.4 1413.61 155.66 1414.33 156.18C1415.05 156.687 1415.51 157.453 1415.73 158.48L1415.17 158.26C1415.47 157.407 1416.01 156.72 1416.79 156.2C1417.57 155.667 1418.51 155.4 1419.61 155.4ZM1434.16 166.1C1433.07 166.1 1432.11 165.873 1431.28 165.42C1430.45 164.953 1429.81 164.32 1429.34 163.52C1428.87 162.707 1428.64 161.78 1428.64 160.74C1428.64 159.7 1428.86 158.78 1429.3 157.98C1429.75 157.18 1430.37 156.553 1431.14 156.1C1431.93 155.633 1432.81 155.4 1433.78 155.4C1434.77 155.4 1435.64 155.627 1436.4 156.08C1437.17 156.52 1437.78 157.147 1438.22 157.96C1438.66 158.76 1438.88 159.687 1438.88 160.74C1438.88 160.807 1438.87 160.88 1438.86 160.96C1438.86 161.027 1438.86 161.1 1438.86 161.18H1429.72V160.12H1438.1L1437.54 160.54C1437.54 159.78 1437.37 159.107 1437.04 158.52C1436.72 157.92 1436.28 157.453 1435.72 157.12C1435.16 156.787 1434.51 156.62 1433.78 156.62C1433.06 156.62 1432.41 156.787 1431.84 157.12C1431.27 157.453 1430.82 157.92 1430.5 158.52C1430.18 159.12 1430.02 159.807 1430.02 160.58V160.8C1430.02 161.6 1430.19 162.307 1430.54 162.92C1430.9 163.52 1431.39 163.993 1432.02 164.34C1432.66 164.673 1433.39 164.84 1434.2 164.84C1434.84 164.84 1435.43 164.727 1435.98 164.5C1436.54 164.273 1437.02 163.927 1437.42 163.46L1438.22 164.38C1437.75 164.94 1437.17 165.367 1436.46 165.66C1435.77 165.953 1435 166.1 1434.16 166.1ZM1447.09 166.1C1446.1 166.1 1445.34 165.833 1444.81 165.3C1444.28 164.767 1444.01 164.013 1444.01 163.04V153.18H1445.43V162.96C1445.43 163.573 1445.58 164.047 1445.89 164.38C1446.21 164.713 1446.66 164.88 1447.25 164.88C1447.88 164.88 1448.4 164.7 1448.81 164.34L1449.31 165.36C1449.03 165.613 1448.69 165.8 1448.29 165.92C1447.9 166.04 1447.5 166.1 1447.09 166.1ZM1442.13 156.68V155.5H1448.63V156.68H1442.13ZM1453.23 168.92L1454.11 165.22L1454.27 166.08C1453.96 166.08 1453.7 165.98 1453.49 165.78C1453.29 165.58 1453.19 165.32 1453.19 165C1453.19 164.68 1453.29 164.42 1453.49 164.22C1453.7 164.02 1453.96 163.92 1454.25 163.92C1454.56 163.92 1454.8 164.027 1454.99 164.24C1455.19 164.453 1455.29 164.707 1455.29 165C1455.29 165.107 1455.28 165.213 1455.27 165.32C1455.26 165.427 1455.23 165.547 1455.19 165.68C1455.15 165.813 1455.1 165.973 1455.03 166.16L1454.19 168.92H1453.23ZM1472.02 166.1C1470.93 166.1 1469.97 165.873 1469.14 165.42C1468.32 164.953 1467.67 164.32 1467.2 163.52C1466.74 162.707 1466.5 161.78 1466.5 160.74C1466.5 159.7 1466.72 158.78 1467.16 157.98C1467.62 157.18 1468.23 156.553 1469 156.1C1469.79 155.633 1470.67 155.4 1471.64 155.4C1472.63 155.4 1473.5 155.627 1474.26 156.08C1475.04 156.52 1475.64 157.147 1476.08 157.96C1476.52 158.76 1476.74 159.687 1476.74 160.74C1476.74 160.807 1476.74 160.88 1476.72 160.96C1476.72 161.027 1476.72 161.1 1476.72 161.18H1467.58V160.12H1475.96L1475.4 160.54C1475.4 159.78 1475.24 159.107 1474.9 158.52C1474.58 157.92 1474.14 157.453 1473.58 157.12C1473.02 156.787 1472.38 156.62 1471.64 156.62C1470.92 156.62 1470.28 156.787 1469.7 157.12C1469.13 157.453 1468.68 157.92 1468.36 158.52C1468.04 159.12 1467.88 159.807 1467.88 160.58V160.8C1467.88 161.6 1468.06 162.307 1468.4 162.92C1468.76 163.52 1469.26 163.993 1469.88 164.34C1470.52 164.673 1471.25 164.84 1472.06 164.84C1472.7 164.84 1473.3 164.727 1473.84 164.5C1474.4 164.273 1474.88 163.927 1475.28 163.46L1476.08 164.38C1475.62 164.94 1475.03 165.367 1474.32 165.66C1473.63 165.953 1472.86 166.1 1472.02 166.1ZM1487.92 166V163.68L1487.86 163.3V159.42C1487.86 158.527 1487.61 157.84 1487.1 157.36C1486.61 156.88 1485.87 156.64 1484.88 156.64C1484.2 156.64 1483.55 156.753 1482.94 156.98C1482.33 157.207 1481.81 157.507 1481.38 157.88L1480.74 156.82C1481.27 156.367 1481.91 156.02 1482.66 155.78C1483.41 155.527 1484.19 155.4 1485.02 155.4C1486.38 155.4 1487.43 155.74 1488.16 156.42C1488.91 157.087 1489.28 158.107 1489.28 159.48V166H1487.92ZM1484.3 166.1C1483.51 166.1 1482.83 165.973 1482.24 165.72C1481.67 165.453 1481.23 165.093 1480.92 164.64C1480.61 164.173 1480.46 163.64 1480.46 163.04C1480.46 162.493 1480.59 162 1480.84 161.56C1481.11 161.107 1481.53 160.747 1482.12 160.48C1482.72 160.2 1483.52 160.06 1484.52 160.06H1488.14V161.12H1484.56C1483.55 161.12 1482.84 161.3 1482.44 161.66C1482.05 162.02 1481.86 162.467 1481.86 163C1481.86 163.6 1482.09 164.08 1482.56 164.44C1483.03 164.8 1483.68 164.98 1484.52 164.98C1485.32 164.98 1486.01 164.8 1486.58 164.44C1487.17 164.067 1487.59 163.533 1487.86 162.84L1488.18 163.82C1487.91 164.513 1487.45 165.067 1486.78 165.48C1486.13 165.893 1485.3 166.1 1484.3 166.1ZM1498.46 166.1C1497.47 166.1 1496.71 165.833 1496.18 165.3C1495.64 164.767 1495.38 164.013 1495.38 163.04V153.18H1496.8V162.96C1496.8 163.573 1496.95 164.047 1497.26 164.38C1497.58 164.713 1498.03 164.88 1498.62 164.88C1499.24 164.88 1499.76 164.7 1500.18 164.34L1500.68 165.36C1500.4 165.613 1500.06 165.8 1499.66 165.92C1499.27 166.04 1498.87 166.1 1498.46 166.1ZM1493.5 156.68V155.5H1500V156.68H1493.5ZM1508.08 166.1C1507.21 166.1 1506.39 165.98 1505.62 165.74C1504.85 165.487 1504.24 165.173 1503.8 164.8L1504.44 163.68C1504.87 164 1505.41 164.28 1506.08 164.52C1506.75 164.747 1507.45 164.86 1508.18 164.86C1509.18 164.86 1509.9 164.707 1510.34 164.4C1510.78 164.08 1511 163.66 1511 163.14C1511 162.753 1510.87 162.453 1510.62 162.24C1510.38 162.013 1510.06 161.847 1509.66 161.74C1509.26 161.62 1508.81 161.52 1508.32 161.44C1507.83 161.36 1507.33 161.267 1506.84 161.16C1506.36 161.053 1505.92 160.9 1505.52 160.7C1505.12 160.487 1504.79 160.2 1504.54 159.84C1504.3 159.48 1504.18 159 1504.18 158.4C1504.18 157.827 1504.34 157.313 1504.66 156.86C1504.98 156.407 1505.45 156.053 1506.06 155.8C1506.69 155.533 1507.45 155.4 1508.34 155.4C1509.02 155.4 1509.7 155.493 1510.38 155.68C1511.06 155.853 1511.62 156.087 1512.06 156.38L1511.44 157.52C1510.97 157.2 1510.47 156.973 1509.94 156.84C1509.41 156.693 1508.87 156.62 1508.34 156.62C1507.39 156.62 1506.69 156.787 1506.24 157.12C1505.8 157.44 1505.58 157.853 1505.58 158.36C1505.58 158.76 1505.7 159.073 1505.94 159.3C1506.19 159.527 1506.52 159.707 1506.92 159.84C1507.33 159.96 1507.78 160.06 1508.26 160.14C1508.75 160.22 1509.24 160.32 1509.72 160.44C1510.21 160.547 1510.66 160.7 1511.06 160.9C1511.47 161.087 1511.8 161.36 1512.04 161.72C1512.29 162.067 1512.42 162.527 1512.42 163.1C1512.42 163.713 1512.25 164.247 1511.9 164.7C1511.57 165.14 1511.07 165.487 1510.42 165.74C1509.78 165.98 1509 166.1 1508.08 166.1ZM1163.26 216.1C1162.25 216.1 1161.33 215.873 1160.52 215.42C1159.72 214.953 1159.09 214.32 1158.62 213.52C1158.15 212.707 1157.92 211.78 1157.92 210.74C1157.92 209.687 1158.15 208.76 1158.62 207.96C1159.09 207.16 1159.72 206.533 1160.52 206.08C1161.32 205.627 1162.23 205.4 1163.26 205.4C1164.3 205.4 1165.22 205.627 1166.02 206.08C1166.83 206.533 1167.47 207.16 1167.92 207.96C1168.39 208.76 1168.62 209.687 1168.62 210.74C1168.62 211.78 1168.39 212.707 1167.92 213.52C1167.47 214.32 1166.83 214.953 1166.02 215.42C1165.21 215.873 1164.29 216.1 1163.26 216.1ZM1163.26 214.84C1164.02 214.84 1164.69 214.673 1165.28 214.34C1165.87 213.993 1166.33 213.513 1166.66 212.9C1167.01 212.273 1167.18 211.553 1167.18 210.74C1167.18 209.913 1167.01 209.193 1166.66 208.58C1166.33 207.967 1165.87 207.493 1165.28 207.16C1164.69 206.813 1164.03 206.64 1163.28 206.64C1162.53 206.64 1161.87 206.813 1161.28 207.16C1160.69 207.493 1160.23 207.967 1159.88 208.58C1159.53 209.193 1159.36 209.913 1159.36 210.74C1159.36 211.553 1159.53 212.273 1159.88 212.9C1160.23 213.513 1160.69 213.993 1161.28 214.34C1161.87 214.673 1162.53 214.84 1163.26 214.84ZM1175.37 216L1171.41 205.5H1172.77L1176.37 215.24H1175.75L1179.45 205.5H1180.67L1184.33 215.24H1183.71L1187.37 205.5H1188.67L1184.69 216H1183.35L1179.83 206.84H1180.25L1176.71 216H1175.37ZM1198.16 205.4C1199.02 205.4 1199.76 205.567 1200.4 205.9C1201.06 206.22 1201.56 206.713 1201.92 207.38C1202.3 208.047 1202.48 208.887 1202.48 209.9V216H1201.06V210.04C1201.06 208.933 1200.78 208.1 1200.22 207.54C1199.68 206.967 1198.9 206.68 1197.9 206.68C1197.16 206.68 1196.5 206.833 1195.94 207.14C1195.4 207.433 1194.97 207.867 1194.66 208.44C1194.37 209 1194.22 209.68 1194.22 210.48V216H1192.8V205.5H1194.16V208.38L1193.94 207.84C1194.28 207.08 1194.81 206.487 1195.54 206.06C1196.28 205.62 1197.15 205.4 1198.16 205.4ZM1212.78 216.1C1211.69 216.1 1210.73 215.873 1209.9 215.42C1209.07 214.953 1208.43 214.32 1207.96 213.52C1207.49 212.707 1207.26 211.78 1207.26 210.74C1207.26 209.7 1207.48 208.78 1207.92 207.98C1208.37 207.18 1208.99 206.553 1209.76 206.1C1210.55 205.633 1211.43 205.4 1212.4 205.4C1213.39 205.4 1214.26 205.627 1215.02 206.08C1215.79 206.52 1216.4 207.147 1216.84 207.96C1217.28 208.76 1217.5 209.687 1217.5 210.74C1217.5 210.807 1217.49 210.88 1217.48 210.96C1217.48 211.027 1217.48 211.1 1217.48 211.18H1208.34V210.12H1216.72L1216.16 210.54C1216.16 209.78 1215.99 209.107 1215.66 208.52C1215.34 207.92 1214.9 207.453 1214.34 207.12C1213.78 206.787 1213.13 206.62 1212.4 206.62C1211.68 206.62 1211.03 206.787 1210.46 207.12C1209.89 207.453 1209.44 207.92 1209.12 208.52C1208.8 209.12 1208.64 209.807 1208.64 210.58V210.8C1208.64 211.6 1208.81 212.307 1209.16 212.92C1209.52 213.52 1210.01 213.993 1210.64 214.34C1211.28 214.673 1212.01 214.84 1212.82 214.84C1213.46 214.84 1214.05 214.727 1214.6 214.5C1215.16 214.273 1215.64 213.927 1216.04 213.46L1216.84 214.38C1216.37 214.94 1215.79 215.367 1215.08 215.66C1214.39 215.953 1213.62 216.1 1212.78 216.1ZM1222.39 216V205.5H1223.75V208.36L1223.61 207.86C1223.9 207.06 1224.4 206.453 1225.09 206.04C1225.78 205.613 1226.64 205.4 1227.67 205.4V206.78C1227.62 206.78 1227.56 206.78 1227.51 206.78C1227.46 206.767 1227.4 206.76 1227.35 206.76C1226.24 206.76 1225.38 207.1 1224.75 207.78C1224.12 208.447 1223.81 209.4 1223.81 210.64V216H1222.39ZM1235.2 216.1C1234.33 216.1 1233.51 215.98 1232.74 215.74C1231.97 215.487 1231.36 215.173 1230.92 214.8L1231.56 213.68C1231.99 214 1232.53 214.28 1233.2 214.52C1233.87 214.747 1234.57 214.86 1235.3 214.86C1236.3 214.86 1237.02 214.707 1237.46 214.4C1237.9 214.08 1238.12 213.66 1238.12 213.14C1238.12 212.753 1237.99 212.453 1237.74 212.24C1237.5 212.013 1237.18 211.847 1236.78 211.74C1236.38 211.62 1235.93 211.52 1235.44 211.44C1234.95 211.36 1234.45 211.267 1233.96 211.16C1233.48 211.053 1233.04 210.9 1232.64 210.7C1232.24 210.487 1231.91 210.2 1231.66 209.84C1231.42 209.48 1231.3 209 1231.3 208.4C1231.3 207.827 1231.46 207.313 1231.78 206.86C1232.1 206.407 1232.57 206.053 1233.18 205.8C1233.81 205.533 1234.57 205.4 1235.46 205.4C1236.14 205.4 1236.82 205.493 1237.5 205.68C1238.18 205.853 1238.74 206.087 1239.18 206.38L1238.56 207.52C1238.09 207.2 1237.59 206.973 1237.06 206.84C1236.53 206.693 1235.99 206.62 1235.46 206.62C1234.51 206.62 1233.81 206.787 1233.36 207.12C1232.92 207.44 1232.7 207.853 1232.7 208.36C1232.7 208.76 1232.82 209.073 1233.06 209.3C1233.31 209.527 1233.64 209.707 1234.04 209.84C1234.45 209.96 1234.9 210.06 1235.38 210.14C1235.87 210.22 1236.36 210.32 1236.84 210.44C1237.33 210.547 1237.78 210.7 1238.18 210.9C1238.59 211.087 1238.92 211.36 1239.16 211.72C1239.41 212.067 1239.54 212.527 1239.54 213.1C1239.54 213.713 1239.37 214.247 1239.02 214.7C1238.69 215.14 1238.19 215.487 1237.54 215.74C1236.9 215.98 1236.12 216.1 1235.2 216.1ZM1256.74 205.4C1257.59 205.4 1258.34 205.567 1258.98 205.9C1259.63 206.22 1260.14 206.713 1260.5 207.38C1260.87 208.047 1261.06 208.887 1261.06 209.9V216H1259.64V210.04C1259.64 208.933 1259.36 208.1 1258.8 207.54C1258.25 206.967 1257.48 206.68 1256.48 206.68C1255.73 206.68 1255.08 206.833 1254.52 207.14C1253.97 207.433 1253.55 207.867 1253.24 208.44C1252.95 209 1252.8 209.68 1252.8 210.48V216H1251.38V201.16H1252.8V208.38L1252.52 207.84C1252.85 207.08 1253.39 206.487 1254.12 206.06C1254.85 205.62 1255.73 205.4 1256.74 205.4ZM1273.47 216V213.68L1273.41 213.3V209.42C1273.41 208.527 1273.16 207.84 1272.65 207.36C1272.16 206.88 1271.42 206.64 1270.43 206.64C1269.75 206.64 1269.11 206.753 1268.49 206.98C1267.88 207.207 1267.36 207.507 1266.93 207.88L1266.29 206.82C1266.83 206.367 1267.47 206.02 1268.21 205.78C1268.96 205.527 1269.75 205.4 1270.57 205.4C1271.93 205.4 1272.98 205.74 1273.71 206.42C1274.46 207.087 1274.83 208.107 1274.83 209.48V216H1273.47ZM1269.85 216.1C1269.07 216.1 1268.38 215.973 1267.79 215.72C1267.22 215.453 1266.78 215.093 1266.47 214.64C1266.17 214.173 1266.01 213.64 1266.01 213.04C1266.01 212.493 1266.14 212 1266.39 211.56C1266.66 211.107 1267.09 210.747 1267.67 210.48C1268.27 210.2 1269.07 210.06 1270.07 210.06H1273.69V211.12H1270.11C1269.1 211.12 1268.39 211.3 1267.99 211.66C1267.61 212.02 1267.41 212.467 1267.41 213C1267.41 213.6 1267.65 214.08 1268.11 214.44C1268.58 214.8 1269.23 214.98 1270.07 214.98C1270.87 214.98 1271.56 214.8 1272.13 214.44C1272.72 214.067 1273.15 213.533 1273.41 212.84L1273.73 213.82C1273.47 214.513 1273 215.067 1272.33 215.48C1271.68 215.893 1270.85 216.1 1269.85 216.1ZM1280.69 216V205.5H1282.11V216H1280.69ZM1281.41 203.18C1281.12 203.18 1280.87 203.08 1280.67 202.88C1280.47 202.68 1280.37 202.44 1280.37 202.16C1280.37 201.88 1280.47 201.647 1280.67 201.46C1280.87 201.26 1281.12 201.16 1281.41 201.16C1281.7 201.16 1281.95 201.253 1282.15 201.44C1282.35 201.627 1282.45 201.86 1282.45 202.14C1282.45 202.433 1282.35 202.68 1282.15 202.88C1281.96 203.08 1281.72 203.18 1281.41 203.18ZM1288.06 216V205.5H1289.42V208.36L1289.28 207.86C1289.58 207.06 1290.07 206.453 1290.76 206.04C1291.46 205.613 1292.32 205.4 1293.34 205.4V206.78C1293.29 206.78 1293.24 206.78 1293.18 206.78C1293.13 206.767 1293.08 206.76 1293.02 206.76C1291.92 206.76 1291.05 207.1 1290.42 207.78C1289.8 208.447 1289.48 209.4 1289.48 210.64V216H1288.06ZM1308.64 216.1C1307.66 216.1 1306.9 215.833 1306.36 215.3C1305.83 214.767 1305.56 214.013 1305.56 213.04V203.18H1306.98V212.96C1306.98 213.573 1307.14 214.047 1307.44 214.38C1307.76 214.713 1308.22 214.88 1308.8 214.88C1309.43 214.88 1309.95 214.7 1310.36 214.34L1310.86 215.36C1310.58 215.613 1310.24 215.8 1309.84 215.92C1309.46 216.04 1309.06 216.1 1308.64 216.1ZM1303.68 206.68V205.5H1310.18V206.68H1303.68ZM1320.81 205.4C1321.66 205.4 1322.41 205.567 1323.05 205.9C1323.7 206.22 1324.21 206.713 1324.57 207.38C1324.94 208.047 1325.13 208.887 1325.13 209.9V216H1323.71V210.04C1323.71 208.933 1323.43 208.1 1322.87 207.54C1322.32 206.967 1321.55 206.68 1320.55 206.68C1319.8 206.68 1319.15 206.833 1318.59 207.14C1318.04 207.433 1317.62 207.867 1317.31 208.44C1317.02 209 1316.87 209.68 1316.87 210.48V216H1315.45V201.16H1316.87V208.38L1316.59 207.84C1316.92 207.08 1317.46 206.487 1318.19 206.06C1318.92 205.62 1319.8 205.4 1320.81 205.4ZM1335.42 216.1C1334.33 216.1 1333.37 215.873 1332.54 215.42C1331.72 214.953 1331.07 214.32 1330.6 213.52C1330.14 212.707 1329.9 211.78 1329.9 210.74C1329.9 209.7 1330.12 208.78 1330.56 207.98C1331.02 207.18 1331.63 206.553 1332.4 206.1C1333.19 205.633 1334.07 205.4 1335.04 205.4C1336.03 205.4 1336.9 205.627 1337.66 206.08C1338.44 206.52 1339.04 207.147 1339.48 207.96C1339.92 208.76 1340.14 209.687 1340.14 210.74C1340.14 210.807 1340.14 210.88 1340.12 210.96C1340.12 211.027 1340.12 211.1 1340.12 211.18H1330.98V210.12H1339.36L1338.8 210.54C1338.8 209.78 1338.64 209.107 1338.3 208.52C1337.98 207.92 1337.54 207.453 1336.98 207.12C1336.42 206.787 1335.78 206.62 1335.04 206.62C1334.32 206.62 1333.68 206.787 1333.1 207.12C1332.53 207.453 1332.08 207.92 1331.76 208.52C1331.44 209.12 1331.28 209.807 1331.28 210.58V210.8C1331.28 211.6 1331.46 212.307 1331.8 212.92C1332.16 213.52 1332.66 213.993 1333.28 214.34C1333.92 214.673 1334.65 214.84 1335.46 214.84C1336.1 214.84 1336.7 214.727 1337.24 214.5C1337.8 214.273 1338.28 213.927 1338.68 213.46L1339.48 214.38C1339.02 214.94 1338.43 215.367 1337.72 215.66C1337.03 215.953 1336.26 216.1 1335.42 216.1ZM1350.39 205.4C1351.25 205.4 1351.99 205.567 1352.63 205.9C1353.29 206.22 1353.79 206.713 1354.15 207.38C1354.53 208.047 1354.71 208.887 1354.71 209.9V216H1353.29V210.04C1353.29 208.933 1353.01 208.1 1352.45 207.54C1351.91 206.967 1351.13 206.68 1350.13 206.68C1349.39 206.68 1348.73 206.833 1348.17 207.14C1347.63 207.433 1347.2 207.867 1346.89 208.44C1346.6 209 1346.45 209.68 1346.45 210.48V216H1345.03V205.5H1346.39V208.38L1346.17 207.84C1346.51 207.08 1347.04 206.487 1347.77 206.06C1348.51 205.62 1349.38 205.4 1350.39 205.4ZM1372.14 216.1C1371.1 216.1 1370.17 215.873 1369.34 215.42C1368.53 214.953 1367.89 214.32 1367.42 213.52C1366.96 212.707 1366.72 211.78 1366.72 210.74C1366.72 209.687 1366.96 208.76 1367.42 207.96C1367.89 207.16 1368.53 206.533 1369.34 206.08C1370.17 205.627 1371.1 205.4 1372.14 205.4C1373.04 205.4 1373.84 205.573 1374.56 205.92C1375.28 206.267 1375.85 206.787 1376.26 207.48L1375.2 208.2C1374.84 207.667 1374.4 207.273 1373.86 207.02C1373.33 206.767 1372.75 206.64 1372.12 206.64C1371.38 206.64 1370.7 206.813 1370.1 207.16C1369.5 207.493 1369.03 207.967 1368.68 208.58C1368.34 209.193 1368.16 209.913 1368.16 210.74C1368.16 211.567 1368.34 212.287 1368.68 212.9C1369.03 213.513 1369.5 213.993 1370.1 214.34C1370.7 214.673 1371.38 214.84 1372.12 214.84C1372.75 214.84 1373.33 214.713 1373.86 214.46C1374.4 214.207 1374.84 213.82 1375.2 213.3L1376.26 214.02C1375.85 214.7 1375.28 215.22 1374.56 215.58C1373.84 215.927 1373.04 216.1 1372.14 216.1ZM1380.9 216V201.16H1382.32V216H1380.9ZM1394.85 216V213.68L1394.79 213.3V209.42C1394.79 208.527 1394.54 207.84 1394.03 207.36C1393.54 206.88 1392.8 206.64 1391.81 206.64C1391.13 206.64 1390.48 206.753 1389.87 206.98C1389.26 207.207 1388.74 207.507 1388.31 207.88L1387.67 206.82C1388.2 206.367 1388.84 206.02 1389.59 205.78C1390.34 205.527 1391.12 205.4 1391.95 205.4C1393.31 205.4 1394.36 205.74 1395.09 206.42C1395.84 207.087 1396.21 208.107 1396.21 209.48V216H1394.85ZM1391.23 216.1C1390.44 216.1 1389.76 215.973 1389.17 215.72C1388.6 215.453 1388.16 215.093 1387.85 214.64C1387.54 214.173 1387.39 213.64 1387.39 213.04C1387.39 212.493 1387.52 212 1387.77 211.56C1388.04 211.107 1388.46 210.747 1389.05 210.48C1389.65 210.2 1390.45 210.06 1391.45 210.06H1395.07V211.12H1391.49C1390.48 211.12 1389.77 211.3 1389.37 211.66C1388.98 212.02 1388.79 212.467 1388.79 213C1388.79 213.6 1389.02 214.08 1389.49 214.44C1389.96 214.8 1390.61 214.98 1391.45 214.98C1392.25 214.98 1392.94 214.8 1393.51 214.44C1394.1 214.067 1394.52 213.533 1394.79 212.84L1395.11 213.82C1394.84 214.513 1394.38 215.067 1393.71 215.48C1393.06 215.893 1392.23 216.1 1391.23 216.1ZM1404.01 216L1400.05 205.5H1401.41L1405.01 215.24H1404.39L1408.09 205.5H1409.31L1412.97 215.24H1412.35L1416.01 205.5H1417.31L1413.33 216H1411.99L1408.47 206.84H1408.89L1405.35 216H1404.01ZM1424.15 216.1C1423.28 216.1 1422.46 215.98 1421.69 215.74C1420.92 215.487 1420.31 215.173 1419.87 214.8L1420.51 213.68C1420.94 214 1421.48 214.28 1422.15 214.52C1422.82 214.747 1423.52 214.86 1424.25 214.86C1425.25 214.86 1425.97 214.707 1426.41 214.4C1426.85 214.08 1427.07 213.66 1427.07 213.14C1427.07 212.753 1426.94 212.453 1426.69 212.24C1426.45 212.013 1426.13 211.847 1425.73 211.74C1425.33 211.62 1424.88 211.52 1424.39 211.44C1423.9 211.36 1423.4 211.267 1422.91 211.16C1422.43 211.053 1421.99 210.9 1421.59 210.7C1421.19 210.487 1420.86 210.2 1420.61 209.84C1420.37 209.48 1420.25 209 1420.25 208.4C1420.25 207.827 1420.41 207.313 1420.73 206.86C1421.05 206.407 1421.52 206.053 1422.13 205.8C1422.76 205.533 1423.52 205.4 1424.41 205.4C1425.09 205.4 1425.77 205.493 1426.45 205.68C1427.13 205.853 1427.69 206.087 1428.13 206.38L1427.51 207.52C1427.04 207.2 1426.54 206.973 1426.01 206.84C1425.48 206.693 1424.94 206.62 1424.41 206.62C1423.46 206.62 1422.76 206.787 1422.31 207.12C1421.87 207.44 1421.65 207.853 1421.65 208.36C1421.65 208.76 1421.77 209.073 1422.01 209.3C1422.26 209.527 1422.59 209.707 1422.99 209.84C1423.4 209.96 1423.85 210.06 1424.33 210.14C1424.82 210.22 1425.31 210.32 1425.79 210.44C1426.28 210.547 1426.73 210.7 1427.13 210.9C1427.54 211.087 1427.87 211.36 1428.11 211.72C1428.36 212.067 1428.49 212.527 1428.49 213.1C1428.49 213.713 1428.32 214.247 1427.97 214.7C1427.64 215.14 1427.14 215.487 1426.49 215.74C1425.85 215.98 1425.07 216.1 1424.15 216.1ZM1445.69 205.4C1446.54 205.4 1447.29 205.567 1447.93 205.9C1448.58 206.22 1449.09 206.713 1449.45 207.38C1449.82 208.047 1450.01 208.887 1450.01 209.9V216H1448.59V210.04C1448.59 208.933 1448.31 208.1 1447.75 207.54C1447.2 206.967 1446.43 206.68 1445.43 206.68C1444.68 206.68 1444.03 206.833 1443.47 207.14C1442.92 207.433 1442.5 207.867 1442.19 208.44C1441.9 209 1441.75 209.68 1441.75 210.48V216H1440.33V201.16H1441.75V208.38L1441.47 207.84C1441.8 207.08 1442.34 206.487 1443.07 206.06C1443.8 205.62 1444.68 205.4 1445.69 205.4ZM1460.31 216.1C1459.21 216.1 1458.25 215.873 1457.43 215.42C1456.6 214.953 1455.95 214.32 1455.49 213.52C1455.02 212.707 1454.79 211.78 1454.79 210.74C1454.79 209.7 1455.01 208.78 1455.45 207.98C1455.9 207.18 1456.51 206.553 1457.29 206.1C1458.07 205.633 1458.95 205.4 1459.93 205.4C1460.91 205.4 1461.79 205.627 1462.55 206.08C1463.32 206.52 1463.93 207.147 1464.37 207.96C1464.81 208.76 1465.03 209.687 1465.03 210.74C1465.03 210.807 1465.02 210.88 1465.01 210.96C1465.01 211.027 1465.01 211.1 1465.01 211.18H1455.87V210.12H1464.25L1463.69 210.54C1463.69 209.78 1463.52 209.107 1463.19 208.52C1462.87 207.92 1462.43 207.453 1461.87 207.12C1461.31 206.787 1460.66 206.62 1459.93 206.62C1459.21 206.62 1458.56 206.787 1457.99 207.12C1457.41 207.453 1456.97 207.92 1456.65 208.52C1456.33 209.12 1456.17 209.807 1456.17 210.58V210.8C1456.17 211.6 1456.34 212.307 1456.69 212.92C1457.05 213.52 1457.54 213.993 1458.17 214.34C1458.81 214.673 1459.53 214.84 1460.35 214.84C1460.99 214.84 1461.58 214.727 1462.13 214.5C1462.69 214.273 1463.17 213.927 1463.57 213.46L1464.37 214.38C1463.9 214.94 1463.31 215.367 1462.61 215.66C1461.91 215.953 1461.15 216.1 1460.31 216.1ZM1476.2 216V213.68L1476.14 213.3V209.42C1476.14 208.527 1475.89 207.84 1475.38 207.36C1474.89 206.88 1474.15 206.64 1473.16 206.64C1472.48 206.64 1471.84 206.753 1471.22 206.98C1470.61 207.207 1470.09 207.507 1469.66 207.88L1469.02 206.82C1469.56 206.367 1470.2 206.02 1470.94 205.78C1471.69 205.527 1472.48 205.4 1473.3 205.4C1474.66 205.4 1475.71 205.74 1476.44 206.42C1477.19 207.087 1477.56 208.107 1477.56 209.48V216H1476.2ZM1472.58 216.1C1471.8 216.1 1471.11 215.973 1470.52 215.72C1469.95 215.453 1469.51 215.093 1469.2 214.64C1468.9 214.173 1468.74 213.64 1468.74 213.04C1468.74 212.493 1468.87 212 1469.12 211.56C1469.39 211.107 1469.82 210.747 1470.4 210.48C1471 210.2 1471.8 210.06 1472.8 210.06H1476.42V211.12H1472.84C1471.83 211.12 1471.12 211.3 1470.72 211.66C1470.34 212.02 1470.14 212.467 1470.14 213C1470.14 213.6 1470.38 214.08 1470.84 214.44C1471.31 214.8 1471.96 214.98 1472.8 214.98C1473.6 214.98 1474.29 214.8 1474.86 214.44C1475.45 214.067 1475.88 213.533 1476.14 212.84L1476.46 213.82C1476.2 214.513 1475.73 215.067 1475.06 215.48C1474.41 215.893 1473.58 216.1 1472.58 216.1ZM1487.6 216.1C1486.6 216.1 1485.7 215.873 1484.9 215.42C1484.11 214.967 1483.49 214.34 1483.04 213.54C1482.59 212.727 1482.36 211.793 1482.36 210.74C1482.36 209.673 1482.59 208.74 1483.04 207.94C1483.49 207.14 1484.11 206.52 1484.9 206.08C1485.7 205.627 1486.6 205.4 1487.6 205.4C1488.52 205.4 1489.34 205.607 1490.06 206.02C1490.79 206.433 1491.37 207.04 1491.8 207.84C1492.24 208.627 1492.46 209.593 1492.46 210.74C1492.46 211.873 1492.25 212.84 1491.82 213.64C1491.39 214.44 1490.81 215.053 1490.08 215.48C1489.36 215.893 1488.53 216.1 1487.6 216.1ZM1487.7 214.84C1488.45 214.84 1489.11 214.673 1489.7 214.34C1490.3 213.993 1490.77 213.513 1491.1 212.9C1491.45 212.273 1491.62 211.553 1491.62 210.74C1491.62 209.913 1491.45 209.193 1491.1 208.58C1490.77 207.967 1490.3 207.493 1489.7 207.16C1489.11 206.813 1488.45 206.64 1487.7 206.64C1486.97 206.64 1486.31 206.813 1485.72 207.16C1485.13 207.493 1484.67 207.967 1484.32 208.58C1483.97 209.193 1483.8 209.913 1483.8 210.74C1483.8 211.553 1483.97 212.273 1484.32 212.9C1484.67 213.513 1485.13 213.993 1485.72 214.34C1486.31 214.673 1486.97 214.84 1487.7 214.84ZM1491.66 216V212.84L1491.8 210.72L1491.6 208.6V201.16H1493.02V216H1491.66ZM1499.12 216.1C1498.82 216.1 1498.57 215.993 1498.36 215.78C1498.16 215.567 1498.06 215.307 1498.06 215C1498.06 214.68 1498.16 214.42 1498.36 214.22C1498.57 214.02 1498.82 213.92 1499.12 213.92C1499.41 213.92 1499.66 214.02 1499.86 214.22C1500.07 214.42 1500.18 214.68 1500.18 215C1500.18 215.307 1500.07 215.567 1499.86 215.78C1499.66 215.993 1499.41 216.1 1499.12 216.1ZM1158.24 261.08V260.18H1163.38V261.08H1158.24ZM1173.85 266L1180.29 252H1181.31L1187.75 266H1186.65L1180.57 252.64H1181.01L1174.95 266H1173.85ZM1176.21 262.06L1176.55 261.2H1184.93L1185.27 262.06H1176.21ZM1191.98 266V255.56H1192.94V258.42L1192.84 258.1C1193.13 257.26 1193.62 256.613 1194.32 256.16C1195.01 255.707 1195.88 255.48 1196.92 255.48V256.46C1196.88 256.46 1196.84 256.46 1196.8 256.46C1196.76 256.447 1196.72 256.44 1196.68 256.44C1195.52 256.44 1194.61 256.807 1193.96 257.54C1193.3 258.26 1192.98 259.267 1192.98 260.56V266H1191.98ZM1205.18 266.08C1204.26 266.08 1203.55 265.827 1203.06 265.32C1202.58 264.813 1202.34 264.12 1202.34 263.24V253.28H1203.34V263.14C1203.34 263.807 1203.51 264.32 1203.84 264.68C1204.17 265.04 1204.65 265.22 1205.28 265.22C1205.93 265.22 1206.47 265.027 1206.9 264.64L1207.32 265.34C1207.05 265.593 1206.73 265.78 1206.34 265.9C1205.97 266.02 1205.58 266.08 1205.18 266.08ZM1200.42 256.42V255.56H1206.66V256.42H1200.42ZM1216.35 266.08C1215.45 266.08 1214.68 265.92 1214.03 265.6C1213.37 265.267 1212.87 264.773 1212.51 264.12C1212.16 263.453 1211.99 262.633 1211.99 261.66V255.56H1212.99V261.58C1212.99 262.753 1213.29 263.647 1213.89 264.26C1214.49 264.873 1215.33 265.18 1216.43 265.18C1217.21 265.18 1217.89 265.013 1218.47 264.68C1219.04 264.347 1219.48 263.88 1219.79 263.28C1220.09 262.667 1220.25 261.947 1220.25 261.12V255.56H1221.25V266H1220.29V263.1L1220.43 263.44C1220.12 264.253 1219.61 264.9 1218.89 265.38C1218.18 265.847 1217.33 266.08 1216.35 266.08Z" fill="black"/>
<rect width="840" height="600" transform="translate(120)" fill="#FCF6F1"/>
<path d="M285 330.225C285 313.656 298.431 300 315 300H764C780.569 300 794 313.431 794 330V420C794 436.569 780.634 450 764.066 450C604.768 450 392.552 450 314.996 450C298.428 450 285 471.923 285 455.355C285 438.767 285 402.544 285 330.225Z" fill="#FFD5CD"/>
<path fill-rule="evenodd" clip-rule="evenodd" d="M514 223.82C550.038 223.82 579.253 253.035 579.253 289.073H562.586C562.586 262.239 540.833 240.487 514 240.487C487.166 240.487 465.414 262.239 465.414 289.073H448.747C448.747 253.035 477.962 223.82 514 223.82Z" fill="#CE9ECC"/>
<path fill-rule="evenodd" clip-rule="evenodd" d="M514 194.24C566.375 194.24 608.833 236.698 608.833 289.073H592.167C592.167 245.903 557.17 210.906 514 210.906C470.83 210.906 435.833 245.903 435.833 289.073H419.167C419.167 236.698 461.625 194.24 514 194.24Z" fill="#CE9ECC"/>
<path fill-rule="evenodd" clip-rule="evenodd" d="M514 252.056C534.444 252.056 551.017 268.629 551.017 289.073H534.351C534.351 277.834 525.239 268.722 514 268.722C502.761 268.722 493.649 277.834 493.649 289.073H476.983C476.983 268.629 493.556 252.056 514 252.056Z" fill="#CE9ECC"/>
<path d="M325.36 334.12C324.307 334.12 323.333 333.947 322.44 333.6C321.547 333.24 320.773 332.74 320.12 332.1C319.467 331.46 318.953 330.707 318.58 329.84C318.22 328.973 318.04 328.027 318.04 327C318.04 325.973 318.22 325.027 318.58 324.16C318.953 323.293 319.467 322.54 320.12 321.9C320.787 321.26 321.567 320.767 322.46 320.42C323.353 320.06 324.327 319.88 325.38 319.88C326.393 319.88 327.347 320.053 328.24 320.4C329.133 320.733 329.887 321.24 330.5 321.92L329.56 322.86C328.987 322.273 328.353 321.853 327.66 321.6C326.967 321.333 326.22 321.2 325.42 321.2C324.58 321.2 323.8 321.347 323.08 321.64C322.36 321.92 321.733 322.327 321.2 322.86C320.667 323.38 320.247 323.993 319.94 324.7C319.647 325.393 319.5 326.16 319.5 327C319.5 327.84 319.647 328.613 319.94 329.32C320.247 330.013 320.667 330.627 321.2 331.16C321.733 331.68 322.36 332.087 323.08 332.38C323.8 332.66 324.58 332.8 325.42 332.8C326.22 332.8 326.967 332.667 327.66 332.4C328.353 332.133 328.987 331.707 329.56 331.12L330.5 332.06C329.887 332.74 329.133 333.253 328.24 333.6C327.347 333.947 326.387 334.12 325.36 334.12ZM341.779 334V331.68L341.719 331.3V327.42C341.719 326.527 341.465 325.84 340.959 325.36C340.465 324.88 339.725 324.64 338.739 324.64C338.059 324.64 337.412 324.753 336.799 324.98C336.185 325.207 335.665 325.507 335.239 325.88L334.599 324.82C335.132 324.367 335.772 324.02 336.519 323.78C337.265 323.527 338.052 323.4 338.879 323.4C340.239 323.4 341.285 323.74 342.019 324.42C342.765 325.087 343.139 326.107 343.139 327.48V334H341.779ZM338.159 334.1C337.372 334.1 336.685 333.973 336.099 333.72C335.525 333.453 335.085 333.093 334.779 332.64C334.472 332.173 334.319 331.64 334.319 331.04C334.319 330.493 334.445 330 334.699 329.56C334.965 329.107 335.392 328.747 335.979 328.48C336.579 328.2 337.379 328.06 338.379 328.06H341.999V329.12H338.419C337.405 329.12 336.699 329.3 336.299 329.66C335.912 330.02 335.719 330.467 335.719 331C335.719 331.6 335.952 332.08 336.419 332.44C336.885 332.8 337.539 332.98 338.379 332.98C339.179 332.98 339.865 332.8 340.439 332.44C341.025 332.067 341.452 331.533 341.719 330.84L342.039 331.82C341.772 332.513 341.305 333.067 340.639 333.48C339.985 333.893 339.159 334.1 338.159 334.1ZM352.316 334.1C351.329 334.1 350.569 333.833 350.036 333.3C349.502 332.767 349.236 332.013 349.236 331.04V321.18H350.656V330.96C350.656 331.573 350.809 332.047 351.116 332.38C351.436 332.713 351.889 332.88 352.476 332.88C353.102 332.88 353.622 332.7 354.036 332.34L354.536 333.36C354.256 333.613 353.916 333.8 353.516 333.92C353.129 334.04 352.729 334.1 352.316 334.1ZM347.356 324.68V323.5H353.856V324.68H347.356ZM366.355 334V323.5H367.775V334H366.355ZM367.075 321.18C366.782 321.18 366.535 321.08 366.335 320.88C366.135 320.68 366.035 320.44 366.035 320.16C366.035 319.88 366.135 319.647 366.335 319.46C366.535 319.26 366.782 319.16 367.075 319.16C367.368 319.16 367.615 319.253 367.815 319.44C368.015 319.627 368.115 319.86 368.115 320.14C368.115 320.433 368.015 320.68 367.815 320.88C367.628 321.08 367.382 321.18 367.075 321.18ZM379.146 334.1C378.239 334.1 377.419 333.893 376.686 333.48C375.953 333.053 375.366 332.447 374.926 331.66C374.499 330.86 374.286 329.887 374.286 328.74C374.286 327.593 374.499 326.627 374.926 325.84C375.353 325.04 375.933 324.433 376.666 324.02C377.399 323.607 378.226 323.4 379.146 323.4C380.146 323.4 381.039 323.627 381.826 324.08C382.626 324.52 383.253 325.147 383.706 325.96C384.159 326.76 384.386 327.687 384.386 328.74C384.386 329.807 384.159 330.74 383.706 331.54C383.253 332.34 382.626 332.967 381.826 333.42C381.039 333.873 380.146 334.1 379.146 334.1ZM373.726 337.88V323.5H375.086V326.66L374.946 328.76L375.146 330.88V337.88H373.726ZM379.046 332.84C379.793 332.84 380.459 332.673 381.046 332.34C381.633 331.993 382.099 331.513 382.446 330.9C382.793 330.273 382.966 329.553 382.966 328.74C382.966 327.927 382.793 327.213 382.446 326.6C382.099 325.987 381.633 325.507 381.046 325.16C380.459 324.813 379.793 324.64 379.046 324.64C378.299 324.64 377.626 324.813 377.026 325.16C376.439 325.507 375.973 325.987 375.626 326.6C375.293 327.213 375.126 327.927 375.126 328.74C375.126 329.553 375.293 330.273 375.626 330.9C375.973 331.513 376.439 331.993 377.026 332.34C377.626 332.673 378.299 332.84 379.046 332.84ZM392.101 334.1C391.234 334.1 390.414 333.98 389.641 333.74C388.867 333.487 388.261 333.173 387.821 332.8L388.461 331.68C388.887 332 389.434 332.28 390.101 332.52C390.767 332.747 391.467 332.86 392.201 332.86C393.201 332.86 393.921 332.707 394.361 332.4C394.801 332.08 395.021 331.66 395.021 331.14C395.021 330.753 394.894 330.453 394.641 330.24C394.401 330.013 394.081 329.847 393.681 329.74C393.281 329.62 392.834 329.52 392.341 329.44C391.847 329.36 391.354 329.267 390.861 329.16C390.381 329.053 389.941 328.9 389.541 328.7C389.141 328.487 388.814 328.2 388.561 327.84C388.321 327.48 388.201 327 388.201 326.4C388.201 325.827 388.361 325.313 388.681 324.86C389.001 324.407 389.467 324.053 390.081 323.8C390.707 323.533 391.467 323.4 392.361 323.4C393.041 323.4 393.721 323.493 394.401 323.68C395.081 323.853 395.641 324.087 396.081 324.38L395.461 325.52C394.994 325.2 394.494 324.973 393.961 324.84C393.427 324.693 392.894 324.62 392.361 324.62C391.414 324.62 390.714 324.787 390.261 325.12C389.821 325.44 389.601 325.853 389.601 326.36C389.601 326.76 389.721 327.073 389.961 327.3C390.214 327.527 390.541 327.707 390.941 327.84C391.354 327.96 391.801 328.06 392.281 328.14C392.774 328.22 393.261 328.32 393.741 328.44C394.234 328.547 394.681 328.7 395.081 328.9C395.494 329.087 395.821 329.36 396.061 329.72C396.314 330.067 396.441 330.527 396.441 331.1C396.441 331.713 396.267 332.247 395.921 332.7C395.587 333.14 395.094 333.487 394.441 333.74C393.801 333.98 393.021 334.1 392.101 334.1ZM405.386 334.1C404.493 334.1 403.713 333.933 403.046 333.6C402.38 333.267 401.86 332.767 401.486 332.1C401.126 331.433 400.946 330.6 400.946 329.6V323.5H402.366V329.44C402.366 330.56 402.64 331.407 403.186 331.98C403.746 332.54 404.526 332.82 405.526 332.82C406.26 332.82 406.893 332.673 407.426 332.38C407.973 332.073 408.386 331.633 408.666 331.06C408.96 330.487 409.106 329.8 409.106 329V323.5H410.526V334H409.166V331.12L409.386 331.64C409.053 332.413 408.533 333.02 407.826 333.46C407.133 333.887 406.32 334.1 405.386 334.1ZM429.604 323.4C430.457 323.4 431.197 323.567 431.824 323.9C432.464 324.22 432.957 324.713 433.304 325.38C433.664 326.047 433.844 326.887 433.844 327.9V334H432.424V328.04C432.424 326.933 432.157 326.1 431.624 325.54C431.104 324.967 430.364 324.68 429.404 324.68C428.684 324.68 428.057 324.833 427.524 325.14C427.004 325.433 426.597 325.867 426.304 326.44C426.024 327 425.884 327.68 425.884 328.48V334H424.464V328.04C424.464 326.933 424.197 326.1 423.664 325.54C423.131 324.967 422.384 324.68 421.424 324.68C420.717 324.68 420.097 324.833 419.564 325.14C419.031 325.433 418.617 325.867 418.324 326.44C418.044 327 417.904 327.68 417.904 328.48V334H416.484V323.5H417.844V326.34L417.624 325.84C417.944 325.08 418.457 324.487 419.164 324.06C419.884 323.62 420.731 323.4 421.704 323.4C422.731 323.4 423.604 323.66 424.324 324.18C425.044 324.687 425.511 325.453 425.724 326.48L425.164 326.26C425.471 325.407 426.011 324.72 426.784 324.2C427.571 323.667 428.511 323.4 429.604 323.4ZM451.109 334.1C450.109 334.1 449.209 333.873 448.409 333.42C447.623 332.967 447.003 332.34 446.549 331.54C446.096 330.727 445.869 329.793 445.869 328.74C445.869 327.673 446.096 326.74 446.549 325.94C447.003 325.14 447.623 324.52 448.409 324.08C449.209 323.627 450.109 323.4 451.109 323.4C452.029 323.4 452.849 323.607 453.569 324.02C454.303 324.433 454.883 325.04 455.309 325.84C455.749 326.627 455.969 327.593 455.969 328.74C455.969 329.873 455.756 330.84 455.329 331.64C454.903 332.44 454.323 333.053 453.589 333.48C452.869 333.893 452.043 334.1 451.109 334.1ZM451.209 332.84C451.956 332.84 452.623 332.673 453.209 332.34C453.809 331.993 454.276 331.513 454.609 330.9C454.956 330.273 455.129 329.553 455.129 328.74C455.129 327.913 454.956 327.193 454.609 326.58C454.276 325.967 453.809 325.493 453.209 325.16C452.623 324.813 451.956 324.64 451.209 324.64C450.476 324.64 449.816 324.813 449.229 325.16C448.643 325.493 448.176 325.967 447.829 326.58C447.483 327.193 447.309 327.913 447.309 328.74C447.309 329.553 447.483 330.273 447.829 330.9C448.176 331.513 448.643 331.993 449.229 332.34C449.816 332.673 450.476 332.84 451.209 332.84ZM455.169 334V330.84L455.309 328.72L455.109 326.6V319.16H456.529V334H455.169ZM466.764 334.1C465.751 334.1 464.837 333.873 464.024 333.42C463.224 332.953 462.591 332.32 462.124 331.52C461.657 330.707 461.424 329.78 461.424 328.74C461.424 327.687 461.657 326.76 462.124 325.96C462.591 325.16 463.224 324.533 464.024 324.08C464.824 323.627 465.737 323.4 466.764 323.4C467.804 323.4 468.724 323.627 469.524 324.08C470.337 324.533 470.971 325.16 471.424 325.96C471.891 326.76 472.124 327.687 472.124 328.74C472.124 329.78 471.891 330.707 471.424 331.52C470.971 332.32 470.337 332.953 469.524 333.42C468.711 333.873 467.791 334.1 466.764 334.1ZM466.764 332.84C467.524 332.84 468.197 332.673 468.784 332.34C469.371 331.993 469.831 331.513 470.164 330.9C470.511 330.273 470.684 329.553 470.684 328.74C470.684 327.913 470.511 327.193 470.164 326.58C469.831 325.967 469.371 325.493 468.784 325.16C468.197 324.813 467.531 324.64 466.784 324.64C466.037 324.64 465.371 324.813 464.784 325.16C464.197 325.493 463.731 325.967 463.384 326.58C463.037 327.193 462.864 327.913 462.864 328.74C462.864 329.553 463.037 330.273 463.384 330.9C463.731 331.513 464.197 331.993 464.784 332.34C465.371 332.673 466.031 332.84 466.764 332.84ZM477.023 334V319.16H478.443V334H477.023ZM488.674 334.1C487.661 334.1 486.747 333.873 485.934 333.42C485.134 332.953 484.501 332.32 484.034 331.52C483.567 330.707 483.334 329.78 483.334 328.74C483.334 327.687 483.567 326.76 484.034 325.96C484.501 325.16 485.134 324.533 485.934 324.08C486.734 323.627 487.647 323.4 488.674 323.4C489.714 323.4 490.634 323.627 491.434 324.08C492.247 324.533 492.881 325.16 493.334 325.96C493.801 326.76 494.034 327.687 494.034 328.74C494.034 329.78 493.801 330.707 493.334 331.52C492.881 332.32 492.247 332.953 491.434 333.42C490.621 333.873 489.701 334.1 488.674 334.1ZM488.674 332.84C489.434 332.84 490.107 332.673 490.694 332.34C491.281 331.993 491.741 331.513 492.074 330.9C492.421 330.273 492.594 329.553 492.594 328.74C492.594 327.913 492.421 327.193 492.074 326.58C491.741 325.967 491.281 325.493 490.694 325.16C490.107 324.813 489.441 324.64 488.694 324.64C487.947 324.64 487.281 324.813 486.694 325.16C486.107 325.493 485.641 325.967 485.294 326.58C484.947 327.193 484.774 327.913 484.774 328.74C484.774 329.553 484.947 330.273 485.294 330.9C485.641 331.513 486.107 331.993 486.694 332.34C487.281 332.673 487.941 332.84 488.674 332.84ZM498.933 334V323.5H500.293V326.36L500.153 325.86C500.446 325.06 500.94 324.453 501.633 324.04C502.326 323.613 503.186 323.4 504.213 323.4V324.78C504.16 324.78 504.106 324.78 504.053 324.78C504 324.767 503.946 324.76 503.893 324.76C502.786 324.76 501.92 325.1 501.293 325.78C500.666 326.447 500.353 327.4 500.353 328.64V334H498.933ZM519.015 334.1C518.148 334.1 517.328 333.98 516.555 333.74C515.782 333.487 515.175 333.173 514.735 332.8L515.375 331.68C515.802 332 516.348 332.28 517.015 332.52C517.682 332.747 518.382 332.86 519.115 332.86C520.115 332.86 520.835 332.707 521.275 332.4C521.715 332.08 521.935 331.66 521.935 331.14C521.935 330.753 521.808 330.453 521.555 330.24C521.315 330.013 520.995 329.847 520.595 329.74C520.195 329.62 519.748 329.52 519.255 329.44C518.762 329.36 518.268 329.267 517.775 329.16C517.295 329.053 516.855 328.9 516.455 328.7C516.055 328.487 515.728 328.2 515.475 327.84C515.235 327.48 515.115 327 515.115 326.4C515.115 325.827 515.275 325.313 515.595 324.86C515.915 324.407 516.382 324.053 516.995 323.8C517.622 323.533 518.382 323.4 519.275 323.4C519.955 323.4 520.635 323.493 521.315 323.68C521.995 323.853 522.555 324.087 522.995 324.38L522.375 325.52C521.908 325.2 521.408 324.973 520.875 324.84C520.342 324.693 519.808 324.62 519.275 324.62C518.328 324.62 517.628 324.787 517.175 325.12C516.735 325.44 516.515 325.853 516.515 326.36C516.515 326.76 516.635 327.073 516.875 327.3C517.128 327.527 517.455 327.707 517.855 327.84C518.268 327.96 518.715 328.06 519.195 328.14C519.688 328.22 520.175 328.32 520.655 328.44C521.148 328.547 521.595 328.7 521.995 328.9C522.408 329.087 522.735 329.36 522.975 329.72C523.228 330.067 523.355 330.527 523.355 331.1C523.355 331.713 523.182 332.247 522.835 332.7C522.502 333.14 522.008 333.487 521.355 333.74C520.715 333.98 519.935 334.1 519.015 334.1ZM527.96 334V323.5H529.38V334H527.96ZM528.68 321.18C528.387 321.18 528.14 321.08 527.94 320.88C527.74 320.68 527.64 320.44 527.64 320.16C527.64 319.88 527.74 319.647 527.94 319.46C528.14 319.26 528.387 319.16 528.68 319.16C528.974 319.16 529.22 319.253 529.42 319.44C529.62 319.627 529.72 319.86 529.72 320.14C529.72 320.433 529.62 320.68 529.42 320.88C529.234 321.08 528.987 321.18 528.68 321.18ZM538.652 334.1C537.665 334.1 536.905 333.833 536.372 333.3C535.838 332.767 535.572 332.013 535.572 331.04V321.18H536.992V330.96C536.992 331.573 537.145 332.047 537.452 332.38C537.772 332.713 538.225 332.88 538.812 332.88C539.438 332.88 539.958 332.7 540.372 332.34L540.872 333.36C540.592 333.613 540.252 333.8 539.852 333.92C539.465 334.04 539.065 334.1 538.652 334.1ZM533.692 324.68V323.5H540.192V324.68H533.692ZM559.271 334V331.68L559.211 331.3V327.42C559.211 326.527 558.958 325.84 558.451 325.36C557.958 324.88 557.218 324.64 556.231 324.64C555.551 324.64 554.904 324.753 554.291 324.98C553.678 325.207 553.158 325.507 552.731 325.88L552.091 324.82C552.624 324.367 553.264 324.02 554.011 323.78C554.758 323.527 555.544 323.4 556.371 323.4C557.731 323.4 558.778 323.74 559.511 324.42C560.258 325.087 560.631 326.107 560.631 327.48V334H559.271ZM555.651 334.1C554.864 334.1 554.178 333.973 553.591 333.72C553.018 333.453 552.578 333.093 552.271 332.64C551.964 332.173 551.811 331.64 551.811 331.04C551.811 330.493 551.938 330 552.191 329.56C552.458 329.107 552.884 328.747 553.471 328.48C554.071 328.2 554.871 328.06 555.871 328.06H559.491V329.12H555.911C554.898 329.12 554.191 329.3 553.791 329.66C553.404 330.02 553.211 330.467 553.211 331C553.211 331.6 553.444 332.08 553.911 332.44C554.378 332.8 555.031 332.98 555.871 332.98C556.671 332.98 557.358 332.8 557.931 332.44C558.518 332.067 558.944 331.533 559.211 330.84L559.531 331.82C559.264 332.513 558.798 333.067 558.131 333.48C557.478 333.893 556.651 334.1 555.651 334.1ZM579.608 323.4C580.461 323.4 581.201 323.567 581.828 323.9C582.468 324.22 582.961 324.713 583.308 325.38C583.668 326.047 583.848 326.887 583.848 327.9V334H582.428V328.04C582.428 326.933 582.161 326.1 581.628 325.54C581.108 324.967 580.368 324.68 579.408 324.68C578.688 324.68 578.061 324.833 577.528 325.14C577.008 325.433 576.601 325.867 576.308 326.44C576.028 327 575.888 327.68 575.888 328.48V334H574.468V328.04C574.468 326.933 574.201 326.1 573.668 325.54C573.134 324.967 572.388 324.68 571.428 324.68C570.721 324.68 570.101 324.833 569.568 325.14C569.034 325.433 568.621 325.867 568.328 326.44C568.048 327 567.908 327.68 567.908 328.48V334H566.488V323.5H567.848V326.34L567.628 325.84C567.948 325.08 568.461 324.487 569.168 324.06C569.888 323.62 570.734 323.4 571.708 323.4C572.734 323.4 573.608 323.66 574.328 324.18C575.048 324.687 575.514 325.453 575.728 326.48L575.168 326.26C575.474 325.407 576.014 324.72 576.788 324.2C577.574 323.667 578.514 323.4 579.608 323.4ZM594.159 334.1C593.065 334.1 592.105 333.873 591.279 333.42C590.452 332.953 589.805 332.32 589.339 331.52C588.872 330.707 588.639 329.78 588.639 328.74C588.639 327.7 588.859 326.78 589.299 325.98C589.752 325.18 590.365 324.553 591.139 324.1C591.925 323.633 592.805 323.4 593.779 323.4C594.765 323.4 595.639 323.627 596.399 324.08C597.172 324.52 597.779 325.147 598.219 325.96C598.659 326.76 598.879 327.687 598.879 328.74C598.879 328.807 598.872 328.88 598.859 328.96C598.859 329.027 598.859 329.1 598.859 329.18H589.719V328.12H598.099L597.539 328.54C597.539 327.78 597.372 327.107 597.039 326.52C596.719 325.92 596.279 325.453 595.719 325.12C595.159 324.787 594.512 324.62 593.779 324.62C593.059 324.62 592.412 324.787 591.839 325.12C591.265 325.453 590.819 325.92 590.499 326.52C590.179 327.12 590.019 327.807 590.019 328.58V328.8C590.019 329.6 590.192 330.307 590.539 330.92C590.899 331.52 591.392 331.993 592.019 332.34C592.659 332.673 593.385 332.84 594.199 332.84C594.839 332.84 595.432 332.727 595.979 332.5C596.539 332.273 597.019 331.927 597.419 331.46L598.219 332.38C597.752 332.94 597.165 333.367 596.459 333.66C595.765 333.953 594.999 334.1 594.159 334.1ZM607.089 334.1C606.102 334.1 605.342 333.833 604.809 333.3C604.276 332.767 604.009 332.013 604.009 331.04V321.18H605.429V330.96C605.429 331.573 605.582 332.047 605.889 332.38C606.209 332.713 606.662 332.88 607.249 332.88C607.876 332.88 608.396 332.7 608.809 332.34L609.309 333.36C609.029 333.613 608.689 333.8 608.289 333.92C607.902 334.04 607.502 334.1 607.089 334.1ZM602.129 324.68V323.5H608.629V324.68H602.129ZM613.229 336.92L614.109 333.22L614.269 334.08C613.963 334.08 613.703 333.98 613.489 333.78C613.289 333.58 613.189 333.32 613.189 333C613.189 332.68 613.289 332.42 613.489 332.22C613.703 332.02 613.956 331.92 614.249 331.92C614.556 331.92 614.803 332.027 614.989 332.24C615.189 332.453 615.289 332.707 615.289 333C615.289 333.107 615.283 333.213 615.269 333.32C615.256 333.427 615.229 333.547 615.189 333.68C615.149 333.813 615.096 333.973 615.029 334.16L614.189 336.92H613.229ZM632.022 334.1C630.929 334.1 629.969 333.873 629.142 333.42C628.315 332.953 627.669 332.32 627.202 331.52C626.735 330.707 626.502 329.78 626.502 328.74C626.502 327.7 626.722 326.78 627.162 325.98C627.615 325.18 628.229 324.553 629.002 324.1C629.789 323.633 630.669 323.4 631.642 323.4C632.629 323.4 633.502 323.627 634.262 324.08C635.035 324.52 635.642 325.147 636.082 325.96C636.522 326.76 636.742 327.687 636.742 328.74C636.742 328.807 636.735 328.88 636.722 328.96C636.722 329.027 636.722 329.1 636.722 329.18H627.582V328.12H635.962L635.402 328.54C635.402 327.78 635.235 327.107 634.902 326.52C634.582 325.92 634.142 325.453 633.582 325.12C633.022 324.787 632.375 324.62 631.642 324.62C630.922 324.62 630.275 324.787 629.702 325.12C629.129 325.453 628.682 325.92 628.362 326.52C628.042 327.12 627.882 327.807 627.882 328.58V328.8C627.882 329.6 628.055 330.307 628.402 330.92C628.762 331.52 629.255 331.993 629.882 332.34C630.522 332.673 631.249 332.84 632.062 332.84C632.702 332.84 633.295 332.727 633.842 332.5C634.402 332.273 634.882 331.927 635.282 331.46L636.082 332.38C635.615 332.94 635.029 333.367 634.322 333.66C633.629 333.953 632.862 334.1 632.022 334.1ZM647.919 334V331.68L647.859 331.3V327.42C647.859 326.527 647.606 325.84 647.099 325.36C646.606 324.88 645.866 324.64 644.879 324.64C644.199 324.64 643.553 324.753 642.939 324.98C642.326 325.207 641.806 325.507 641.379 325.88L640.739 324.82C641.273 324.367 641.913 324.02 642.659 323.78C643.406 323.527 644.193 323.4 645.019 323.4C646.379 323.4 647.426 323.74 648.159 324.42C648.906 325.087 649.279 326.107 649.279 327.48V334H647.919ZM644.299 334.1C643.513 334.1 642.826 333.973 642.239 333.72C641.666 333.453 641.226 333.093 640.919 332.64C640.613 332.173 640.459 331.64 640.459 331.04C640.459 330.493 640.586 330 640.839 329.56C641.106 329.107 641.533 328.747 642.119 328.48C642.719 328.2 643.519 328.06 644.519 328.06H648.139V329.12H644.559C643.546 329.12 642.839 329.3 642.439 329.66C642.053 330.02 641.859 330.467 641.859 331C641.859 331.6 642.093 332.08 642.559 332.44C643.026 332.8 643.679 332.98 644.519 332.98C645.319 332.98 646.006 332.8 646.579 332.44C647.166 332.067 647.593 331.533 647.859 330.84L648.179 331.82C647.913 332.513 647.446 333.067 646.779 333.48C646.126 333.893 645.299 334.1 644.299 334.1ZM658.456 334.1C657.47 334.1 656.71 333.833 656.176 333.3C655.643 332.767 655.376 332.013 655.376 331.04V321.18H656.796V330.96C656.796 331.573 656.95 332.047 657.256 332.38C657.576 332.713 658.03 332.88 658.616 332.88C659.243 332.88 659.763 332.7 660.176 332.34L660.676 333.36C660.396 333.613 660.056 333.8 659.656 333.92C659.27 334.04 658.87 334.1 658.456 334.1ZM653.496 324.68V323.5H659.996V324.68H653.496ZM668.081 334.1C667.215 334.1 666.395 333.98 665.621 333.74C664.848 333.487 664.241 333.173 663.801 332.8L664.441 331.68C664.868 332 665.415 332.28 666.081 332.52C666.748 332.747 667.448 332.86 668.181 332.86C669.181 332.86 669.901 332.707 670.341 332.4C670.781 332.08 671.001 331.66 671.001 331.14C671.001 330.753 670.875 330.453 670.621 330.24C670.381 330.013 670.061 329.847 669.661 329.74C669.261 329.62 668.815 329.52 668.321 329.44C667.828 329.36 667.335 329.267 666.841 329.16C666.361 329.053 665.921 328.9 665.521 328.7C665.121 328.487 664.795 328.2 664.541 327.84C664.301 327.48 664.181 327 664.181 326.4C664.181 325.827 664.341 325.313 664.661 324.86C664.981 324.407 665.448 324.053 666.061 323.8C666.688 323.533 667.448 323.4 668.341 323.4C669.021 323.4 669.701 323.493 670.381 323.68C671.061 323.853 671.621 324.087 672.061 324.38L671.441 325.52C670.975 325.2 670.475 324.973 669.941 324.84C669.408 324.693 668.875 324.62 668.341 324.62C667.395 324.62 666.695 324.787 666.241 325.12C665.801 325.44 665.581 325.853 665.581 326.36C665.581 326.76 665.701 327.073 665.941 327.3C666.195 327.527 666.521 327.707 666.921 327.84C667.335 327.96 667.781 328.06 668.261 328.14C668.755 328.22 669.241 328.32 669.721 328.44C670.215 328.547 670.661 328.7 671.061 328.9C671.475 329.087 671.801 329.36 672.041 329.72C672.295 330.067 672.421 330.527 672.421 331.1C672.421 331.713 672.248 332.247 671.901 332.7C671.568 333.14 671.075 333.487 670.421 333.74C669.781 333.98 669.001 334.1 668.081 334.1ZM323.26 384.1C322.247 384.1 321.333 383.873 320.52 383.42C319.72 382.953 319.087 382.32 318.62 381.52C318.153 380.707 317.92 379.78 317.92 378.74C317.92 377.687 318.153 376.76 318.62 375.96C319.087 375.16 319.72 374.533 320.52 374.08C321.32 373.627 322.233 373.4 323.26 373.4C324.3 373.4 325.22 373.627 326.02 374.08C326.833 374.533 327.467 375.16 327.92 375.96C328.387 376.76 328.62 377.687 328.62 378.74C328.62 379.78 328.387 380.707 327.92 381.52C327.467 382.32 326.833 382.953 326.02 383.42C325.207 383.873 324.287 384.1 323.26 384.1ZM323.26 382.84C324.02 382.84 324.693 382.673 325.28 382.34C325.867 381.993 326.327 381.513 326.66 380.9C327.007 380.273 327.18 379.553 327.18 378.74C327.18 377.913 327.007 377.193 326.66 376.58C326.327 375.967 325.867 375.493 325.28 375.16C324.693 374.813 324.027 374.64 323.28 374.64C322.533 374.64 321.867 374.813 321.28 375.16C320.693 375.493 320.227 375.967 319.88 376.58C319.533 377.193 319.36 377.913 319.36 378.74C319.36 379.553 319.533 380.273 319.88 380.9C320.227 381.513 320.693 381.993 321.28 382.34C321.867 382.673 322.527 382.84 323.26 382.84ZM335.366 384L331.406 373.5H332.766L336.366 383.24H335.746L339.446 373.5H340.666L344.326 383.24H343.706L347.366 373.5H348.666L344.686 384H343.346L339.826 374.84H340.246L336.706 384H335.366ZM358.164 373.4C359.018 373.4 359.764 373.567 360.404 373.9C361.058 374.22 361.564 374.713 361.924 375.38C362.298 376.047 362.484 376.887 362.484 377.9V384H361.064V378.04C361.064 376.933 360.784 376.1 360.224 375.54C359.678 374.967 358.904 374.68 357.904 374.68C357.158 374.68 356.504 374.833 355.944 375.14C355.398 375.433 354.971 375.867 354.664 376.44C354.371 377 354.224 377.68 354.224 378.48V384H352.804V373.5H354.164V376.38L353.944 375.84C354.278 375.08 354.811 374.487 355.544 374.06C356.278 373.62 357.151 373.4 358.164 373.4ZM372.78 384.1C371.687 384.1 370.727 383.873 369.9 383.42C369.073 382.953 368.427 382.32 367.96 381.52C367.493 380.707 367.26 379.78 367.26 378.74C367.26 377.7 367.48 376.78 367.92 375.98C368.373 375.18 368.987 374.553 369.76 374.1C370.547 373.633 371.427 373.4 372.4 373.4C373.387 373.4 374.26 373.627 375.02 374.08C375.793 374.52 376.4 375.147 376.84 375.96C377.28 376.76 377.5 377.687 377.5 378.74C377.5 378.807 377.493 378.88 377.48 378.96C377.48 379.027 377.48 379.1 377.48 379.18H368.34V378.12H376.72L376.16 378.54C376.16 377.78 375.993 377.107 375.66 376.52C375.34 375.92 374.9 375.453 374.34 375.12C373.78 374.787 373.133 374.62 372.4 374.62C371.68 374.62 371.033 374.787 370.46 375.12C369.887 375.453 369.44 375.92 369.12 376.52C368.8 377.12 368.64 377.807 368.64 378.58V378.8C368.64 379.6 368.813 380.307 369.16 380.92C369.52 381.52 370.013 381.993 370.64 382.34C371.28 382.673 372.007 382.84 372.82 382.84C373.46 382.84 374.053 382.727 374.6 382.5C375.16 382.273 375.64 381.927 376.04 381.46L376.84 382.38C376.373 382.94 375.787 383.367 375.08 383.66C374.387 383.953 373.62 384.1 372.78 384.1ZM382.39 384V373.5H383.75V376.36L383.61 375.86C383.903 375.06 384.397 374.453 385.09 374.04C385.783 373.613 386.643 373.4 387.67 373.4V374.78C387.617 374.78 387.563 374.78 387.51 374.78C387.457 374.767 387.403 374.76 387.35 374.76C386.243 374.76 385.377 375.1 384.75 375.78C384.123 376.447 383.81 377.4 383.81 378.64V384H382.39ZM395.198 384.1C394.332 384.1 393.512 383.98 392.738 383.74C391.965 383.487 391.358 383.173 390.918 382.8L391.558 381.68C391.985 382 392.532 382.28 393.198 382.52C393.865 382.747 394.565 382.86 395.298 382.86C396.298 382.86 397.018 382.707 397.458 382.4C397.898 382.08 398.118 381.66 398.118 381.14C398.118 380.753 397.992 380.453 397.738 380.24C397.498 380.013 397.178 379.847 396.778 379.74C396.378 379.62 395.932 379.52 395.438 379.44C394.945 379.36 394.452 379.267 393.958 379.16C393.478 379.053 393.038 378.9 392.638 378.7C392.238 378.487 391.912 378.2 391.658 377.84C391.418 377.48 391.298 377 391.298 376.4C391.298 375.827 391.458 375.313 391.778 374.86C392.098 374.407 392.565 374.053 393.178 373.8C393.805 373.533 394.565 373.4 395.458 373.4C396.138 373.4 396.818 373.493 397.498 373.68C398.178 373.853 398.738 374.087 399.178 374.38L398.558 375.52C398.092 375.2 397.592 374.973 397.058 374.84C396.525 374.693 395.992 374.62 395.458 374.62C394.512 374.62 393.812 374.787 393.358 375.12C392.918 375.44 392.698 375.853 392.698 376.36C392.698 376.76 392.818 377.073 393.058 377.3C393.312 377.527 393.638 377.707 394.038 377.84C394.452 377.96 394.898 378.06 395.378 378.14C395.872 378.22 396.358 378.32 396.838 378.44C397.332 378.547 397.778 378.7 398.178 378.9C398.592 379.087 398.918 379.36 399.158 379.72C399.412 380.067 399.538 380.527 399.538 381.1C399.538 381.713 399.365 382.247 399.018 382.7C398.685 383.14 398.192 383.487 397.538 383.74C396.898 383.98 396.118 384.1 395.198 384.1ZM416.738 373.4C417.592 373.4 418.338 373.567 418.978 373.9C419.632 374.22 420.138 374.713 420.498 375.38C420.872 376.047 421.058 376.887 421.058 377.9V384H419.638V378.04C419.638 376.933 419.358 376.1 418.798 375.54C418.252 374.967 417.478 374.68 416.478 374.68C415.732 374.68 415.078 374.833 414.518 375.14C413.972 375.433 413.545 375.867 413.238 376.44C412.945 377 412.798 377.68 412.798 378.48V384H411.378V369.16H412.798V376.38L412.518 375.84C412.852 375.08 413.385 374.487 414.118 374.06C414.852 373.62 415.725 373.4 416.738 373.4ZM433.474 384V381.68L433.414 381.3V377.42C433.414 376.527 433.161 375.84 432.654 375.36C432.161 374.88 431.421 374.64 430.434 374.64C429.754 374.64 429.107 374.753 428.494 374.98C427.881 375.207 427.361 375.507 426.934 375.88L426.294 374.82C426.827 374.367 427.467 374.02 428.214 373.78C428.961 373.527 429.747 373.4 430.574 373.4C431.934 373.4 432.981 373.74 433.714 374.42C434.461 375.087 434.834 376.107 434.834 377.48V384H433.474ZM429.854 384.1C429.067 384.1 428.381 383.973 427.794 383.72C427.221 383.453 426.781 383.093 426.474 382.64C426.167 382.173 426.014 381.64 426.014 381.04C426.014 380.493 426.141 380 426.394 379.56C426.661 379.107 427.087 378.747 427.674 378.48C428.274 378.2 429.074 378.06 430.074 378.06H433.694V379.12H430.114C429.101 379.12 428.394 379.3 427.994 379.66C427.607 380.02 427.414 380.467 427.414 381C427.414 381.6 427.647 382.08 428.114 382.44C428.581 382.8 429.234 382.98 430.074 382.98C430.874 382.98 431.561 382.8 432.134 382.44C432.721 382.067 433.147 381.533 433.414 380.84L433.734 381.82C433.467 382.513 433.001 383.067 432.334 383.48C431.681 383.893 430.854 384.1 429.854 384.1ZM440.691 384V373.5H442.111V384H440.691ZM441.411 371.18C441.118 371.18 440.871 371.08 440.671 370.88C440.471 370.68 440.371 370.44 440.371 370.16C440.371 369.88 440.471 369.647 440.671 369.46C440.871 369.26 441.118 369.16 441.411 369.16C441.704 369.16 441.951 369.253 442.151 369.44C442.351 369.627 442.451 369.86 442.451 370.14C442.451 370.433 442.351 370.68 442.151 370.88C441.964 371.08 441.718 371.18 441.411 371.18ZM448.062 384V373.5H449.422V376.36L449.282 375.86C449.575 375.06 450.069 374.453 450.762 374.04C451.455 373.613 452.315 373.4 453.342 373.4V374.78C453.289 374.78 453.235 374.78 453.182 374.78C453.129 374.767 453.075 374.76 453.022 374.76C451.915 374.76 451.049 375.1 450.422 375.78C449.795 376.447 449.482 377.4 449.482 378.64V384H448.062ZM468.644 384.1C467.657 384.1 466.897 383.833 466.364 383.3C465.83 382.767 465.564 382.013 465.564 381.04V371.18H466.984V380.96C466.984 381.573 467.137 382.047 467.444 382.38C467.764 382.713 468.217 382.88 468.804 382.88C469.43 382.88 469.95 382.7 470.364 382.34L470.864 383.36C470.584 383.613 470.244 383.8 469.844 383.92C469.457 384.04 469.057 384.1 468.644 384.1ZM463.684 374.68V373.5H470.184V374.68H463.684ZM480.809 373.4C481.662 373.4 482.409 373.567 483.049 373.9C483.702 374.22 484.209 374.713 484.569 375.38C484.942 376.047 485.129 376.887 485.129 377.9V384H483.709V378.04C483.709 376.933 483.429 376.1 482.869 375.54C482.322 374.967 481.549 374.68 480.549 374.68C479.802 374.68 479.149 374.833 478.589 375.14C478.042 375.433 477.615 375.867 477.309 376.44C477.015 377 476.869 377.68 476.869 378.48V384H475.449V369.16H476.869V376.38L476.589 375.84C476.922 375.08 477.455 374.487 478.189 374.06C478.922 373.62 479.795 373.4 480.809 373.4ZM495.424 384.1C494.331 384.1 493.371 383.873 492.544 383.42C491.718 382.953 491.071 382.32 490.604 381.52C490.138 380.707 489.904 379.78 489.904 378.74C489.904 377.7 490.124 376.78 490.564 375.98C491.018 375.18 491.631 374.553 492.404 374.1C493.191 373.633 494.071 373.4 495.044 373.4C496.031 373.4 496.904 373.627 497.664 374.08C498.438 374.52 499.044 375.147 499.484 375.96C499.924 376.76 500.144 377.687 500.144 378.74C500.144 378.807 500.138 378.88 500.124 378.96C500.124 379.027 500.124 379.1 500.124 379.18H490.984V378.12H499.364L498.804 378.54C498.804 377.78 498.638 377.107 498.304 376.52C497.984 375.92 497.544 375.453 496.984 375.12C496.424 374.787 495.778 374.62 495.044 374.62C494.324 374.62 493.678 374.787 493.104 375.12C492.531 375.453 492.084 375.92 491.764 376.52C491.444 377.12 491.284 377.807 491.284 378.58V378.8C491.284 379.6 491.458 380.307 491.804 380.92C492.164 381.52 492.658 381.993 493.284 382.34C493.924 382.673 494.651 382.84 495.464 382.84C496.104 382.84 496.698 382.727 497.244 382.5C497.804 382.273 498.284 381.927 498.684 381.46L499.484 382.38C499.018 382.94 498.431 383.367 497.724 383.66C497.031 383.953 496.264 384.1 495.424 384.1ZM510.395 373.4C511.248 373.4 511.995 373.567 512.635 373.9C513.288 374.22 513.795 374.713 514.155 375.38C514.528 376.047 514.715 376.887 514.715 377.9V384H513.295V378.04C513.295 376.933 513.015 376.1 512.455 375.54C511.908 374.967 511.135 374.68 510.135 374.68C509.388 374.68 508.735 374.833 508.175 375.14C507.628 375.433 507.201 375.867 506.895 376.44C506.601 377 506.455 377.68 506.455 378.48V384H505.035V373.5H506.395V376.38L506.175 375.84C506.508 375.08 507.041 374.487 507.775 374.06C508.508 373.62 509.381 373.4 510.395 373.4ZM532.145 384.1C531.105 384.1 530.171 383.873 529.345 383.42C528.531 382.953 527.891 382.32 527.425 381.52C526.958 380.707 526.725 379.78 526.725 378.74C526.725 377.687 526.958 376.76 527.425 375.96C527.891 375.16 528.531 374.533 529.345 374.08C530.171 373.627 531.105 373.4 532.145 373.4C533.038 373.4 533.845 373.573 534.565 373.92C535.285 374.267 535.851 374.787 536.265 375.48L535.205 376.2C534.845 375.667 534.398 375.273 533.865 375.02C533.331 374.767 532.751 374.64 532.125 374.64C531.378 374.64 530.705 374.813 530.105 375.16C529.505 375.493 529.031 375.967 528.685 376.58C528.338 377.193 528.165 377.913 528.165 378.74C528.165 379.567 528.338 380.287 528.685 380.9C529.031 381.513 529.505 381.993 530.105 382.34C530.705 382.673 531.378 382.84 532.125 382.84C532.751 382.84 533.331 382.713 533.865 382.46C534.398 382.207 534.845 381.82 535.205 381.3L536.265 382.02C535.851 382.7 535.285 383.22 534.565 383.58C533.845 383.927 533.038 384.1 532.145 384.1ZM540.898 384V369.16H542.318V384H540.898ZM554.849 384V381.68L554.789 381.3V377.42C554.789 376.527 554.536 375.84 554.029 375.36C553.536 374.88 552.796 374.64 551.809 374.64C551.129 374.64 550.482 374.753 549.869 374.98C549.256 375.207 548.736 375.507 548.309 375.88L547.669 374.82C548.202 374.367 548.842 374.02 549.589 373.78C550.336 373.527 551.122 373.4 551.949 373.4C553.309 373.4 554.356 373.74 555.089 374.42C555.836 375.087 556.209 376.107 556.209 377.48V384H554.849ZM551.229 384.1C550.442 384.1 549.756 383.973 549.169 383.72C548.596 383.453 548.156 383.093 547.849 382.64C547.542 382.173 547.389 381.64 547.389 381.04C547.389 380.493 547.516 380 547.769 379.56C548.036 379.107 548.462 378.747 549.049 378.48C549.649 378.2 550.449 378.06 551.449 378.06H555.069V379.12H551.489C550.476 379.12 549.769 379.3 549.369 379.66C548.982 380.02 548.789 380.467 548.789 381C548.789 381.6 549.022 382.08 549.489 382.44C549.956 382.8 550.609 382.98 551.449 382.98C552.249 382.98 552.936 382.8 553.509 382.44C554.096 382.067 554.522 381.533 554.789 380.84L555.109 381.82C554.842 382.513 554.376 383.067 553.709 383.48C553.056 383.893 552.229 384.1 551.229 384.1ZM564.011 384L560.051 373.5H561.411L565.011 383.24H564.391L568.091 373.5H569.311L572.971 383.24H572.351L576.011 373.5H577.311L573.331 384H571.991L568.471 374.84H568.891L565.351 384H564.011ZM584.152 384.1C583.285 384.1 582.465 383.98 581.692 383.74C580.918 383.487 580.312 383.173 579.872 382.8L580.512 381.68C580.938 382 581.485 382.28 582.152 382.52C582.818 382.747 583.518 382.86 584.252 382.86C585.252 382.86 585.972 382.707 586.412 382.4C586.852 382.08 587.072 381.66 587.072 381.14C587.072 380.753 586.945 380.453 586.692 380.24C586.452 380.013 586.132 379.847 585.732 379.74C585.332 379.62 584.885 379.52 584.392 379.44C583.898 379.36 583.405 379.267 582.912 379.16C582.432 379.053 581.992 378.9 581.592 378.7C581.192 378.487 580.865 378.2 580.612 377.84C580.372 377.48 580.252 377 580.252 376.4C580.252 375.827 580.412 375.313 580.732 374.86C581.052 374.407 581.518 374.053 582.132 373.8C582.758 373.533 583.518 373.4 584.412 373.4C585.092 373.4 585.772 373.493 586.452 373.68C587.132 373.853 587.692 374.087 588.132 374.38L587.512 375.52C587.045 375.2 586.545 374.973 586.012 374.84C585.478 374.693 584.945 374.62 584.412 374.62C583.465 374.62 582.765 374.787 582.312 375.12C581.872 375.44 581.652 375.853 581.652 376.36C581.652 376.76 581.772 377.073 582.012 377.3C582.265 377.527 582.592 377.707 582.992 377.84C583.405 377.96 583.852 378.06 584.332 378.14C584.825 378.22 585.312 378.32 585.792 378.44C586.285 378.547 586.732 378.7 587.132 378.9C587.545 379.087 587.872 379.36 588.112 379.72C588.365 380.067 588.492 380.527 588.492 381.1C588.492 381.713 588.318 382.247 587.972 382.7C587.638 383.14 587.145 383.487 586.492 383.74C585.852 383.98 585.072 384.1 584.152 384.1ZM605.692 373.4C606.545 373.4 607.292 373.567 607.932 373.9C608.585 374.22 609.092 374.713 609.452 375.38C609.825 376.047 610.012 376.887 610.012 377.9V384H608.592V378.04C608.592 376.933 608.312 376.1 607.752 375.54C607.205 374.967 606.432 374.68 605.432 374.68C604.685 374.68 604.032 374.833 603.472 375.14C602.925 375.433 602.498 375.867 602.192 376.44C601.898 377 601.752 377.68 601.752 378.48V384H600.332V369.16H601.752V376.38L601.472 375.84C601.805 375.08 602.338 374.487 603.072 374.06C603.805 373.62 604.678 373.4 605.692 373.4ZM620.307 384.1C619.214 384.1 618.254 383.873 617.427 383.42C616.601 382.953 615.954 382.32 615.487 381.52C615.021 380.707 614.787 379.78 614.787 378.74C614.787 377.7 615.007 376.78 615.447 375.98C615.901 375.18 616.514 374.553 617.287 374.1C618.074 373.633 618.954 373.4 619.927 373.4C620.914 373.4 621.787 373.627 622.547 374.08C623.321 374.52 623.927 375.147 624.367 375.96C624.807 376.76 625.027 377.687 625.027 378.74C625.027 378.807 625.021 378.88 625.007 378.96C625.007 379.027 625.007 379.1 625.007 379.18H615.867V378.12H624.247L623.687 378.54C623.687 377.78 623.521 377.107 623.187 376.52C622.867 375.92 622.427 375.453 621.867 375.12C621.307 374.787 620.661 374.62 619.927 374.62C619.207 374.62 618.561 374.787 617.987 375.12C617.414 375.453 616.967 375.92 616.647 376.52C616.327 377.12 616.167 377.807 616.167 378.58V378.8C616.167 379.6 616.341 380.307 616.687 380.92C617.047 381.52 617.541 381.993 618.167 382.34C618.807 382.673 619.534 382.84 620.347 382.84C620.987 382.84 621.581 382.727 622.127 382.5C622.687 382.273 623.167 381.927 623.567 381.46L624.367 382.38C623.901 382.94 623.314 383.367 622.607 383.66C621.914 383.953 621.147 384.1 620.307 384.1ZM636.205 384V381.68L636.145 381.3V377.42C636.145 376.527 635.891 375.84 635.385 375.36C634.891 374.88 634.151 374.64 633.165 374.64C632.485 374.64 631.838 374.753 631.225 374.98C630.611 375.207 630.091 375.507 629.665 375.88L629.025 374.82C629.558 374.367 630.198 374.02 630.945 373.78C631.691 373.527 632.478 373.4 633.305 373.4C634.665 373.4 635.711 373.74 636.445 374.42C637.191 375.087 637.565 376.107 637.565 377.48V384H636.205ZM632.585 384.1C631.798 384.1 631.111 383.973 630.525 383.72C629.951 383.453 629.511 383.093 629.205 382.64C628.898 382.173 628.745 381.64 628.745 381.04C628.745 380.493 628.871 380 629.125 379.56C629.391 379.107 629.818 378.747 630.405 378.48C631.005 378.2 631.805 378.06 632.805 378.06H636.425V379.12H632.845C631.831 379.12 631.125 379.3 630.725 379.66C630.338 380.02 630.145 380.467 630.145 381C630.145 381.6 630.378 382.08 630.845 382.44C631.311 382.8 631.965 382.98 632.805 382.98C633.605 382.98 634.291 382.8 634.865 382.44C635.451 382.067 635.878 381.533 636.145 380.84L636.465 381.82C636.198 382.513 635.731 383.067 635.065 383.48C634.411 383.893 633.585 384.1 632.585 384.1ZM647.601 384.1C646.601 384.1 645.701 383.873 644.901 383.42C644.115 382.967 643.495 382.34 643.041 381.54C642.588 380.727 642.361 379.793 642.361 378.74C642.361 377.673 642.588 376.74 643.041 375.94C643.495 375.14 644.115 374.52 644.901 374.08C645.701 373.627 646.601 373.4 647.601 373.4C648.521 373.4 649.341 373.607 650.061 374.02C650.795 374.433 651.375 375.04 651.801 375.84C652.241 376.627 652.461 377.593 652.461 378.74C652.461 379.873 652.248 380.84 651.821 381.64C651.395 382.44 650.815 383.053 650.081 383.48C649.361 383.893 648.535 384.1 647.601 384.1ZM647.701 382.84C648.448 382.84 649.115 382.673 649.701 382.34C650.301 381.993 650.768 381.513 651.101 380.9C651.448 380.273 651.621 379.553 651.621 378.74C651.621 377.913 651.448 377.193 651.101 376.58C650.768 375.967 650.301 375.493 649.701 375.16C649.115 374.813 648.448 374.64 647.701 374.64C646.968 374.64 646.308 374.813 645.721 375.16C645.135 375.493 644.668 375.967 644.321 376.58C643.975 377.193 643.801 377.913 643.801 378.74C643.801 379.553 643.975 380.273 644.321 380.9C644.668 381.513 645.135 381.993 645.721 382.34C646.308 382.673 646.968 382.84 647.701 382.84ZM651.661 384V380.84L651.801 378.72L651.601 376.6V369.16H653.021V384H651.661ZM659.116 384.1C658.823 384.1 658.569 383.993 658.356 383.78C658.156 383.567 658.056 383.307 658.056 383C658.056 382.68 658.156 382.42 658.356 382.22C658.569 382.02 658.823 381.92 659.116 381.92C659.409 381.92 659.656 382.02 659.856 382.22C660.069 382.42 660.176 382.68 660.176 383C660.176 383.307 660.069 383.567 659.856 383.78C659.656 383.993 659.409 384.1 659.116 384.1ZM318.24 429.08V428.18H323.38V429.08H318.24ZM333.854 434L340.294 420H341.314L347.754 434H346.654L340.574 420.64H341.014L334.954 434H333.854ZM336.214 430.06L336.554 429.2H344.934L345.274 430.06H336.214ZM351.975 434V423.56H352.935V426.42L352.835 426.1C353.129 425.26 353.622 424.613 354.315 424.16C355.009 423.707 355.875 423.48 356.915 423.48V424.46C356.875 424.46 356.835 424.46 356.795 424.46C356.755 424.447 356.715 424.44 356.675 424.44C355.515 424.44 354.609 424.807 353.955 425.54C353.302 426.26 352.975 427.267 352.975 428.56V434H351.975ZM365.18 434.08C364.26 434.08 363.553 433.827 363.06 433.32C362.58 432.813 362.34 432.12 362.34 431.24V421.28H363.34V431.14C363.34 431.807 363.506 432.32 363.84 432.68C364.173 433.04 364.653 433.22 365.28 433.22C365.933 433.22 366.473 433.027 366.9 432.64L367.32 433.34C367.053 433.593 366.726 433.78 366.34 433.9C365.966 434.02 365.58 434.08 365.18 434.08ZM360.42 424.42V423.56H366.66V424.42H360.42ZM376.348 434.08C375.455 434.08 374.682 433.92 374.028 433.6C373.375 433.267 372.868 432.773 372.508 432.12C372.162 431.453 371.988 430.633 371.988 429.66V423.56H372.988V429.58C372.988 430.753 373.288 431.647 373.888 432.26C374.488 432.873 375.335 433.18 376.428 433.18C377.215 433.18 377.895 433.013 378.468 432.68C379.042 432.347 379.482 431.88 379.788 431.28C380.095 430.667 380.248 429.947 380.248 429.12V423.56H381.248V434H380.288V431.1L380.428 431.44C380.122 432.253 379.608 432.9 378.888 433.38C378.182 433.847 377.335 434.08 376.348 434.08Z" fill="black"/>
</svg>
