<svg width="309" height="140" viewBox="0 0 309 140" fill="none" xmlns="http://www.w3.org/2000/svg">
<path d="M154.5 140C130.252 140 110.311 123.894 107.922 103.257C89.5325 116.374 62.3974 115.441 45.252 100.459C28.1066 85.4782 27.0393 61.7682 42.0499 45.6991C18.4326 43.6118 0 26.1873 0 5C0 -16.1873 18.4326 -33.6118 42.05 -35.7C27.0393 -51.7677 28.1066 -75.478 45.2521 -90.4595C62.3975 -105.441 89.5325 -106.374 107.922 -93.2574C110.311 -113.894 130.252 -130 154.5 -130C178.748 -130 198.689 -113.894 201.078 -93.2574C219.468 -106.374 246.603 -105.441 263.748 -90.4595C280.894 -75.478 281.961 -51.7677 266.95 -35.6991C290.567 -33.6118 309 -16.1873 309 5C309 26.1873 290.567 43.6118 266.95 45.6991C281.961 61.7682 280.894 85.4782 263.748 100.459C246.603 115.441 219.468 116.374 201.079 103.257C198.689 123.894 178.748 140 154.5 140Z" fill="#AAD7D3"/>
</svg>
